<svg width="156" height="50" viewBox="0 0 156 50" fill="none" xmlns="http://www.w3.org/2000/svg">
<path fill-rule="evenodd" clip-rule="evenodd" d="M1 2L7.67333 6.6L14.3467 43.4L21.1483 20.4L27.8217 11.2L34.495 29.6L41.1683 2L47.8417 25H54.515L61.3167 15.8L67.99 43.4L74.6633 6.6L81.3367 34.2L88.01 2L94.6833 11.2L101.485 48L108.158 6.6L114.832 29.6L121.505 48L128.178 29.6L134.852 38.8H141.653L148.327 34.2L155 11.2V48H148.327H141.653H134.852H128.178H121.505H114.832H108.158H101.485H94.6833H88.01H81.3367H74.6633H67.99H61.3167H54.515H47.8417H41.1683H34.495H27.8217H21.1483H14.3467H7.67333H1V2Z" fill="url(#paint0_linear_86_5532)"/>
<path d="M1 2L7.67333 6.6L14.3467 43.4L21.1483 20.4L27.8217 11.2L34.495 29.6L41.1683 2L47.8417 25H54.515L61.3167 15.8L67.99 43.4L74.6633 6.6L81.3367 34.2L88.01 2L94.6833 11.2C94.6833 11.2 98.8288 33.6287 101.485 48C104.091 31.8323 108.158 6.6 108.158 6.6L114.832 29.6L121.505 48L128.178 29.6L134.852 38.8H141.653L148.327 34.2L155 11.2" stroke="#019934" stroke-linecap="round"/>
<defs>
<linearGradient id="paint0_linear_86_5532" x1="78" y1="2" x2="78" y2="48" gradientUnits="userSpaceOnUse">
<stop stop-color="#019934" stop-opacity="0.54"/>
<stop offset="1" stop-color="#019934" stop-opacity="0"/>
</linearGradient>
</defs>
</svg>
