<svg width="182" height="171" viewBox="0 0 182 171" fill="none" xmlns="http://www.w3.org/2000/svg">
<g clip-path="url(#clip0_138_257)">
<path d="M162.362 61.0661C161.195 54.9139 159.702 48.8277 157.891 42.8328C152.444 25.4815 141.604 7.92526 122.986 2.02232C109.241 -2.33099 94.4073 0.672932 82.7932 9.54643C64.5766 23.4598 51.319 42.4465 31.3873 54.4956C14.7473 64.5611 6.03787 80.8205 11.6323 103.803C17.2268 126.785 35.9164 140.174 56.3688 138.548C73.3672 137.18 91.1395 138.644 105.835 146.878C118.968 154.235 142.173 147.832 161.369 127.734C172.553 116.019 171.468 101.123 167.823 87.205C165.568 78.5842 164.106 69.7918 162.362 61.0661Z" fill="#019934"/>
<path opacity="0.7" d="M162.362 61.0661C161.195 54.9139 159.702 48.8277 157.891 42.8328C152.444 25.4815 141.604 7.92526 122.986 2.02232C109.241 -2.33099 94.4073 0.672932 82.7932 9.54643C64.5766 23.4598 51.319 42.4465 31.3873 54.4956C14.7473 64.5611 6.03787 80.8205 11.6323 103.803C17.2268 126.785 35.9164 140.174 56.3688 138.548C73.3672 137.18 91.1395 138.644 105.835 146.878C118.968 154.235 142.173 147.832 161.369 127.734C172.553 116.019 171.468 101.123 167.823 87.205C165.568 78.5842 164.106 69.7918 162.362 61.0661Z" fill="white"/>
<path d="M181.735 167.863C181.735 169.35 141.126 170.562 91.0487 170.562C40.971 170.562 0.357422 169.35 0.357422 167.863C0.357422 166.375 40.9662 165.164 91.0487 165.164C141.131 165.164 181.735 166.375 181.735 167.863Z" fill="#019934"/>
<path opacity="0.3" d="M181.735 167.863C181.735 169.35 141.126 170.562 91.0487 170.562C40.971 170.562 0.357422 169.35 0.357422 167.863C0.357422 166.375 40.9662 165.164 91.0487 165.164C141.131 165.164 181.735 166.375 181.735 167.863Z" fill="white"/>
<path d="M164.374 115.904C164.374 115.928 165.602 114.641 165.668 114.55C166.447 113.511 167.341 111.041 166.495 109.854C166.349 109.661 166.164 109.501 165.953 109.384C165.741 109.267 165.507 109.196 165.266 109.176C165.025 109.155 164.782 109.185 164.554 109.264C164.325 109.343 164.116 109.469 163.939 109.634C163.165 110.311 162.983 111.565 163.05 112.533C163.132 113.668 164.374 115.9 164.374 115.904Z" fill="#019934"/>
<path d="M175.534 111.47C174.34 110.636 171.874 111.546 170.838 112.328C170.747 112.4 169.467 113.621 169.49 113.63H169.519C169.127 113.773 168.712 113.926 168.258 114.107C167.427 114.441 166.49 114.832 165.496 115.318C164.424 115.839 163.381 116.418 162.372 117.054C161.242 117.762 160.177 118.569 159.19 119.466C159.178 119.476 159.167 119.487 159.157 119.5C159.367 119.132 159.926 118.069 159.959 117.993C160.437 116.782 160.643 114.178 159.515 113.249C159.322 113.102 159.101 112.997 158.864 112.941C158.628 112.886 158.383 112.88 158.145 112.925C157.907 112.97 157.68 113.064 157.481 113.202C157.282 113.34 157.114 113.518 156.988 113.725C156.424 114.584 156.577 115.838 156.902 116.753C157.265 117.788 158.913 119.495 159.047 119.614C158.063 120.551 157.144 121.553 156.295 122.613C155.817 123.228 155.316 123.862 154.862 124.52C155.034 124.196 155.187 123.901 155.201 123.858C155.679 122.651 155.884 120.043 154.757 119.113C154.564 118.967 154.343 118.862 154.107 118.806C153.872 118.751 153.627 118.745 153.389 118.79C153.151 118.835 152.925 118.93 152.726 119.067C152.527 119.205 152.36 119.383 152.234 119.59C151.666 120.444 151.823 121.703 152.143 122.613C152.463 123.524 153.849 125.031 154.217 125.417L153.658 126.151C152.798 127.348 151.948 128.535 151.073 129.689C150.767 130.094 150.452 130.485 150.118 130.872C150.271 130.581 150.4 130.338 150.414 130.299C150.892 129.088 151.097 126.485 149.97 125.531C149.777 125.384 149.555 125.278 149.319 125.222C149.083 125.166 148.838 125.16 148.599 125.205C148.361 125.25 148.134 125.345 147.935 125.483C147.735 125.622 147.568 125.801 147.442 126.008C146.874 126.866 147.031 128.12 147.356 129.036C147.681 129.951 148.923 131.306 149.358 131.768C149.024 132.159 148.689 132.545 148.345 132.908C148.106 133.151 147.896 133.384 147.638 133.628L146.907 134.314C146.429 134.734 145.952 135.173 145.45 135.573C145.116 135.854 144.796 136.112 144.495 136.374C144.8 135.978 145.393 135.182 145.45 135.111C145.988 134.102 146.258 132.972 146.234 131.83C146.297 131.72 146.352 131.606 146.396 131.487C146.485 131.262 146.526 131.021 146.516 130.779C146.506 130.537 146.445 130.301 146.338 130.084C146.23 129.867 146.078 129.676 145.891 129.521C145.705 129.367 145.488 129.254 145.254 129.188C143.821 128.84 141.862 130.571 141.179 131.677C141.141 131.744 140.778 132.498 140.563 132.979C140.644 132.679 140.735 132.383 140.816 132.073C140.988 131.458 141.141 130.838 141.294 130.166C141.361 129.842 141.432 129.513 141.504 129.184C141.576 128.855 141.619 128.502 141.681 128.159C141.8 127.358 141.886 126.542 141.958 125.717C142.498 125.865 144.423 126.366 145.388 126.194C146.353 126.022 147.533 125.593 148.02 124.692C148.144 124.484 148.222 124.252 148.249 124.012C148.276 123.771 148.253 123.528 148.179 123.297C148.105 123.067 147.984 122.854 147.822 122.674C147.661 122.494 147.463 122.35 147.242 122.251C145.894 121.688 143.682 123.104 142.837 124.091C142.784 124.153 142.259 124.931 141.977 125.364C142.015 124.888 142.053 124.373 142.077 123.867C142.135 122.437 142.154 120.944 142.178 119.476C142.178 119.028 142.178 118.579 142.206 118.131C142.397 118.184 144.676 118.827 145.756 118.66C146.711 118.517 147.901 118.064 148.393 117.158C148.515 116.95 148.591 116.718 148.617 116.477C148.644 116.237 148.619 115.994 148.545 115.764C148.471 115.534 148.35 115.322 148.189 115.141C148.028 114.961 147.83 114.817 147.61 114.717C146.267 114.159 144.05 115.575 143.205 116.562C143.143 116.634 142.388 117.755 142.206 118.05C142.23 117.063 142.264 116.076 142.335 115.108C142.427 113.8 142.603 112.499 142.861 111.213C142.951 111.213 145.326 111.918 146.434 111.747C147.39 111.604 148.575 111.151 149.067 110.245C149.189 110.036 149.265 109.804 149.292 109.564C149.318 109.324 149.294 109.081 149.221 108.851C149.147 108.621 149.026 108.409 148.866 108.229C148.705 108.048 148.508 107.903 148.288 107.803C146.941 107.246 144.724 108.657 143.883 109.649C143.826 109.711 143.248 110.564 142.985 110.974L142.908 110.946C143.204 109.657 143.615 108.398 144.136 107.184C144.413 106.511 144.714 105.887 145.025 105.276C145.455 105.448 147.414 106.23 148.436 106.173C149.458 106.115 150.634 105.81 151.221 104.966C151.366 104.772 151.467 104.55 151.52 104.314C151.573 104.079 151.576 103.834 151.528 103.598C151.48 103.361 151.383 103.137 151.243 102.939C151.103 102.742 150.923 102.577 150.715 102.454C149.439 101.753 147.079 102.93 146.133 103.803C146.081 103.851 145.613 104.399 145.273 104.804C145.417 104.537 145.56 104.256 145.703 103.998C146.238 103.045 146.783 102.187 147.275 101.438C147.557 101.018 147.82 100.642 148.073 100.289C148.579 100.241 150.634 100.008 151.498 99.5164C152.363 99.0253 153.28 98.1861 153.409 97.1657C153.449 96.9272 153.437 96.6832 153.375 96.4495C153.314 96.2158 153.203 95.9977 153.051 95.8096C152.899 95.6214 152.709 95.4675 152.493 95.3577C152.278 95.2479 152.041 95.1849 151.799 95.1726C150.342 95.1345 148.79 97.2468 148.36 98.4722C148.321 98.5819 147.93 100.303 147.954 100.298H147.987C147.739 100.616 147.476 100.979 147.199 101.386C146.687 102.125 146.119 102.964 145.565 103.917C144.955 104.94 144.405 105.997 143.917 107.083C143.366 108.298 142.924 109.559 142.593 110.85C142.596 110.866 142.596 110.882 142.593 110.898C142.593 110.474 142.45 109.286 142.431 109.196C142.163 107.927 140.888 105.629 139.44 105.486C139.198 105.468 138.956 105.501 138.728 105.582C138.5 105.664 138.291 105.793 138.116 105.96C137.942 106.127 137.804 106.33 137.713 106.554C137.621 106.778 137.578 107.018 137.586 107.26C137.586 108.285 138.413 109.248 139.187 109.83C140.061 110.493 142.378 111.012 142.564 111.051C142.265 112.375 142.052 113.718 141.929 115.07C141.857 115.857 141.805 116.648 141.762 117.454C141.728 117.087 141.695 116.758 141.685 116.715C141.413 115.442 140.138 113.148 138.69 113.001C138.448 112.982 138.206 113.015 137.978 113.097C137.75 113.179 137.541 113.307 137.366 113.475C137.192 113.642 137.054 113.844 136.963 114.068C136.871 114.292 136.828 114.533 136.836 114.774C136.836 115.8 137.663 116.763 138.437 117.349C139.211 117.936 141.193 118.422 141.714 118.546C141.714 118.851 141.685 119.156 141.676 119.461C141.619 120.93 141.571 122.399 141.48 123.834C141.447 124.339 141.394 124.84 141.346 125.336C141.318 125.012 141.284 124.735 141.279 124.697C141.007 123.424 139.731 121.13 138.284 120.983C138.042 120.964 137.8 120.997 137.571 121.079C137.343 121.16 137.135 121.289 136.96 121.456C136.785 121.624 136.648 121.826 136.556 122.05C136.465 122.274 136.422 122.515 136.43 122.756C136.43 123.786 137.257 124.745 138.031 125.331C138.805 125.918 140.596 126.361 141.212 126.504C141.15 127.014 141.083 127.524 140.997 128.011C140.931 128.345 140.892 128.674 140.806 129.003L140.577 129.956C140.405 130.571 140.238 131.21 140.056 131.806C139.932 132.221 139.808 132.617 139.684 133.017C139.722 132.512 139.774 131.525 139.77 131.439C139.698 130.147 138.785 127.682 137.381 127.319C137.145 127.266 136.901 127.262 136.663 127.308C136.426 127.355 136.201 127.451 136.003 127.59C135.806 127.729 135.639 127.908 135.515 128.115C135.391 128.322 135.312 128.553 135.284 128.793C135.126 129.808 135.795 130.881 136.473 131.577C137.152 132.273 139.34 133.184 139.607 133.289C139.397 133.947 139.192 134.581 138.986 135.196C138.274 137.27 137.605 138.973 137.123 140.155C137.123 140.198 137.089 140.236 137.07 140.274L137.94 140.751C137.969 140.675 138.002 140.599 138.031 140.518C138.508 139.311 139.134 137.576 139.803 135.463C140.018 134.796 140.233 134.081 140.448 133.342C141.177 133.433 141.911 133.48 142.646 133.485C142.908 134.548 144.127 136.293 144.284 136.517C143.749 136.951 143.224 137.371 142.722 137.757C140.983 139.097 139.483 140.141 138.422 140.866L138.298 140.951L139.254 141.476C140.286 140.737 141.642 139.712 143.252 138.434C143.797 137.995 144.375 137.514 144.958 137.003C145.173 137.185 146.917 138.663 147.949 138.958C148.88 139.225 150.146 139.311 150.968 138.696C151.167 138.558 151.334 138.38 151.459 138.173C151.584 137.966 151.664 137.735 151.693 137.496C151.723 137.256 151.702 137.013 151.631 136.782C151.561 136.551 151.442 136.337 151.283 136.155C150.299 135.082 147.696 135.44 146.506 135.983C146.439 136.016 145.722 136.46 145.273 136.727C145.512 136.522 145.751 136.326 145.985 136.112C146.463 135.697 146.941 135.263 147.447 134.796L148.164 134.095C148.407 133.861 148.641 133.589 148.88 133.337C149.425 132.736 149.946 132.102 150.457 131.453C150.83 131.873 152.162 133.361 153.046 133.761C153.93 134.162 155.168 134.438 156.075 133.957C156.292 133.85 156.484 133.698 156.638 133.513C156.793 133.327 156.907 133.111 156.973 132.879C157.038 132.646 157.055 132.403 157.02 132.164C156.986 131.925 156.901 131.696 156.773 131.492C155.961 130.285 153.333 130.242 152.081 130.6C152 130.624 151.126 130.981 150.648 131.186C150.949 130.795 151.26 130.404 151.551 129.994C152.406 128.817 153.233 127.61 154.064 126.39L154.833 125.283C154.962 125.431 156.51 127.224 157.504 127.667C158.383 128.073 159.62 128.349 160.528 127.863C160.746 127.757 160.939 127.606 161.094 127.421C161.25 127.235 161.364 127.019 161.43 126.786C161.496 126.554 161.512 126.31 161.476 126.07C161.441 125.831 161.356 125.602 161.225 125.398C160.413 124.191 157.786 124.149 156.534 124.511C156.443 124.535 155.191 125.055 154.881 125.202C155.445 124.392 156.018 123.586 156.615 122.818C157.411 121.775 158.276 120.786 159.205 119.857C159.267 119.929 160.872 121.803 161.885 122.27C162.769 122.68 164.006 122.952 164.914 122.47C165.131 122.364 165.323 122.213 165.478 122.027C165.633 121.842 165.747 121.625 165.813 121.393C165.879 121.16 165.895 120.917 165.86 120.677C165.825 120.438 165.741 120.209 165.611 120.005C164.799 118.794 162.171 118.756 160.92 119.113C160.838 119.137 159.888 119.533 159.439 119.729L159.391 119.657C160.35 118.749 161.387 117.927 162.491 117.201C163.098 116.791 163.695 116.434 164.288 116.105C164.551 116.481 165.769 118.203 166.638 118.727C167.508 119.252 168.669 119.638 169.624 119.256C169.853 119.174 170.061 119.044 170.235 118.875C170.41 118.706 170.546 118.503 170.637 118.278C170.727 118.053 170.768 117.811 170.759 117.569C170.749 117.327 170.688 117.089 170.58 116.872C169.906 115.58 167.298 115.256 166.017 115.475C165.946 115.475 165.248 115.685 164.746 115.838L165.549 115.399C166.528 114.894 167.46 114.484 168.277 114.131C168.755 113.935 169.175 113.764 169.576 113.611C170.03 113.849 171.865 114.789 172.859 114.851C173.852 114.913 175.085 114.722 175.754 113.945C175.907 113.77 176.023 113.566 176.095 113.345C176.167 113.125 176.193 112.892 176.173 112.661C176.152 112.43 176.085 112.205 175.975 112C175.865 111.796 175.715 111.615 175.534 111.47Z" fill="#019934"/>
<path d="M141.977 102.959C142.67 103.865 144.939 105.043 144.944 105.043C144.948 105.043 145.269 103.316 145.273 103.202C145.35 101.905 144.729 99.3589 143.362 98.8344C143.134 98.7536 142.891 98.7217 142.65 98.7407C142.408 98.7597 142.174 98.8293 141.961 98.9449C141.748 99.0605 141.562 99.2196 141.415 99.4117C141.268 99.6038 141.163 99.8246 141.107 100.06C140.84 101.047 141.408 102.191 141.977 102.959Z" fill="#019934"/>
<g opacity="0.5">
<path d="M164.374 115.904C164.374 115.928 165.602 114.641 165.668 114.55C166.447 113.511 167.341 111.041 166.495 109.854C166.349 109.661 166.164 109.501 165.953 109.384C165.741 109.267 165.507 109.196 165.266 109.176C165.025 109.155 164.782 109.185 164.554 109.264C164.325 109.343 164.116 109.469 163.939 109.634C163.165 110.311 162.983 111.565 163.05 112.533C163.132 113.668 164.374 115.9 164.374 115.904Z" fill="white"/>
<path d="M175.534 111.47C174.34 110.636 171.874 111.546 170.838 112.328C170.747 112.4 169.467 113.621 169.49 113.63H169.519C169.127 113.773 168.712 113.926 168.258 114.107C167.427 114.441 166.49 114.832 165.496 115.318C164.424 115.839 163.381 116.418 162.372 117.054C161.242 117.762 160.177 118.569 159.19 119.466C159.178 119.476 159.167 119.487 159.157 119.5C159.367 119.132 159.926 118.069 159.959 117.993C160.437 116.782 160.643 114.178 159.515 113.249C159.322 113.102 159.101 112.997 158.864 112.941C158.628 112.886 158.383 112.88 158.145 112.925C157.907 112.97 157.68 113.064 157.481 113.202C157.282 113.34 157.114 113.518 156.988 113.725C156.424 114.584 156.577 115.838 156.902 116.753C157.265 117.788 158.913 119.495 159.047 119.614C158.063 120.551 157.144 121.553 156.295 122.613C155.817 123.228 155.316 123.862 154.862 124.52C155.034 124.196 155.187 123.901 155.201 123.858C155.679 122.651 155.884 120.043 154.757 119.113C154.564 118.967 154.343 118.862 154.107 118.806C153.872 118.751 153.627 118.745 153.389 118.79C153.151 118.835 152.925 118.93 152.726 119.067C152.527 119.205 152.36 119.383 152.234 119.59C151.666 120.444 151.823 121.703 152.143 122.613C152.463 123.524 153.849 125.031 154.217 125.417L153.658 126.151C152.798 127.348 151.948 128.535 151.073 129.689C150.767 130.094 150.452 130.485 150.118 130.872C150.271 130.581 150.4 130.338 150.414 130.299C150.892 129.088 151.097 126.485 149.97 125.531C149.777 125.384 149.555 125.278 149.319 125.222C149.083 125.166 148.838 125.16 148.599 125.205C148.361 125.25 148.134 125.345 147.935 125.483C147.735 125.622 147.568 125.801 147.442 126.008C146.874 126.866 147.031 128.12 147.356 129.036C147.681 129.951 148.923 131.306 149.358 131.768C149.024 132.159 148.689 132.545 148.345 132.908C148.106 133.151 147.896 133.384 147.638 133.628L146.907 134.314C146.429 134.734 145.952 135.173 145.45 135.573C145.116 135.854 144.796 136.112 144.495 136.374C144.8 135.978 145.393 135.182 145.45 135.111C145.988 134.102 146.258 132.972 146.234 131.83C146.297 131.72 146.352 131.606 146.396 131.487C146.485 131.262 146.526 131.021 146.516 130.779C146.506 130.537 146.445 130.301 146.338 130.084C146.23 129.867 146.078 129.676 145.891 129.521C145.705 129.367 145.488 129.254 145.254 129.188C143.821 128.84 141.862 130.571 141.179 131.677C141.141 131.744 140.778 132.498 140.563 132.979C140.644 132.679 140.735 132.383 140.816 132.073C140.988 131.458 141.141 130.838 141.294 130.166C141.361 129.842 141.432 129.513 141.504 129.184C141.576 128.855 141.619 128.502 141.681 128.159C141.8 127.358 141.886 126.542 141.958 125.717C142.498 125.865 144.423 126.366 145.388 126.194C146.353 126.022 147.533 125.593 148.02 124.692C148.144 124.484 148.222 124.252 148.249 124.012C148.276 123.771 148.253 123.528 148.179 123.297C148.105 123.067 147.984 122.854 147.822 122.674C147.661 122.494 147.463 122.35 147.242 122.251C145.894 121.688 143.682 123.104 142.837 124.091C142.784 124.153 142.259 124.931 141.977 125.364C142.015 124.888 142.053 124.373 142.077 123.867C142.135 122.437 142.154 120.944 142.178 119.476C142.178 119.028 142.178 118.579 142.206 118.131C142.397 118.184 144.676 118.827 145.756 118.66C146.711 118.517 147.901 118.064 148.393 117.158C148.515 116.95 148.591 116.718 148.617 116.477C148.644 116.237 148.619 115.994 148.545 115.764C148.471 115.534 148.35 115.322 148.189 115.141C148.028 114.961 147.83 114.817 147.61 114.717C146.267 114.159 144.05 115.575 143.205 116.562C143.143 116.634 142.388 117.755 142.206 118.05C142.23 117.063 142.264 116.076 142.335 115.108C142.427 113.8 142.603 112.499 142.861 111.213C142.951 111.213 145.326 111.918 146.434 111.747C147.39 111.604 148.575 111.151 149.067 110.245C149.189 110.036 149.265 109.804 149.292 109.564C149.318 109.324 149.294 109.081 149.221 108.851C149.147 108.621 149.026 108.409 148.866 108.229C148.705 108.048 148.508 107.903 148.288 107.803C146.941 107.246 144.724 108.657 143.883 109.649C143.826 109.711 143.248 110.564 142.985 110.974L142.908 110.946C143.204 109.657 143.615 108.398 144.136 107.184C144.413 106.511 144.714 105.887 145.025 105.276C145.455 105.448 147.414 106.23 148.436 106.173C149.458 106.115 150.634 105.81 151.221 104.966C151.366 104.772 151.467 104.55 151.52 104.314C151.573 104.079 151.576 103.834 151.528 103.598C151.48 103.361 151.383 103.137 151.243 102.939C151.103 102.742 150.923 102.577 150.715 102.454C149.439 101.753 147.079 102.93 146.133 103.803C146.081 103.851 145.613 104.399 145.273 104.804C145.417 104.537 145.56 104.256 145.703 103.998C146.238 103.045 146.783 102.187 147.275 101.438C147.557 101.018 147.82 100.642 148.073 100.289C148.579 100.241 150.634 100.008 151.498 99.5164C152.363 99.0253 153.28 98.1861 153.409 97.1657C153.449 96.9272 153.437 96.6832 153.375 96.4495C153.314 96.2158 153.203 95.9977 153.051 95.8096C152.899 95.6214 152.709 95.4675 152.493 95.3577C152.278 95.2479 152.041 95.1849 151.799 95.1726C150.342 95.1345 148.79 97.2468 148.36 98.4722C148.321 98.5819 147.93 100.303 147.954 100.298H147.987C147.739 100.616 147.476 100.979 147.199 101.386C146.687 102.125 146.119 102.964 145.565 103.917C144.955 104.94 144.405 105.997 143.917 107.083C143.366 108.298 142.924 109.559 142.593 110.85C142.596 110.866 142.596 110.882 142.593 110.898C142.593 110.474 142.45 109.286 142.431 109.196C142.163 107.927 140.888 105.629 139.44 105.486C139.198 105.468 138.956 105.501 138.728 105.582C138.5 105.664 138.291 105.793 138.116 105.96C137.942 106.127 137.804 106.33 137.713 106.554C137.621 106.778 137.578 107.018 137.586 107.26C137.586 108.285 138.413 109.248 139.187 109.83C140.061 110.493 142.378 111.012 142.564 111.051C142.265 112.375 142.052 113.718 141.929 115.07C141.857 115.857 141.805 116.648 141.762 117.454C141.728 117.087 141.695 116.758 141.685 116.715C141.413 115.442 140.138 113.148 138.69 113.001C138.448 112.982 138.206 113.015 137.978 113.097C137.75 113.179 137.541 113.307 137.366 113.475C137.192 113.642 137.054 113.844 136.963 114.068C136.871 114.292 136.828 114.533 136.836 114.774C136.836 115.8 137.663 116.763 138.437 117.349C139.211 117.936 141.193 118.422 141.714 118.546C141.714 118.851 141.685 119.156 141.676 119.461C141.619 120.93 141.571 122.399 141.48 123.834C141.447 124.339 141.394 124.84 141.346 125.336C141.318 125.012 141.284 124.735 141.279 124.697C141.007 123.424 139.731 121.13 138.284 120.983C138.042 120.964 137.8 120.997 137.571 121.079C137.343 121.16 137.135 121.289 136.96 121.456C136.785 121.624 136.648 121.826 136.556 122.05C136.465 122.274 136.422 122.515 136.43 122.756C136.43 123.786 137.257 124.745 138.031 125.331C138.805 125.918 140.596 126.361 141.212 126.504C141.15 127.014 141.083 127.524 140.997 128.011C140.931 128.345 140.892 128.674 140.806 129.003L140.577 129.956C140.405 130.571 140.238 131.21 140.056 131.806C139.932 132.221 139.808 132.617 139.684 133.017C139.722 132.512 139.774 131.525 139.77 131.439C139.698 130.147 138.785 127.682 137.381 127.319C137.145 127.266 136.901 127.262 136.663 127.308C136.426 127.355 136.201 127.451 136.003 127.59C135.806 127.729 135.639 127.908 135.515 128.115C135.391 128.322 135.312 128.553 135.284 128.793C135.126 129.808 135.795 130.881 136.473 131.577C137.152 132.273 139.34 133.184 139.607 133.289C139.397 133.947 139.192 134.581 138.986 135.196C138.274 137.27 137.605 138.973 137.123 140.155C137.123 140.198 137.089 140.236 137.07 140.274L137.94 140.751C137.969 140.675 138.002 140.599 138.031 140.518C138.508 139.311 139.134 137.576 139.803 135.463C140.018 134.796 140.233 134.081 140.448 133.342C141.177 133.433 141.911 133.48 142.646 133.485C142.908 134.548 144.127 136.293 144.284 136.517C143.749 136.951 143.224 137.371 142.722 137.757C140.983 139.097 139.483 140.141 138.422 140.866L138.298 140.951L139.254 141.476C140.286 140.737 141.642 139.712 143.252 138.434C143.797 137.995 144.375 137.514 144.958 137.003C145.173 137.185 146.917 138.663 147.949 138.958C148.88 139.225 150.146 139.311 150.968 138.696C151.167 138.558 151.334 138.38 151.459 138.173C151.584 137.966 151.664 137.735 151.693 137.496C151.723 137.256 151.702 137.013 151.631 136.782C151.561 136.551 151.442 136.337 151.283 136.155C150.299 135.082 147.696 135.44 146.506 135.983C146.439 136.016 145.722 136.46 145.273 136.727C145.512 136.522 145.751 136.326 145.985 136.112C146.463 135.697 146.941 135.263 147.447 134.796L148.164 134.095C148.407 133.861 148.641 133.589 148.88 133.337C149.425 132.736 149.946 132.102 150.457 131.453C150.83 131.873 152.162 133.361 153.046 133.761C153.93 134.162 155.168 134.438 156.075 133.957C156.292 133.85 156.484 133.698 156.638 133.513C156.793 133.327 156.907 133.111 156.973 132.879C157.038 132.646 157.055 132.403 157.02 132.164C156.986 131.925 156.901 131.696 156.773 131.492C155.961 130.285 153.333 130.242 152.081 130.6C152 130.624 151.126 130.981 150.648 131.186C150.949 130.795 151.26 130.404 151.551 129.994C152.406 128.817 153.233 127.61 154.064 126.39L154.833 125.283C154.962 125.431 156.51 127.224 157.504 127.667C158.383 128.073 159.62 128.349 160.528 127.863C160.746 127.757 160.939 127.606 161.094 127.421C161.25 127.235 161.364 127.019 161.43 126.786C161.496 126.554 161.512 126.31 161.476 126.07C161.441 125.831 161.356 125.602 161.225 125.398C160.413 124.191 157.786 124.149 156.534 124.511C156.443 124.535 155.191 125.055 154.881 125.202C155.445 124.392 156.018 123.586 156.615 122.818C157.411 121.775 158.276 120.786 159.205 119.857C159.267 119.929 160.872 121.803 161.885 122.27C162.769 122.68 164.006 122.952 164.914 122.47C165.131 122.364 165.323 122.213 165.478 122.027C165.633 121.842 165.747 121.625 165.813 121.393C165.879 121.16 165.895 120.917 165.86 120.677C165.825 120.438 165.741 120.209 165.611 120.005C164.799 118.794 162.171 118.756 160.92 119.113C160.838 119.137 159.888 119.533 159.439 119.729L159.391 119.657C160.35 118.749 161.387 117.927 162.491 117.201C163.098 116.791 163.695 116.434 164.288 116.105C164.551 116.481 165.769 118.203 166.638 118.727C167.508 119.252 168.669 119.638 169.624 119.256C169.853 119.174 170.061 119.044 170.235 118.875C170.41 118.706 170.546 118.503 170.637 118.278C170.727 118.053 170.768 117.811 170.759 117.569C170.749 117.327 170.688 117.089 170.58 116.872C169.906 115.58 167.298 115.256 166.017 115.475C165.946 115.475 165.248 115.685 164.746 115.838L165.549 115.399C166.528 114.894 167.46 114.484 168.277 114.131C168.755 113.935 169.175 113.764 169.576 113.611C170.03 113.849 171.865 114.789 172.859 114.851C173.852 114.913 175.085 114.722 175.754 113.945C175.907 113.77 176.023 113.566 176.095 113.345C176.167 113.125 176.193 112.892 176.173 112.661C176.152 112.43 176.085 112.205 175.975 112C175.865 111.796 175.715 111.615 175.534 111.47Z" fill="white"/>
<path d="M141.977 102.959C142.67 103.865 144.939 105.043 144.944 105.043C144.948 105.043 145.269 103.316 145.273 103.202C145.35 101.905 144.729 99.3589 143.362 98.8344C143.134 98.7536 142.891 98.7217 142.65 98.7407C142.408 98.7597 142.174 98.8293 141.961 98.9449C141.748 99.0605 141.562 99.2196 141.415 99.4117C141.268 99.6038 141.163 99.8246 141.107 100.06C140.84 101.047 141.408 102.191 141.977 102.959Z" fill="white"/>
</g>
<path d="M48.7248 78.8514C48.7535 78.8514 48.3522 76.8535 48.3092 76.7343C47.8314 75.3039 46.1115 72.8197 44.4298 72.8245C44.1505 72.8332 43.8762 72.9005 43.6246 73.0219C43.3731 73.1434 43.1499 73.3163 42.9697 73.5295C42.7895 73.7426 42.6562 73.9912 42.5785 74.2592C42.5008 74.5271 42.4805 74.8083 42.5188 75.0846C42.643 76.2623 43.7037 77.2684 44.6639 77.8453C45.7819 78.5272 48.7248 78.8514 48.7248 78.8514Z" fill="#019934"/>
<path d="M51.9783 65.4004C50.3922 65.9678 49.5895 68.8954 49.6564 70.3926C49.6564 70.5214 49.9574 72.5383 49.9861 72.524H50.0195C49.8905 73.0008 49.7615 73.4776 49.6278 74.0259C49.3889 75.032 49.15 76.1716 48.9303 77.4304C48.7034 78.7861 48.5535 80.1536 48.4812 81.5262C48.3973 83.0616 48.4501 84.6014 48.6388 86.1275C48.6411 86.1465 48.6411 86.1657 48.6388 86.1847C48.4334 85.7365 47.8123 84.5111 47.7502 84.4205C46.9285 83.1665 44.5971 81.2258 42.9727 81.674C42.7058 81.7565 42.4592 81.894 42.2488 82.0775C42.0384 82.2611 41.869 82.4867 41.7515 82.7397C41.634 82.9927 41.571 83.2675 41.5665 83.5464C41.5621 83.8252 41.6164 84.1019 41.7258 84.3585C42.1558 85.4599 43.4457 86.1513 44.5254 86.4565C45.7437 86.8045 48.4573 86.3945 48.6723 86.3611C48.9018 87.9107 49.2353 89.4431 49.6708 90.9481C49.9192 91.8254 50.1963 92.7027 50.4877 93.5801C50.2966 93.1986 50.1199 92.8601 50.0912 92.8172C49.2647 91.5631 46.938 89.6225 45.3137 90.0707C45.0465 90.152 44.7995 90.2886 44.5887 90.4715C44.378 90.6545 44.2082 90.8798 44.0906 91.1326C43.9729 91.3855 43.91 91.6602 43.9059 91.939C43.9018 92.2177 43.9566 92.4942 44.0668 92.7504C44.4967 93.8566 45.7867 94.548 46.8664 94.8531C47.9461 95.1583 50.2775 94.8532 50.8938 94.7721C51.0085 95.1059 51.1183 95.4444 51.233 95.7782C51.7872 97.3803 52.3509 98.9823 52.8526 100.546C53.0293 101.104 53.1822 101.662 53.3303 102.215C53.1583 101.877 53.015 101.595 52.9863 101.557C52.1646 100.303 49.8332 98.3625 48.2089 98.8107C47.9417 98.892 47.6946 99.0286 47.4839 99.2115C47.2731 99.3945 47.1034 99.6198 46.9857 99.8726C46.8681 100.125 46.8051 100.4 46.801 100.679C46.7969 100.958 46.8518 101.234 46.9619 101.49C47.3919 102.597 48.6818 103.288 49.7615 103.593C50.8413 103.898 52.9481 103.631 53.6791 103.526C53.8224 104.103 53.9657 104.676 54.0756 105.238C54.1473 105.624 54.2381 105.992 54.2858 106.387C54.3336 106.783 54.3909 107.155 54.4483 107.532C54.5247 108.266 54.6059 109.024 54.6632 109.744C54.7062 110.221 54.7349 110.698 54.7684 111.174C54.6011 110.617 54.2428 109.529 54.2046 109.444C53.6097 108.265 52.7234 107.257 51.6295 106.516C51.5685 106.382 51.4949 106.254 51.4098 106.135C51.2584 105.9 51.0593 105.699 50.8254 105.546C50.5915 105.393 50.3279 105.291 50.0518 105.246C49.7757 105.201 49.4932 105.214 49.2226 105.285C48.9521 105.356 48.6994 105.483 48.4812 105.658C47.2104 106.759 47.5257 109.768 48.1133 111.151C48.1467 111.232 48.6245 112.071 48.9303 112.581C48.7009 112.3 48.4859 112.023 48.2471 111.732C47.7693 111.165 47.2916 110.607 46.7756 110.006L45.9873 109.153C45.7293 108.862 45.4236 108.59 45.1369 108.304C44.4681 107.656 43.7514 107.031 43.0205 106.397C43.4982 105.987 45.2755 104.49 45.7819 103.503C46.2883 102.516 46.6418 101.085 46.1163 100.022C46.0014 99.7676 45.834 99.5403 45.6252 99.355C45.4163 99.1697 45.1707 99.0304 44.9042 98.9463C44.6377 98.8621 44.3565 98.835 44.0789 98.8667C43.8012 98.8984 43.5333 98.9882 43.2928 99.1302C41.8596 100.022 41.7258 103.045 42.0936 104.499C42.1175 104.59 42.4997 105.601 42.7195 106.154C42.2752 105.791 41.8357 105.424 41.377 105.066C40.0441 104.041 38.6682 103.045 37.297 102.043C36.8766 101.738 36.461 101.424 36.0453 101.118C36.2269 100.971 38.3529 99.2589 38.9118 98.1336C39.4135 97.1323 39.7766 95.7162 39.251 94.6529C39.1361 94.3986 38.9688 94.1714 38.7599 93.9861C38.5511 93.8008 38.3054 93.6615 38.0389 93.5773C37.7725 93.4932 37.4912 93.4661 37.2136 93.4978C36.9359 93.5295 36.6681 93.6192 36.4275 93.7613C34.9943 94.6529 34.8557 97.6759 35.2284 99.1302C35.2284 99.2398 35.8065 100.699 35.9641 101.061C35.0468 100.379 34.1439 99.6928 33.2744 98.9776C32.0947 98.02 30.9777 96.9879 29.9301 95.8878C30.0161 95.8211 32.2424 94.0426 32.7966 92.8887C33.2983 91.8874 33.6614 90.4712 33.1358 89.4079C33.0209 89.1537 32.8536 88.9265 32.6447 88.7412C32.4359 88.5558 32.1902 88.4165 31.9237 88.3324C31.6573 88.2483 31.376 88.2211 31.0984 88.2528C30.8207 88.2845 30.5529 88.3743 30.3123 88.5163C28.8791 89.4079 28.7405 92.4309 29.1132 93.8852C29.1132 93.9806 29.5575 95.0916 29.7677 95.6161L29.6865 95.6637C28.6672 94.5275 27.7526 93.3019 26.9538 92.0018C26.5047 91.2961 26.1177 90.5714 25.7546 89.8991C26.1989 89.6082 28.2389 88.2684 28.8743 87.2861C29.5097 86.3039 29.997 84.9784 29.5909 83.8674C29.5047 83.6019 29.3634 83.3576 29.1763 83.1502C28.9892 82.9428 28.7605 82.7771 28.505 82.6637C28.2495 82.5504 27.9729 82.492 27.6933 82.4924C27.4137 82.4927 27.1373 82.5518 26.8821 82.6658C25.3676 83.4001 24.8947 86.3897 25.1001 87.8726C25.1001 87.9537 25.3151 88.7642 25.4727 89.3507C25.3151 89.036 25.1479 88.7118 24.995 88.3971C24.4408 87.2528 24.006 86.1751 23.6238 85.212C23.4136 84.6637 23.2369 84.1678 23.0744 83.6957C23.3659 83.1855 24.5077 81.1019 24.6223 79.9623C24.737 78.8227 24.5602 77.397 23.6668 76.596C23.4676 76.4004 23.2294 76.2489 22.9677 76.1512C22.706 76.0535 22.4266 76.0118 22.1477 76.0289C21.8689 76.046 21.5967 76.1215 21.3489 76.2504C21.1011 76.3793 20.8833 76.5588 20.7096 76.7772C19.7063 78.1218 20.6666 80.997 21.5361 82.2176C21.6077 82.3225 22.9693 83.8435 22.9693 83.8149V83.7815C23.1174 84.2584 23.2799 84.7352 23.4471 85.2501C23.8054 86.2038 24.221 87.3147 24.7513 88.4734C25.3075 89.7301 25.9376 90.9529 26.6384 92.1353C27.4188 93.4632 28.314 94.7204 29.3138 95.8926L29.3521 95.9307C28.9316 95.6733 27.7373 94.9771 27.6369 94.9485C26.2562 94.3573 23.2416 94.0235 22.1333 95.287C21.9559 95.5029 21.8259 95.7535 21.7517 96.0227C21.6776 96.2918 21.6609 96.5735 21.7028 96.8495C21.7447 97.1255 21.8442 97.3897 21.9949 97.6248C22.1456 97.86 22.3441 98.061 22.5776 98.2147C23.5331 98.8965 25.0045 98.763 26.0699 98.4245C27.2786 98.043 29.3138 96.2073 29.4763 96.0404C30.5172 97.2049 31.6344 98.2992 32.8205 99.3161C33.5133 99.9121 34.2299 100.494 34.9561 101.061L34.206 100.642C32.8253 100.05 29.8107 99.7166 28.7023 100.985C28.5248 101.2 28.3946 101.45 28.3201 101.719C28.2456 101.987 28.2286 102.268 28.27 102.544C28.3114 102.82 28.4105 103.084 28.5607 103.318C28.7109 103.553 28.9089 103.754 29.1419 103.908C30.0974 104.594 31.5688 104.456 32.639 104.118C33.7091 103.779 35.5055 102.249 35.9546 101.834L36.7954 102.487C38.1474 103.517 39.4995 104.542 40.7942 105.586C41.248 105.953 41.6828 106.335 42.1223 106.712C41.7927 106.526 41.5156 106.368 41.4678 106.349C40.0919 105.758 37.0725 105.424 35.9689 106.688C35.7913 106.903 35.661 107.154 35.5865 107.423C35.512 107.691 35.4949 107.973 35.5363 108.249C35.5777 108.525 35.6768 108.789 35.827 109.025C35.9772 109.26 36.1753 109.461 36.4084 109.615C37.3639 110.297 38.8354 110.164 39.9056 109.825C40.9757 109.487 42.5857 108.099 43.1351 107.613C43.5747 108.013 44.0094 108.414 44.4155 108.824C44.6878 109.105 44.9649 109.363 45.2229 109.663L45.9921 110.531C46.4698 111.103 46.9476 111.689 47.3919 112.257C47.7024 112.648 47.9939 113.029 48.2853 113.411C47.8362 113.039 46.938 112.328 46.852 112.281C45.5765 111.484 42.6478 110.698 41.3627 111.804C41.1544 111.99 40.9877 112.218 40.8736 112.472C40.7596 112.727 40.7006 113.003 40.7006 113.282C40.7006 113.561 40.7596 113.837 40.8736 114.092C40.9877 114.346 41.1544 114.574 41.3627 114.76C42.2179 115.585 43.6798 115.671 44.7882 115.499C46.0064 115.308 48.2184 113.868 48.4907 113.687C48.9685 114.321 49.4462 114.941 49.8619 115.537C51.3524 117.588 52.5134 119.352 53.3064 120.596L53.3877 120.725L54.4148 120.224L54.2524 119.981C53.4211 118.741 52.2124 116.982 50.6645 114.946C50.1867 114.298 49.6469 113.621 49.0927 112.929C49.6615 112.302 50.1942 111.643 50.6884 110.955C51.8684 111.432 54.3336 111.432 54.6489 111.432C54.7015 112.228 54.7445 113.001 54.7731 113.73C54.8782 116.257 54.8735 118.37 54.8448 119.848V120.019L55.9723 119.471C55.9723 118.002 55.9197 116.024 55.7669 113.678C55.7191 112.872 55.6522 112.009 55.571 111.127C55.8863 111.05 58.4375 110.392 59.393 109.625C60.2673 108.924 61.1893 107.789 61.1607 106.607C61.1627 106.327 61.1059 106.051 60.9938 105.795C60.8816 105.539 60.7168 105.31 60.5099 105.122C60.303 104.934 60.0588 104.791 59.7931 104.704C59.5274 104.616 59.2462 104.585 58.9678 104.614C57.3004 104.828 55.9006 107.513 55.6235 108.991C55.6235 109.076 55.5375 110.04 55.4993 110.645C55.4659 110.288 55.4372 109.935 55.399 109.563C55.3225 108.833 55.227 108.099 55.1267 107.317L54.9403 106.168C54.8878 105.786 54.7827 105.391 54.7015 104.995C54.5008 104.079 54.2524 103.169 53.9801 102.249C54.6203 102.187 56.9039 101.915 57.8833 101.357C58.8627 100.799 59.9376 99.8168 60.0857 98.639C60.1304 98.3636 60.1164 98.0819 60.0446 97.8123C59.9727 97.5426 59.8447 97.2911 59.6689 97.0742C59.493 96.8573 59.2733 96.6799 59.0241 96.5535C58.7748 96.4271 58.5017 96.3547 58.2225 96.3408C56.5408 96.2979 54.7492 98.7249 54.2572 100.155C54.2237 100.241 53.9848 101.3 53.8606 101.881C53.6934 101.333 53.531 100.785 53.3447 100.232C52.8 98.6438 52.2028 97.056 51.6104 95.4635L51.0801 94.0044C51.3094 93.9806 54.0326 93.7231 55.1267 93.0937C56.0822 92.5358 57.181 91.5536 57.3291 90.3806C57.3738 90.105 57.3597 89.823 57.288 89.5531C57.2162 89.2832 57.0882 89.0314 56.9124 88.8142C56.7367 88.5969 56.517 88.419 56.2678 88.2921C56.0185 88.1652 55.7453 88.0921 55.4659 88.0776C53.7842 88.0395 51.9926 90.4617 51.5005 91.8921C51.4623 92.0018 51.1183 93.5181 51.0467 93.9091C50.6597 92.8362 50.2823 91.7634 49.9574 90.6906C49.504 89.2455 49.1465 87.7721 48.8873 86.2801C48.9924 86.2801 51.835 86.013 52.9577 85.3693C53.9132 84.8115 55.012 83.8292 55.1601 82.6515C55.204 82.3762 55.1895 82.0947 55.1173 81.8254C55.0452 81.5561 54.9171 81.3049 54.7414 81.0882C54.5657 80.8715 54.3463 80.694 54.0975 80.5674C53.8486 80.4408 53.5758 80.3678 53.2969 80.3533C51.6152 80.3103 49.8236 82.7373 49.3316 84.1678C49.2981 84.2631 49.0354 85.417 48.9207 85.9701H48.8252C48.6059 84.4611 48.5212 82.9357 48.5719 81.4118C48.5719 80.5726 48.6532 79.7716 48.7296 78.9943C49.2647 78.9943 51.706 78.9943 52.7761 78.5175C53.8463 78.0407 54.9929 77.2158 55.27 76.0619C55.3448 75.793 55.3619 75.5112 55.3201 75.2352C55.2783 74.9592 55.1786 74.6951 55.0276 74.4602C54.8765 74.2253 54.6774 74.0248 54.4434 73.8719C54.2094 73.719 53.9457 73.6172 53.6695 73.573C52.0022 73.3441 49.9526 75.5804 49.3077 76.9107C49.2695 76.987 48.9971 77.7737 48.8013 78.3411C48.8443 77.9883 48.8825 77.6259 48.9255 77.2921C49.0975 76.0333 49.3316 74.9081 49.5466 73.8829C49.6755 73.3107 49.7998 72.7958 49.924 72.3142C50.4495 72.0472 52.5611 70.9457 53.2682 70.0493C53.9753 69.1529 54.6298 67.8751 54.3432 66.7116C54.1867 66.2361 53.8563 65.837 53.4179 65.594C52.9796 65.3509 52.4655 65.2818 51.9783 65.4004Z" fill="#019934"/>
<path d="M21.5647 91.2818C22.8785 91.2294 25.5061 89.8848 25.5109 89.8848C25.5157 89.8848 24.0777 88.4257 23.9917 88.3447C22.8164 87.391 19.9977 86.2944 18.5979 87.2194C18.3688 87.3797 18.1763 87.5864 18.0328 87.826C17.8893 88.0657 17.7981 88.3329 17.7652 88.6101C17.7322 88.8874 17.7583 89.1684 17.8417 89.4349C17.9251 89.7014 18.0639 89.9473 18.2491 90.1566C19.004 91.0768 20.442 91.3438 21.5647 91.2818Z" fill="#019934"/>
<g opacity="0.5">
<path d="M48.7248 78.8514C48.7535 78.8514 48.3522 76.8535 48.3092 76.7343C47.8314 75.3039 46.1115 72.8197 44.4298 72.8245C44.1505 72.8332 43.8762 72.9005 43.6246 73.0219C43.3731 73.1434 43.1499 73.3163 42.9697 73.5295C42.7895 73.7426 42.6562 73.9912 42.5785 74.2592C42.5008 74.5271 42.4805 74.8083 42.5188 75.0846C42.643 76.2623 43.7037 77.2684 44.6639 77.8453C45.7819 78.5272 48.7248 78.8514 48.7248 78.8514Z" fill="white"/>
<path d="M51.9782 65.4004C50.3921 65.9678 49.5895 68.8954 49.6564 70.3926C49.6564 70.5214 49.9574 72.5383 49.986 72.524H50.0195C49.8905 73.0008 49.7615 73.4776 49.6277 74.0259C49.3888 75.032 49.15 76.1716 48.9302 77.4304C48.7033 78.7861 48.5534 80.1536 48.4811 81.5262C48.3972 83.0616 48.45 84.6014 48.6388 86.1275C48.6411 86.1465 48.6411 86.1657 48.6388 86.1847C48.4333 85.7365 47.8123 84.5111 47.7502 84.4205C46.9284 83.1665 44.597 81.2258 42.9727 81.674C42.7057 81.7565 42.4591 81.894 42.2487 82.0775C42.0384 82.2611 41.869 82.4867 41.7514 82.7397C41.6339 82.9927 41.5709 83.2675 41.5665 83.5464C41.562 83.8252 41.6163 84.1019 41.7257 84.3585C42.1557 85.4599 43.4456 86.1513 44.5253 86.4565C45.7436 86.8045 48.4572 86.3945 48.6722 86.3611C48.9017 87.9107 49.2353 89.4431 49.6707 90.9481C49.9191 91.8254 50.1962 92.7027 50.4877 93.5801C50.2966 93.1986 50.1198 92.8601 50.0911 92.8172C49.2646 91.5631 46.938 89.6225 45.3136 90.0707C45.0464 90.152 44.7994 90.2886 44.5886 90.4715C44.3779 90.6545 44.2081 90.8798 44.0905 91.1326C43.9728 91.3855 43.9099 91.6602 43.9058 91.939C43.9017 92.2177 43.9565 92.4942 44.0667 92.7504C44.4967 93.8566 45.7866 94.548 46.8663 94.8531C47.946 95.1583 50.2774 94.8532 50.8937 94.7721C51.0084 95.1059 51.1183 95.4444 51.2329 95.7782C51.7871 97.3803 52.3509 98.9823 52.8525 100.546C53.0293 101.104 53.1822 101.662 53.3303 102.215C53.1583 101.877 53.015 101.595 52.9863 101.557C52.1646 100.303 49.8331 98.3625 48.2088 98.8107C47.9416 98.892 47.6946 99.0286 47.4838 99.2115C47.2731 99.3945 47.1033 99.6198 46.9857 99.8726C46.868 100.125 46.8051 100.4 46.801 100.679C46.7969 100.958 46.8517 101.234 46.9619 101.49C47.3918 102.597 48.6818 103.288 49.7615 103.593C50.8412 103.898 52.9481 103.631 53.679 103.526C53.8223 104.103 53.9657 104.676 54.0756 105.238C54.1472 105.624 54.238 105.992 54.2858 106.387C54.3335 106.783 54.3909 107.155 54.4482 107.532C54.5246 108.266 54.6059 109.024 54.6632 109.744C54.7062 110.221 54.7349 110.698 54.7683 111.174C54.6011 110.617 54.2428 109.529 54.2046 109.444C53.6097 108.265 52.7234 107.257 51.6295 106.516C51.5685 106.382 51.4949 106.254 51.4097 106.135C51.2584 105.9 51.0593 105.699 50.8253 105.546C50.5914 105.393 50.3278 105.291 50.0517 105.246C49.7756 105.201 49.4931 105.214 49.2226 105.285C48.952 105.356 48.6994 105.483 48.4811 105.658C47.2103 106.759 47.5256 109.768 48.1132 111.151C48.1467 111.232 48.6244 112.071 48.9302 112.581C48.7009 112.3 48.4859 112.023 48.247 111.732C47.7693 111.165 47.2915 110.607 46.7755 110.006L45.9873 109.153C45.7293 108.862 45.4235 108.59 45.1369 108.304C44.468 107.656 43.7514 107.031 43.0204 106.397C43.4982 105.987 45.2754 104.49 45.7818 103.503C46.2882 102.516 46.6418 101.085 46.1162 100.022C46.0013 99.7676 45.834 99.5403 45.6251 99.355C45.4163 99.1697 45.1706 99.0304 44.9041 98.9463C44.6377 98.8621 44.3565 98.835 44.0788 98.8667C43.8011 98.8984 43.5333 98.9882 43.2927 99.1302C41.8595 100.022 41.7257 103.045 42.0936 104.499C42.1175 104.59 42.4997 105.601 42.7194 106.154C42.2751 105.791 41.8356 105.424 41.377 105.066C40.044 104.041 38.6681 103.045 37.297 102.043C36.8766 101.738 36.4609 101.424 36.0453 101.118C36.2268 100.971 38.3528 99.2589 38.9118 98.1336C39.4134 97.1323 39.7765 95.7162 39.251 94.6529C39.1361 94.3986 38.9687 94.1714 38.7599 93.9861C38.551 93.8008 38.3053 93.6615 38.0389 93.5773C37.7724 93.4932 37.4912 93.4661 37.2135 93.4978C36.9359 93.5295 36.668 93.6192 36.4275 93.7613C34.9942 94.6529 34.8557 97.6759 35.2283 99.1302C35.2283 99.2398 35.8064 100.699 35.9641 101.061C35.0468 100.379 34.1438 99.6928 33.2743 98.9776C32.0947 98.02 30.9776 96.9879 29.9301 95.8878C30.0161 95.8211 32.2424 94.0426 32.7966 92.8887C33.2982 91.8874 33.6613 90.4712 33.1358 89.4079C33.0209 89.1537 32.8535 88.9265 32.6447 88.7412C32.4358 88.5558 32.1901 88.4165 31.9237 88.3324C31.6572 88.2483 31.376 88.2211 31.0983 88.2528C30.8207 88.2845 30.5528 88.3743 30.3123 88.5163C28.879 89.4079 28.7405 92.4309 29.1131 93.8852C29.1131 93.9806 29.5574 95.0916 29.7676 95.6161L29.6864 95.6637C28.6672 94.5275 27.7526 93.3019 26.9537 92.0018C26.5046 91.2961 26.1176 90.5714 25.7545 89.8991C26.1988 89.6082 28.2388 88.2684 28.8742 87.2861C29.5097 86.3039 29.997 84.9784 29.5909 83.8674C29.5046 83.6019 29.3634 83.3576 29.1763 83.1502C28.9892 82.9428 28.7604 82.7771 28.5049 82.6637C28.2494 82.5504 27.9729 82.492 27.6933 82.4924C27.4136 82.4927 27.1372 82.5518 26.882 82.6658C25.3676 83.4001 24.8946 86.3897 25.1 87.8726C25.1 87.9537 25.315 88.7642 25.4727 89.3507C25.315 89.036 25.1478 88.7118 24.9949 88.3971C24.4407 87.2528 24.006 86.1751 23.6238 85.212C23.4136 84.6637 23.2368 84.1678 23.0744 83.6957C23.3658 83.1855 24.5076 81.1019 24.6223 79.9623C24.7369 78.8227 24.5602 77.397 23.6668 76.596C23.4676 76.4004 23.2294 76.2489 22.9677 76.1512C22.706 76.0535 22.4266 76.0118 22.1477 76.0289C21.8688 76.046 21.5966 76.1215 21.3488 76.2504C21.1011 76.3793 20.8832 76.5588 20.7095 76.7772C19.7062 78.1218 20.6665 80.997 21.536 82.2176C21.6077 82.3225 22.9693 83.8435 22.9693 83.8149V83.7815C23.1174 84.2584 23.2798 84.7352 23.447 85.2501C23.8053 86.2038 24.221 87.3147 24.7513 88.4734C25.3075 89.7301 25.9376 90.9529 26.6384 92.1353C27.4187 93.4632 28.3139 94.7204 29.3138 95.8926L29.352 95.9307C28.9316 95.6733 27.7372 94.9771 27.6369 94.9485C26.2562 94.3573 23.2416 94.0235 22.1332 95.287C21.9558 95.5029 21.8258 95.7535 21.7517 96.0227C21.6775 96.2918 21.6609 96.5735 21.7028 96.8495C21.7446 97.1255 21.8441 97.3897 21.9948 97.6248C22.1455 97.86 22.344 98.061 22.5775 98.2147C23.533 98.8965 25.0045 98.763 26.0699 98.4245C27.2786 98.043 29.3138 96.2073 29.4762 96.0404C30.5172 97.2049 31.6344 98.2992 32.8205 99.3161C33.5132 99.9121 34.2298 100.494 34.956 101.061L34.2059 100.642C32.8252 100.05 29.8106 99.7166 28.7023 100.985C28.5247 101.2 28.3945 101.45 28.32 101.719C28.2456 101.987 28.2285 102.268 28.2699 102.544C28.3114 102.82 28.4104 103.084 28.5606 103.318C28.7108 103.553 28.9088 103.754 29.1418 103.908C30.0973 104.594 31.5688 104.456 32.6389 104.118C33.7091 103.779 35.5054 102.249 35.9545 101.834L36.7953 102.487C38.1474 103.517 39.4994 104.542 40.7941 105.586C41.248 105.953 41.6827 106.335 42.1223 106.712C41.7926 106.526 41.5155 106.368 41.4677 106.349C40.0918 105.758 37.0724 105.424 35.9688 106.688C35.7912 106.903 35.6609 107.154 35.5864 107.423C35.5119 107.691 35.4948 107.973 35.5362 108.249C35.5777 108.525 35.6767 108.789 35.8269 109.025C35.9772 109.26 36.1753 109.461 36.4084 109.615C37.3639 110.297 38.8353 110.164 39.9055 109.825C40.9757 109.487 42.5857 108.099 43.1351 107.613C43.5746 108.013 44.0094 108.414 44.4155 108.824C44.6878 109.105 44.9649 109.363 45.2229 109.663L45.992 110.531C46.4698 111.103 46.9475 111.689 47.3918 112.257C47.7024 112.648 47.9938 113.029 48.2852 113.411C47.8361 113.039 46.938 112.328 46.852 112.281C45.5764 111.484 42.6478 110.698 41.3626 111.804C41.1543 111.99 40.9877 112.218 40.8736 112.472C40.7595 112.727 40.7005 113.003 40.7005 113.282C40.7005 113.561 40.7595 113.837 40.8736 114.092C40.9877 114.346 41.1543 114.574 41.3626 114.76C42.2178 115.585 43.6797 115.671 44.7881 115.499C46.0064 115.308 48.2183 113.868 48.4907 113.687C48.9684 114.321 49.4462 114.941 49.8618 115.537C51.3524 117.588 52.5133 119.352 53.3064 120.596L53.3876 120.725L54.4148 120.224L54.2523 119.981C53.421 118.741 52.2123 116.982 50.6644 114.946C50.1867 114.298 49.6468 113.621 49.0926 112.929C49.6614 112.302 50.1941 111.643 50.6883 110.955C51.8684 111.432 54.3335 111.432 54.6489 111.432C54.7014 112.228 54.7444 113.001 54.7731 113.73C54.8782 116.257 54.8734 118.37 54.8447 119.848V120.019L55.9722 119.471C55.9722 118.002 55.9197 116.024 55.7668 113.678C55.719 112.872 55.6521 112.009 55.5709 111.127C55.8862 111.05 58.4374 110.392 59.3929 109.625C60.2672 108.924 61.1893 107.789 61.1606 106.607C61.1627 106.327 61.1058 106.051 60.9937 105.795C60.8816 105.539 60.7167 105.31 60.5098 105.122C60.3029 104.934 60.0587 104.791 59.793 104.704C59.5273 104.616 59.2461 104.585 58.9677 104.614C57.3004 104.828 55.9006 107.513 55.6235 108.991C55.6235 109.076 55.5375 110.04 55.4992 110.645C55.4658 110.288 55.4371 109.935 55.3989 109.563C55.3225 108.833 55.2269 108.099 55.1266 107.317L54.9403 106.168C54.8877 105.786 54.7826 105.391 54.7014 104.995C54.5008 104.079 54.2523 103.169 53.98 102.249C54.6202 102.187 56.9038 101.915 57.8832 101.357C58.8626 100.799 59.9375 99.8168 60.0857 98.639C60.1304 98.3636 60.1163 98.0819 60.0445 97.8123C59.9727 97.5426 59.8447 97.2911 59.6688 97.0742C59.493 96.8573 59.2732 96.6799 59.024 96.5535C58.7748 96.4271 58.5016 96.3547 58.2224 96.3408C56.5408 96.2979 54.7492 98.7249 54.2571 100.155C54.2237 100.241 53.9848 101.3 53.8606 101.881C53.6934 101.333 53.5309 100.785 53.3446 100.232C52.8 98.6438 52.2028 97.056 51.6104 95.4635L51.0801 94.0044C51.3094 93.9806 54.0326 93.7231 55.1266 93.0937C56.0821 92.5358 57.1809 91.5536 57.329 90.3806C57.3737 90.105 57.3597 89.823 57.2879 89.5531C57.2161 89.2832 57.0882 89.0314 56.9124 88.8142C56.7366 88.5969 56.5169 88.419 56.2677 88.2921C56.0185 88.1652 55.7452 88.0921 55.4658 88.0776C53.7841 88.0395 51.9926 90.4617 51.5005 91.8921C51.4623 92.0018 51.1183 93.5181 51.0466 93.9091C50.6596 92.8362 50.2822 91.7634 49.9574 90.6906C49.5039 89.2455 49.1464 87.7721 48.8872 86.2801C48.9923 86.2801 51.8349 86.013 52.9576 85.3693C53.9131 84.8115 55.0119 83.8292 55.1601 82.6515C55.204 82.3762 55.1894 82.0947 55.1173 81.8254C55.0451 81.5561 54.9171 81.3049 54.7414 81.0882C54.5657 80.8715 54.3463 80.694 54.0974 80.5674C53.8485 80.4408 53.5758 80.3678 53.2968 80.3533C51.6152 80.3103 49.8236 82.7373 49.3315 84.1678C49.2981 84.2631 49.0353 85.417 48.9206 85.9701H48.8251C48.6058 84.4611 48.5211 82.9357 48.5719 81.4118C48.5719 80.5726 48.6531 79.7716 48.7295 78.9943C49.2646 78.9943 51.7059 78.9943 52.7761 78.5175C53.8462 78.0407 54.9928 77.2158 55.2699 76.0619C55.3447 75.793 55.3618 75.5112 55.32 75.2352C55.2782 74.9592 55.1786 74.6951 55.0275 74.4602C54.8764 74.2253 54.6774 74.0248 54.4434 73.8719C54.2094 73.719 53.9456 73.6172 53.6695 73.573C52.0021 73.3441 49.9526 75.5804 49.3076 76.9107C49.2694 76.987 48.9971 77.7737 48.8012 78.3411C48.8442 77.9883 48.8824 77.6259 48.9254 77.2921C49.0974 76.0333 49.3315 74.9081 49.5465 73.8829C49.6755 73.3107 49.7997 72.7958 49.9239 72.3142C50.4494 72.0472 52.5611 70.9457 53.2682 70.0493C53.9752 69.1529 54.6297 67.8751 54.3431 66.7116C54.1866 66.2361 53.8562 65.837 53.4179 65.594C52.9795 65.3509 52.4654 65.2818 51.9782 65.4004Z" fill="white"/>
<path d="M21.5647 91.2818C22.8785 91.2294 25.5061 89.8848 25.5109 89.8848C25.5157 89.8848 24.0777 88.4257 23.9917 88.3447C22.8164 87.391 19.9977 86.2944 18.5979 87.2194C18.3688 87.3797 18.1763 87.5864 18.0328 87.826C17.8893 88.0657 17.7981 88.3329 17.7652 88.6101C17.7322 88.8874 17.7583 89.1684 17.8417 89.4349C17.9251 89.7014 18.0639 89.9473 18.2491 90.1566C19.004 91.0768 20.442 91.3438 21.5647 91.2818Z" fill="white"/>
</g>
<path d="M37.6219 127.291C37.6219 127.291 45.6003 108.099 50.0673 108.933C54.5342 109.768 42.4233 139.531 42.4233 139.531C42.4233 139.531 56.4596 113.106 66.0337 113.106C75.6078 113.106 62.5222 142.31 50.4017 152.047C50.4017 152.047 69.5404 131.463 80.7054 135.916C91.8704 140.37 58.3753 161.226 58.3753 161.226C58.3753 161.226 77.8341 155.108 75.603 159.838C73.3719 164.568 67.3093 165.398 67.3093 165.398L89.3192 166.513H12.7407L29.9683 164.845C29.9683 164.845 12.1005 155.942 16.8875 152.328C21.6746 148.714 32.1994 156.5 32.1994 156.5C32.1994 156.5 14.0163 136.474 17.5229 128.96C21.0296 121.445 36.6664 142.592 36.6664 142.592C36.6664 142.592 23.9057 115.609 26.4569 110.893C29.008 106.177 37.6219 127.291 37.6219 127.291Z" fill="#019934"/>
<path opacity="0.5" d="M37.6219 127.291C37.6219 127.291 45.6003 108.099 50.0673 108.933C54.5342 109.768 42.4233 139.531 42.4233 139.531C42.4233 139.531 56.4596 113.106 66.0337 113.106C75.6078 113.106 62.5222 142.31 50.4017 152.047C50.4017 152.047 69.5404 131.463 80.7054 135.916C91.8704 140.37 58.3753 161.226 58.3753 161.226C58.3753 161.226 77.8341 155.108 75.603 159.838C73.3719 164.568 67.3093 165.398 67.3093 165.398L89.3192 166.513H12.7407L29.9683 164.845C29.9683 164.845 12.1005 155.942 16.8875 152.328C21.6746 148.714 32.1994 156.5 32.1994 156.5C32.1994 156.5 14.0163 136.474 17.5229 128.96C21.0296 121.445 36.6664 142.592 36.6664 142.592C36.6664 142.592 23.9057 115.609 26.4569 110.893C29.008 106.177 37.6219 127.291 37.6219 127.291Z" fill="white"/>
<path d="M35.0707 128.302C42.0888 149 42.0888 163.648 42.0888 163.648C42.0888 163.648 33.7951 163.962 25.1813 157.597" stroke="#263238" stroke-linecap="round" stroke-linejoin="round"/>
<path d="M38.5822 139.449C40.0249 133.261 41.9415 127.193 44.3152 121.297" stroke="#263238" stroke-linecap="round" stroke-linejoin="round"/>
<path d="M59.3165 127.348L41.4534 153.778C41.4534 153.778 29.3281 143.588 25.1813 137.857" stroke="#263238" stroke-linecap="round" stroke-linejoin="round"/>
<path d="M41.7735 160.143C41.7735 160.143 60.5921 151.227 68.2504 146.135" stroke="#263238" stroke-linecap="round" stroke-linejoin="round"/>
<path d="M140.544 127.291C140.544 127.291 132.57 108.099 128.122 108.933C123.674 109.768 135.766 139.531 135.766 139.531C135.766 139.531 121.73 113.106 112.16 113.106C102.591 113.106 115.667 142.31 127.792 152.047C127.792 152.047 108.649 131.463 97.4839 135.916C86.3189 140.37 119.819 161.226 119.819 161.226C119.819 161.226 100.355 155.108 102.591 159.838C104.827 164.568 110.885 165.398 110.885 165.398L88.8558 166.513H165.43L148.202 164.845C148.202 164.845 166.065 155.942 161.283 152.328C156.5 148.714 145.966 156.5 145.966 156.5C145.966 156.5 164.154 136.474 160.642 128.96C157.131 121.445 141.499 142.592 141.499 142.592C141.499 142.592 154.265 115.609 151.709 110.879C149.153 106.149 140.544 127.291 140.544 127.291Z" fill="#019934"/>
<path opacity="0.5" d="M140.544 127.291C140.544 127.291 132.57 108.099 128.122 108.933C123.674 109.768 135.766 139.531 135.766 139.531C135.766 139.531 121.73 113.106 112.16 113.106C102.591 113.106 115.667 142.31 127.792 152.047C127.792 152.047 108.649 131.463 97.4839 135.916C86.3189 140.37 119.819 161.226 119.819 161.226C119.819 161.226 100.355 155.108 102.591 159.838C104.827 164.568 110.885 165.398 110.885 165.398L88.8558 166.513H165.43L148.202 164.845C148.202 164.845 166.065 155.942 161.283 152.328C156.5 148.714 145.966 156.5 145.966 156.5C145.966 156.5 164.154 136.474 160.642 128.96C157.131 121.445 141.499 142.592 141.499 142.592C141.499 142.592 154.265 115.609 151.709 110.879C149.153 106.149 140.544 127.291 140.544 127.291Z" fill="white"/>
<path d="M143.095 128.302C136.077 149 136.077 163.648 136.077 163.648C136.077 163.648 144.37 163.962 152.984 157.597" stroke="#263238" stroke-linecap="round" stroke-linejoin="round"/>
<path d="M139.588 139.449C138.145 133.261 136.229 127.193 133.855 121.297" stroke="#263238" stroke-linecap="round" stroke-linejoin="round"/>
<path d="M118.849 127.348L136.717 153.778C136.717 153.778 148.837 143.588 152.984 137.857" stroke="#263238" stroke-linecap="round" stroke-linejoin="round"/>
<path d="M136.397 160.143C136.397 160.143 117.573 151.227 109.915 146.135" stroke="#263238" stroke-linecap="round" stroke-linejoin="round"/>
<path d="M127.663 23.8748H53.8988C52.1178 23.8748 50.674 25.3157 50.674 27.0932V164.935C50.674 166.713 52.1178 168.154 53.8988 168.154H127.663C129.444 168.154 130.888 166.713 130.888 164.935V27.0932C130.888 25.3157 129.444 23.8748 127.663 23.8748Z" fill="#263238" stroke="#263238" stroke-miterlimit="10"/>
<path d="M96.3278 32.4955H86.3428C86.208 32.4955 86.0744 32.469 85.9498 32.4175C85.8251 32.3659 85.7119 32.2904 85.6165 32.1952C85.5211 32.1 85.4455 31.987 85.3939 31.8626C85.3422 31.7383 85.3157 31.605 85.3157 31.4703C85.3157 31.3359 85.3423 31.2029 85.394 31.0788C85.4456 30.9546 85.5214 30.8419 85.6168 30.7471C85.7123 30.6523 85.8255 30.5773 85.9501 30.5263C86.0747 30.4753 86.2082 30.4493 86.3428 30.45H96.3278C96.599 30.45 96.859 30.5575 97.0507 30.7488C97.2425 30.9402 97.3502 31.1997 97.3502 31.4703C97.3508 31.6047 97.3249 31.7379 97.2738 31.8623C97.2227 31.9866 97.1474 32.0997 97.0524 32.1949C96.9574 32.2902 96.8445 32.3658 96.7202 32.4174C96.5958 32.4689 96.4625 32.4955 96.3278 32.4955Z" fill="#019934"/>
<path d="M125.819 155.261H55.7429V32.6147H72.3543L74.2223 34.1596C74.8734 34.7029 75.6954 35 76.5442 34.9988H105.849C106.729 34.994 107.577 34.6723 108.238 34.0929L109.925 32.6147H125.805L125.819 155.261Z" fill="white" stroke="#263238" stroke-width="0.938618" stroke-linecap="round" stroke-linejoin="round"/>
<path d="M83.7295 41.6551L82.774 38.4509H58.9247V41.6551V148.747V151.956H122.852V41.6551H83.7295Z" fill="#019934"/>
<path d="M120.602 47.4294H61.1702V148.428H120.602V47.4294Z" fill="white"/>
<path d="M93.0217 159.051C93.0227 158.736 92.9299 158.428 92.7551 158.165C92.5804 157.903 92.3315 157.698 92.04 157.577C91.7485 157.455 91.4275 157.423 91.1177 157.484C90.8078 157.545 90.5231 157.696 90.2994 157.919C90.0758 158.141 89.9234 158.425 89.8614 158.734C89.7994 159.043 89.8308 159.364 89.9514 159.655C90.072 159.946 90.2765 160.195 90.539 160.37C90.8016 160.546 91.1103 160.639 91.4261 160.639C91.8481 160.638 92.2525 160.47 92.5513 160.173C92.8501 159.876 93.0192 159.473 93.0217 159.051Z" fill="#019934"/>
<path d="M86.4241 144.017C97.2315 144.017 105.993 131.576 105.993 116.229C105.993 100.881 97.2315 88.4399 86.4241 88.4399C75.6166 88.4399 66.8554 100.881 66.8554 116.229C66.8554 131.576 75.6166 144.017 86.4241 144.017Z" fill="#019934"/>
<path opacity="0.5" d="M86.4241 144.017C97.2315 144.017 105.993 131.576 105.993 116.229C105.993 100.881 97.2315 88.4399 86.4241 88.4399C75.6166 88.4399 66.8554 100.881 66.8554 116.229C66.8554 131.576 75.6166 144.017 86.4241 144.017Z" fill="white"/>
<path d="M89.1998 85.2119C89.1998 85.2119 87.9767 83.1711 86.854 83.071C85.7313 82.9708 72.3639 91.3437 70.3191 95.7018C68.2743 100.06 66.3394 108.805 71.7523 117.22C77.0315 125.407 85.3061 125.135 89.5963 124.725C93.8865 124.315 96.7626 122.923 101.11 119.442C105.458 115.962 109.447 110.836 110.025 107.355C110.603 103.874 108.477 101.938 107.12 101.457C105.763 100.975 97.9139 101.071 92.1953 95.2583C86.4766 89.446 89.1998 85.2119 89.1998 85.2119Z" fill="#263238" stroke="#263238" stroke-linecap="round" stroke-linejoin="round"/>
<path d="M90.934 82.5608C90.934 82.5608 87.4656 83.8863 85.3205 86.2275C83.1754 88.5686 81.852 92.2401 81.7517 97.6376C81.6513 103.035 83.3856 109.143 90.1171 111.794C96.8486 114.445 102.873 112.405 104.813 110.569C106.752 108.733 109.112 103.545 109.112 103.545C109.112 103.545 98.4013 106.406 93.2989 100.384C88.1965 94.3619 90.934 82.5608 90.934 82.5608Z" fill="white" stroke="#263238" stroke-linecap="round" stroke-linejoin="round"/>
<path d="M150.882 86.3228C148.264 82.4034 142.015 81.2448 137.075 79.6475C132.135 78.0501 129.226 74.8793 130.535 67.031C131.844 59.1826 138.656 46.4326 138.527 44.1106C138.398 41.7885 114.984 41.9363 112.801 42.6801C110.617 43.424 110.187 43.2571 108.152 45.87C107.024 47.2811 106.004 48.7745 105.099 50.3377L107.622 45.0451H107.808C108.082 44.3495 108.471 43.7048 108.96 43.1379C111.179 40.5677 112.437 37.3086 112.519 33.9163C112.614 28.9241 109.055 29.4056 108.381 30.941C107.708 32.4763 103.766 37.7594 102.61 39.1994C101.454 40.6394 99.051 44.5778 99.051 44.5778L96.3804 53.8185C96.3804 53.8185 95.7975 56.5745 92.4533 67.0214C89.109 77.4684 90.5661 82.2842 90.5661 82.2842C90.5661 82.2842 89.6919 81.8503 87.6566 88.0871C85.6214 94.3238 86.4957 102.301 90.1266 106.072C93.7575 109.844 98.5589 109.701 103.938 107.527C107.248 106.112 110.004 103.657 111.788 100.537C111.788 100.537 117.459 99.1062 121.672 95.8972C125.886 92.6883 129.082 89.3697 135.198 89.6605C141.313 89.9514 148.278 93.4321 150.605 93.2843C152.932 93.1365 153.5 90.2375 150.882 86.3228Z" fill="white"/>
<path d="M113.393 72.7479C97.2212 75.1558 92.1379 79.0085 93.7527 84.3107C94.0878 85.3621 94.6322 86.3351 95.3532 87.1715C95.3532 87.2717 95.3532 87.3813 95.3818 87.4958C95.3818 87.4958 95.6685 87.6674 96.0985 87.9726C96.6646 88.5184 97.2768 89.0145 97.9283 89.4555C98.9889 90.4616 99.9396 91.7203 99.7437 92.8885C99.3281 95.3775 93.533 99.726 90.6043 99.9358C87.6757 100.146 86.6581 97.2418 86.2425 100.351C85.8268 103.459 92.2669 111.127 98.4968 110.297C104.727 109.467 109.92 100.761 109.92 100.761C109.92 100.761 109.088 99.3303 113.264 94.9579C116.006 92.097 119.929 90.8335 122.934 89.6605C125.771 88.8277 128.536 87.769 131.204 86.4945C138.594 82.8802 147.375 85.2929 147.375 85.2929C147.375 85.2929 129.565 70.3114 113.393 72.7479Z" fill="#019934"/>
<path opacity="0.5" d="M113.393 72.7479C97.2212 75.1558 92.1379 79.0085 93.7527 84.3107C94.0878 85.3621 94.6322 86.3351 95.3532 87.1715C95.3532 87.2717 95.3532 87.3813 95.3818 87.4958C95.3818 87.4958 95.6685 87.6674 96.0985 87.9726C96.6646 88.5184 97.2768 89.0145 97.9283 89.4555C98.9889 90.4616 99.9396 91.7203 99.7437 92.8885C99.3281 95.3775 93.533 99.726 90.6043 99.9358C87.6757 100.146 86.6581 97.2418 86.2425 100.351C85.8268 103.459 92.2669 111.127 98.4968 110.297C104.727 109.467 109.92 100.761 109.92 100.761C109.92 100.761 109.088 99.3303 113.264 94.9579C116.006 92.097 119.929 90.8335 122.934 89.6605C125.771 88.8277 128.536 87.769 131.204 86.4945C138.594 82.8802 147.375 85.2929 147.375 85.2929C147.375 85.2929 129.565 70.3114 113.393 72.7479Z" fill="white"/>
<path d="M150.882 86.3228C148.264 82.4034 142.015 81.2448 137.075 79.6475C132.135 78.0501 129.226 74.8793 130.535 67.031C131.844 59.1826 138.656 46.4326 138.527 44.1106C138.398 41.7885 114.984 41.9363 112.801 42.6801C110.617 43.424 110.187 43.2571 108.152 45.87C107.024 47.2811 106.004 48.7745 105.099 50.3377L107.622 45.0451H107.808C108.082 44.3495 108.471 43.7048 108.96 43.1379C111.179 40.5677 112.437 37.3086 112.519 33.9163C112.614 28.9241 109.055 29.4056 108.381 30.941C107.708 32.4763 103.766 37.7594 102.61 39.1994C101.454 40.6394 99.051 44.5778 99.051 44.5778L96.3804 53.8185C96.3804 53.8185 95.7975 56.5745 92.4533 67.0214C89.109 77.4684 90.5661 82.2842 90.5661 82.2842C90.5661 82.2842 89.6919 81.8503 87.6566 88.0871C85.6214 94.3238 86.4957 102.301 90.1266 106.072C93.7575 109.844 98.5589 109.701 103.938 107.527C107.248 106.112 110.004 103.657 111.788 100.537C111.788 100.537 117.459 99.1062 121.672 95.8973C125.886 92.6883 129.082 89.3697 135.198 89.6605C141.313 89.9514 148.278 93.4321 150.605 93.2843C152.932 93.1365 153.5 90.2375 150.882 86.3228Z" stroke="#263238" stroke-linecap="round" stroke-linejoin="round"/>
<path d="M150.963 93.2509C150.963 93.2509 151.269 92.0303 147.801 90.39C144.332 88.7498 142.904 89.8798 142.904 90.6952C142.904 91.5105 150.428 93.2509 150.963 93.2509Z" fill="white" stroke="#263238" stroke-linecap="round" stroke-linejoin="round"/>
<path d="M118.099 37.3827L109.347 44.1058H121.085C121.085 44.1058 121.085 35.8474 118.099 37.3827Z" fill="white" stroke="#263238" stroke-linecap="round" stroke-linejoin="round"/>
<path d="M107.12 85.8747C108.363 84.4726 109.913 83.3746 111.649 82.6658" stroke="#263238" stroke-linecap="round" stroke-linejoin="round"/>
<path d="M105.529 88.4828C105.663 88.0953 105.838 87.7229 106.05 87.3718" stroke="#263238" stroke-linecap="round" stroke-linejoin="round"/>
<path d="M102.042 97.5422C101.574 97.1311 101.136 96.6865 100.733 96.2119" stroke="#263238" stroke-linecap="round" stroke-linejoin="round"/>
<path d="M111.788 100.537C109.089 100.843 106.361 100.285 104 98.9441" stroke="#263238" stroke-linecap="round" stroke-linejoin="round"/>
<path d="M144.514 43.5288H100.408C94.3165 43.5288 89.3813 48.235 89.3813 54.0187V74.7601C89.3813 79.8048 93.1126 84.0198 98.0907 85.0354L95.7641 91.9063L106.533 85.2881H144.514C150.6 85.2881 155.54 80.582 155.54 74.7982V54.0568C155.54 48.235 150.6 43.5288 144.514 43.5288Z" fill="#019934" stroke="#263238" stroke-width="2" stroke-miterlimit="10"/>
<path d="M96.5619 57.4946H146.143" stroke="#263238" stroke-width="2.06409" stroke-miterlimit="10" stroke-linecap="round"/>
<path d="M96.5619 62.5918H146.143" stroke="#263238" stroke-width="2.06409" stroke-miterlimit="10" stroke-linecap="round"/>
<path d="M96.5619 67.6843H146.143" stroke="#263238" stroke-width="2.06409" stroke-miterlimit="10" stroke-linecap="round"/>
<path d="M96.5619 72.7766H146.143" stroke="#263238" stroke-width="2.06409" stroke-miterlimit="10" stroke-linecap="round"/>
<path d="M155.139 61.7098C158.535 61.7098 161.288 59.0862 161.288 55.8498C161.288 52.6134 158.535 49.9897 155.139 49.9897C151.743 49.9897 148.99 52.6134 148.99 55.8498C148.99 59.0862 151.743 61.7098 155.139 61.7098Z" fill="#263238"/>
<path d="M154.661 59.9885C154.459 59.5856 154.368 59.1363 154.398 58.6868V53.9186L153.319 54.5194C153.202 54.5865 153.071 54.6226 152.936 54.6243C152.836 54.6254 152.736 54.6051 152.644 54.5648C152.552 54.5245 152.469 54.4652 152.401 54.3907C152.261 54.2449 152.183 54.0495 152.186 53.8471C152.183 53.7096 152.223 53.5745 152.301 53.4609C152.413 53.3278 152.545 53.2135 152.693 53.1224L154.785 52.0543C155.019 51.887 155.292 51.7835 155.578 51.7539C156.29 51.7539 156.644 52.2879 156.644 53.356V58.8537C156.644 59.8979 156.271 60.4176 155.521 60.4176C155.352 60.4325 155.182 60.4003 155.03 60.3245C154.878 60.2487 154.751 60.1324 154.661 59.9885Z" fill="white"/>
<path d="M131.547 40.4581C131.547 40.4581 131.743 44.2965 135.207 46.1227C138.671 47.9489 143.095 47.5531 143.19 45.2596C143.286 42.9662 140.591 40.5535 138.766 37.478C136.941 34.4026 132.895 36.1382 131.165 38.2505" fill="white"/>
<path d="M131.547 40.4581C131.547 40.4581 131.743 44.2965 135.207 46.1227C138.671 47.9489 143.095 47.5531 143.19 45.2596C143.286 42.9662 140.591 40.5535 138.766 37.478C136.941 34.4026 132.895 36.1382 131.165 38.2505" stroke="#263238" stroke-linecap="round" stroke-linejoin="round"/>
<path d="M137.515 43.5289C137.223 45.0642 138.284 45.913 139.244 46.3898C140.204 46.8666 142.111 46.5853 143.19 45.2407C143.238 44.1154 142.622 42.971 141.757 41.7361C140.553 41.8887 137.739 42.3273 137.515 43.5289Z" fill="white" stroke="#263238" stroke-linecap="round" stroke-linejoin="round"/>
<path d="M124.334 40.4581C124.334 40.4581 124.525 44.2965 127.988 46.1227C131.452 47.9489 135.881 47.5531 135.976 45.2596C136.072 42.9662 133.377 40.5535 131.548 37.478C129.718 34.4026 125.681 36.1382 123.947 38.2505" fill="white"/>
<path d="M124.334 40.4581C124.334 40.4581 124.525 44.2965 127.988 46.1227C131.452 47.9489 135.881 47.5531 135.976 45.2596C136.072 42.9662 133.377 40.5535 131.548 37.478C129.718 34.4026 125.681 36.1382 123.947 38.2505" stroke="#263238" stroke-linecap="round" stroke-linejoin="round"/>
<path d="M130.301 43.5289C130.009 45.0642 131.07 45.913 132.03 46.3898C132.99 46.8666 134.897 46.5853 135.976 45.2407C136.019 44.1154 135.403 42.971 134.543 41.7361C133.339 41.8887 130.525 42.3273 130.301 43.5289Z" fill="white" stroke="#263238" stroke-linecap="round" stroke-linejoin="round"/>
<path d="M117.621 40.4581C117.621 40.4581 117.812 44.2965 121.276 46.1227C124.74 47.9489 129.164 47.5531 129.259 45.2596C129.355 42.9662 126.665 40.5535 124.835 37.478C123.005 34.4026 118.964 36.1382 117.234 38.2505" fill="white"/>
<path d="M117.621 40.4581C117.621 40.4581 117.812 44.2965 121.276 46.1227C124.74 47.9489 129.164 47.5531 129.259 45.2596C129.355 42.9662 126.665 40.5535 124.835 37.478C123.005 34.4026 118.964 36.1382 117.234 38.2505" stroke="#263238" stroke-linecap="round" stroke-linejoin="round"/>
<path d="M123.583 43.5289C123.297 45.0642 124.353 45.913 125.318 46.3898C126.283 46.8666 128.184 46.5853 129.259 45.2407C129.307 44.1154 128.691 42.971 127.826 41.7361C126.622 41.8887 123.808 42.3273 123.583 43.5289Z" fill="white" stroke="#263238" stroke-linecap="round" stroke-linejoin="round"/>
<path d="M90.5662 82.2842C90.5662 82.2842 90.8337 88.1871 94.0967 92.159" stroke="#263238" stroke-linecap="round" stroke-linejoin="round"/>
<path d="M81.0685 106.921C81.0685 108.123 80.2659 109.095 79.2769 109.095C78.288 109.095 77.4854 108.142 77.4854 106.921C77.4854 105.7 78.288 104.747 79.2769 104.747C80.2659 104.747 81.0685 105.72 81.0685 106.921Z" fill="white"/>
<path d="M76.6111 109.629C76.6111 110.831 75.8085 111.804 74.8195 111.804C73.8306 111.804 73.028 110.85 73.028 109.629C73.028 108.409 73.8306 107.45 74.8195 107.45C75.8085 107.45 76.6111 108.428 76.6111 109.629Z" stroke="#263238" stroke-linecap="round" stroke-linejoin="round"/>
</g>
<defs>
<clipPath id="clip0_138_257">
<rect width="182" height="171" fill="white"/>
</clipPath>
</defs>
</svg>
