<svg width="38" height="21" viewBox="0 0 38 21" fill="none" xmlns="http://www.w3.org/2000/svg">
<path d="M23.2135 6.52259C23.6478 6.00433 24.1807 5.57793 24.7812 5.26811C25.3818 4.9583 26.0379 4.77126 26.7113 4.71807C29.954 4.14664 32.9864 4.6128 35.1632 7.34963C36.2168 8.61418 36.8995 10.1468 37.1354 11.7768C37.3712 13.4069 37.151 15.0705 36.4992 16.5827C36.149 17.4656 35.5812 18.2453 34.8488 18.849C34.1164 19.4526 33.2432 19.8606 32.3107 20.0348C31.3783 20.209 30.4171 20.1437 29.5167 19.8451C28.6163 19.5465 27.8061 19.0242 27.1617 18.3271C25.5178 16.3938 24.1302 14.2558 23.0334 11.9662C22.0275 10.2369 21.4121 8.25189 20.3162 6.59776C19.4132 5.27428 18.1225 4.26417 16.6221 3.70663C15.1218 3.14909 13.4856 3.07168 11.9394 3.48507C10.4256 3.9507 9.07084 4.82862 8.02637 6.02091C6.9819 7.2132 6.28881 8.6729 6.0246 10.2369C5.55923 13.9512 8.84694 16.5977 12.1796 14.8835C14.4712 13.5038 16.6364 11.9238 18.6498 10.1617C19.2353 9.71061 19.7457 9.13912 20.5113 8.40228C20.5113 8.94363 20.5113 9.22935 20.5113 9.34965C18.0043 12.3572 15.6324 15.3646 12.8852 18.0714C10.5282 20.3872 7.58583 22.0113 4.11803 20.2669C0.650234 18.5226 -0.235423 15.1541 0.0498074 11.485C0.575232 4.6128 5.9496 -0.409724 12.4649 0.026364C16.9685 0.327115 19.9709 2.9286 22.2077 6.50754C22.9583 7.71054 23.3937 9.10906 24.1593 10.297C25.0547 11.7606 26.1067 13.1221 27.2968 14.3572C27.8747 15.0674 28.6952 15.5375 29.5993 15.6764C30.5035 15.8153 31.4269 15.6131 32.1907 15.1091C32.9846 14.5747 33.5968 13.8105 33.9456 12.9184C34.2943 12.0263 34.3629 11.0488 34.1423 10.1166C33.8973 9.23685 33.4662 8.42024 32.878 7.72236C32.2899 7.02448 31.5585 6.46172 30.7339 6.07222C29.9092 5.68271 29.0104 5.47567 28.0987 5.46517C27.187 5.45467 26.2837 5.64096 25.4503 6.01136C24.8198 6.29708 24.2193 6.67298 23.6038 7.0038L23.2135 6.52259Z" fill="#019934"/>
</svg>
