<svg version="1.1" id="Layer_1" xmlns="http://www.w3.org/2000/svg" xmlns:xlink="http://www.w3.org/1999/xlink" x="0px" y="0px"
	 width="256" height="256" viewBox="0 0 500 500" enable-background="new 0 0 500 500" xml:space="preserve">
<path fill="#000000" opacity="1.000000" stroke="none" 
	d="
M294.000000,501.000000 
	C197.333359,501.000000 101.166679,500.976654 5.000187,501.095642 
	C1.576187,501.099884 0.903036,500.423828 0.905301,497.000000 
	C1.013778,333.000092 1.013756,169.000137 0.905338,5.000250 
	C0.903074,1.576958 1.575783,0.903021 4.999873,0.905286 
	C168.999756,1.013775 332.999725,1.013761 496.999634,0.905354 
	C500.422668,0.903091 501.096985,1.575422 501.094727,4.999753 
	C500.986206,168.999634 500.986237,332.999603 501.094604,496.999512 
	C501.096893,500.422272 500.425751,501.103180 497.000244,501.096588 
	C429.500336,500.966797 362.000153,501.000000 294.000000,501.000000 
z"/>
<path fill="#2B2B2B" opacity="1.000000" stroke="none" 
	d="
M363.643555,237.217453 
	C376.780884,240.580765 388.927185,245.863251 401.545837,250.869186 
	C404.940735,252.774887 403.917114,255.741577 403.809418,258.842529 
	C398.609283,265.574799 392.009125,270.585052 387.891846,277.747681 
	C382.433807,287.242798 378.500183,297.136475 378.085205,308.310394 
	C377.783936,316.424011 380.765656,323.227020 385.160248,330.074646 
	C385.493988,333.895813 382.832001,335.260315 380.585785,336.936279 
	C378.459167,338.522949 375.746826,340.057861 376.894684,343.242035 
	C378.024292,346.375580 381.190948,346.805237 384.011139,346.713501 
	C389.954285,346.520142 395.336334,344.249420 400.377502,341.269409 
	C412.092377,334.344482 423.969818,327.699646 435.650146,320.716400 
	C436.220459,320.375397 436.857300,320.110443 437.346191,319.674500 
	C439.285339,317.945374 442.141846,316.568237 441.682922,313.488525 
	C441.275146,310.752289 438.443512,310.529602 436.271179,309.797760 
	C434.840424,309.315765 433.493683,308.677277 432.434692,307.035950 
	C432.026794,305.228851 432.648743,304.145630 434.078278,303.067749 
	C438.322632,301.710999 441.833527,303.808350 445.526215,304.334778 
	C448.825043,304.805054 452.081543,304.907715 455.358887,304.675812 
	C458.130432,304.479736 459.290009,303.118652 457.824158,300.376526 
	C457.591217,299.940796 457.300232,299.523254 457.160583,299.054138 
	C456.700104,297.507263 455.738159,295.733704 457.520844,294.564331 
	C459.350311,293.364258 460.970551,294.040863 461.995605,296.342834 
	C463.465118,302.061615 467.260742,306.204620 469.374969,311.310822 
	C481.368683,340.276733 473.608398,365.069427 453.423065,386.956360 
	C428.906464,413.539642 396.876526,427.245941 363.277039,437.925812 
	C345.989899,443.420715 328.218719,446.989777 310.307404,449.580139 
	C298.841553,451.238342 287.279541,452.349274 275.681091,453.173523 
	C262.030670,454.143616 248.392410,454.296570 234.777313,453.895935 
	C199.642334,452.862000 165.021423,448.169586 131.255920,437.961670 
	C106.416924,430.452423 82.839943,420.320679 61.542873,405.301147 
	C47.231102,395.207886 34.920513,383.159790 26.832075,367.453064 
	C16.437706,347.268494 16.982227,326.897217 27.026167,306.283356 
	C28.575069,305.340515 29.677433,306.060974 30.697744,306.981323 
	C35.073097,310.927917 40.121304,313.825867 45.443092,316.235626 
	C58.135418,321.982971 69.099342,329.745605 76.382668,342.435486 
	C76.775810,343.392395 76.987991,344.030853 76.977585,344.699524 
	C76.866890,351.815918 76.548233,354.102722 85.244896,348.926605 
	C98.626610,340.962036 112.179047,333.291473 125.702400,325.571198 
	C127.911034,324.310364 130.110489,323.119965 132.910126,325.078735 
	C134.508987,327.475739 134.171524,329.858124 134.197525,332.146759 
	C134.299286,341.099365 134.245895,350.053223 134.235886,359.006287 
	C134.231857,362.607819 135.253830,365.516876 138.893860,367.483704 
	C139.752411,367.717590 140.252670,367.757690 141.121735,367.662781 
	C147.639221,365.422058 152.694611,361.279846 158.260315,358.078064 
	C186.522125,341.819763 214.802231,325.591309 242.973801,309.175690 
	C245.233032,307.859283 247.614883,306.355408 250.745758,308.053894 
	C252.669601,310.725739 252.164932,313.472809 252.174561,316.086304 
	C252.241394,334.225372 252.204025,352.364685 252.209488,370.503937 
	C252.209946,372.001617 252.156601,373.502228 252.251099,374.996307 
	C252.525223,379.330444 253.761658,380.144470 257.530914,378.015930 
	C264.333557,374.174377 271.104797,370.274292 277.864410,366.354919 
	C302.745605,351.928131 327.572571,337.402466 352.624756,323.279541 
	C359.243073,319.548492 362.112335,315.186798 361.945801,307.456696 
	C361.497772,286.664642 361.754578,265.856201 361.832031,245.054535 
	C361.841675,242.464859 361.231537,239.667694 363.643555,237.217453 
z"/>
<path fill="#161717" opacity="1.000000" stroke="none" 
	d="
M363.999390,236.534882 
	C364.000641,261.657928 363.873566,286.313110 364.097412,310.965118 
	C364.149200,316.670166 362.079620,320.427582 357.264832,323.192444 
	C334.899078,336.035706 312.582581,348.964752 290.250824,361.867126 
	C279.733215,367.943695 269.234985,374.053894 258.701447,380.102631 
	C251.130112,384.450409 250.004990,383.804504 249.999008,375.273529 
	C249.983475,353.118317 249.972076,330.963135 249.936859,308.330505 
	C248.107697,306.758759 247.886093,304.945862 247.859344,303.108673 
	C247.744385,295.212433 247.450821,287.313751 248.095947,278.943726 
	C248.196701,277.825684 248.226486,277.185852 248.223206,276.065918 
	C247.431061,260.901611 247.341049,246.220184 248.430923,231.072510 
	C248.373001,229.976547 248.313324,229.355347 248.146362,228.282349 
	C247.572510,219.395264 247.479126,210.963226 248.147919,202.133347 
	C247.433136,193.915741 247.369812,193.806915 240.623520,197.732254 
	C206.130081,217.802200 171.467590,237.579575 136.986649,257.670807 
	C136.274811,258.085602 135.489441,258.410675 134.768112,259.376984 
	C133.916946,260.674438 134.004608,261.941833 133.242859,263.280640 
	C125.351479,270.647095 115.540077,274.360260 106.916290,279.969238 
	C103.714500,282.051697 100.197731,283.655029 97.060577,285.845245 
	C95.751526,286.759186 93.880859,288.205841 94.916786,289.862762 
	C96.190025,291.899261 97.867271,289.937622 99.167725,289.212799 
	C108.036705,284.269531 116.737015,279.030853 125.572464,274.028046 
	C127.737679,272.802032 129.924408,271.391357 132.822449,273.155579 
	C134.204788,275.117828 134.154068,276.941772 133.595367,279.169830 
	C129.432663,284.417542 123.550270,286.594177 118.341019,289.721497 
	C111.666328,293.728546 104.939079,297.656097 98.141487,301.457245 
	C97.418533,301.861542 96.681435,302.271118 96.120903,302.891022 
	C95.216911,303.890717 94.157822,305.132141 94.931244,306.398682 
	C95.954033,308.073608 97.282532,306.704956 98.343048,306.115417 
	C107.177490,301.204742 115.825455,295.968628 124.627892,291.001892 
	C127.065285,289.626617 129.505844,287.946594 132.750031,289.962830 
	C133.951660,291.637146 134.063995,293.173950 133.666138,295.146210 
	C130.096741,300.514465 124.517120,302.638519 119.594894,305.601257 
	C112.771538,309.708313 105.711784,313.418701 98.912239,317.573517 
	C96.835007,318.842804 94.633522,320.074432 94.784439,323.582642 
	C100.504974,321.988983 104.823769,318.542175 109.533867,315.945068 
	C115.199394,312.821198 120.665398,309.330902 126.412712,306.348694 
	C128.619568,305.203583 130.980865,303.972992 133.421906,306.805725 
	C134.178040,312.977570 135.482056,318.836548 132.316864,324.726135 
	C121.598793,329.576477 112.374146,336.130310 102.449226,341.440002 
	C95.441246,345.189117 88.705185,349.444946 81.827492,353.439728 
	C77.109154,356.180206 75.166992,355.089691 75.017899,349.656464 
	C74.963303,347.666840 74.978775,345.675262 74.925369,343.212585 
	C73.672134,339.638458 72.853966,336.442719 72.592056,332.654358 
	C72.598419,330.979126 73.247932,329.896332 73.388046,328.243774 
	C73.776939,325.088226 73.063438,322.434021 73.085411,319.299194 
	C73.812843,314.883148 72.420914,311.013214 72.558868,306.605347 
	C72.681976,304.612000 73.466026,303.207947 73.451233,301.175690 
	C73.836838,296.301483 72.584686,291.996521 72.666840,287.127716 
	C74.119225,281.069458 72.120987,275.496552 72.697624,269.902557 
	C72.984360,267.120850 72.636017,264.253418 74.748627,261.426453 
	C74.990524,244.658493 74.981361,228.307556 74.989700,211.489655 
	C79.001656,205.766846 85.132790,203.563614 90.547920,200.453415 
	C132.925430,176.113754 175.158844,151.524628 217.520538,127.157669 
	C236.976120,115.966591 256.413300,104.741615 275.826965,93.477020 
	C277.841370,92.308182 279.740387,90.855110 282.625305,91.771545 
	C282.970245,100.264008 283.039551,108.593285 282.973053,116.921478 
	C282.946838,120.204071 283.784027,120.632790 286.689484,118.939743 
	C308.960388,105.962288 331.311157,93.121895 353.637817,80.240074 
	C353.926178,80.073692 354.224854,79.925278 354.516174,79.763817 
	C362.703827,75.225990 363.997345,75.958679 363.997528,85.143059 
	C363.998505,135.450653 363.998474,185.758255 363.999390,236.534882 
z"/>
<path fill="#28DCBD" opacity="1.000000" stroke="none" 
	d="
M282.976501,91.470566 
	C229.912796,122.521576 176.879562,153.124100 123.822136,183.684601 
	C107.828232,192.896912 91.767052,201.992416 75.371956,211.082062 
	C75.021431,202.047470 75.035637,193.072250 75.115967,183.644623 
	C76.302223,181.104080 77.741051,179.372467 79.867523,178.160400 
	C108.929909,161.594894 137.876816,144.828217 166.840805,128.091766 
	C193.363663,112.765892 219.891754,97.448906 246.405197,82.106667 
	C256.339539,76.358078 266.296265,70.646759 276.255157,64.940216 
	C278.085114,63.891624 279.963501,62.530502 282.588959,63.805107 
	C282.903839,73.041107 282.950806,82.023537 282.976501,91.470566 
z"/>
<path fill="#455B65" opacity="1.000000" stroke="none" 
	d="
M282.910736,63.599144 
	C264.788452,74.368599 246.680374,84.609848 228.659058,95.001564 
	C178.600647,123.866997 128.578766,152.795776 78.538002,181.691864 
	C77.676620,182.189285 76.759598,182.590317 75.525314,183.114258 
	C73.665466,173.709900 75.539902,165.987854 85.799973,162.535278 
	C86.547165,162.283844 87.098732,161.503403 87.812561,161.092926 
	C119.165962,143.063095 150.559464,125.102745 181.878830,107.014023 
	C212.764999,89.175484 243.565781,71.189148 274.447021,53.342072 
	C276.517151,52.145691 278.770630,50.088089 281.330048,51.343765 
	C284.201904,52.752708 282.713623,55.799057 282.961151,58.145065 
	C283.134888,59.791698 282.975281,61.473511 282.910736,63.599144 
z"/>
<path fill="#455A64" opacity="1.000000" stroke="none" 
	d="
M384.224518,331.325653 
	C376.443787,323.325897 374.795898,313.704376 376.189636,303.718323 
	C378.672760,285.926971 386.517578,270.917908 401.655457,259.984192 
	C402.474915,260.012726 402.993896,260.185303 403.256714,260.585663 
	C405.123291,263.429230 407.518616,265.022095 411.092743,264.238434 
	C415.053497,263.370026 414.743744,260.177582 414.996124,257.266357 
	C415.098541,256.085266 415.512329,255.040863 416.709534,254.064667 
	C420.502075,253.916199 423.976898,253.968704 427.514648,255.799896 
	C429.992004,255.718781 431.274475,257.021667 432.706055,258.750214 
	C433.585083,259.693359 434.204102,260.404602 435.224915,261.238037 
	C436.550385,262.336029 436.855896,263.636536 437.669067,265.100647 
	C442.598907,273.912048 441.879822,282.736267 439.570862,292.072266 
	C439.430420,293.833954 438.737854,295.072235 438.759460,296.847839 
	C438.220886,299.609985 437.402710,301.818970 435.194214,303.715027 
	C433.996155,304.554260 433.349976,305.322205 433.055237,306.695496 
	C433.599762,308.681000 433.401337,310.323242 432.505951,311.802765 
	C424.917847,324.341522 415.825134,335.016907 400.316589,337.762299 
	C393.259857,339.011505 387.046936,336.670258 384.224518,331.325653 
z"/>
<path fill="#37474F" opacity="1.000000" stroke="none" 
	d="
M417.013031,253.449188 
	C417.008759,255.896744 416.860199,257.893097 417.015259,259.865570 
	C417.396545,264.714783 414.320099,266.271912 410.387909,266.828918 
	C405.946625,267.458069 402.904907,265.119904 401.996460,260.295532 
	C401.978363,257.201508 401.968018,254.505905 401.931091,251.354370 
	C401.932648,237.600616 401.960815,224.302795 401.979462,210.541290 
	C401.164062,207.555832 403.180267,206.599838 404.651642,205.451187 
	C409.816772,201.418976 409.506378,198.929474 403.442780,196.356522 
	C402.988159,196.163605 402.585938,195.877563 402.043396,195.241104 
	C401.910400,190.956009 401.951752,186.976761 401.986694,182.540161 
	C400.368073,179.645874 402.338287,178.492111 403.810608,177.311905 
	C409.934235,172.403214 409.849701,171.370544 402.813904,167.279633 
	C402.535095,167.117523 402.330597,166.845184 402.007843,166.262970 
	C401.924713,159.952362 401.930237,153.962173 402.013214,147.973053 
	C402.077850,143.307571 404.992828,140.048035 409.010254,140.018463 
	C413.687103,139.984039 416.980286,143.249954 416.984253,148.147797 
	C417.012573,183.094208 417.003845,218.040649 417.013031,253.449188 
z"/>
<path fill="#28DDBF" opacity="1.000000" stroke="none" 
	d="
M435.292725,304.054382 
	C434.549591,301.634613 435.988861,299.654175 436.514038,297.180939 
	C445.473969,284.322052 457.734344,276.044403 468.510345,269.982422 
	C458.555237,274.938354 448.153168,283.554779 438.350494,293.345520 
	C439.278595,283.973572 440.337341,274.679199 436.047546,265.378571 
	C437.719330,261.567047 441.917084,262.121429 444.693756,259.865814 
	C446.699890,260.083282 448.192596,259.670044 449.820709,259.176514 
	C453.142914,258.169403 455.435364,260.462128 455.022888,263.822632 
	C454.924286,264.626160 455.008270,265.452118 455.008270,266.932526 
	C457.351410,263.684143 456.537384,258.810852 462.011505,258.871307 
	C465.853241,258.913788 469.640320,259.352142 473.240234,260.213135 
	C487.680634,263.666931 485.340149,262.499756 482.898071,276.218719 
	C482.788086,276.836609 482.258942,277.368256 482.059967,277.983643 
	C479.810669,284.941772 479.836151,284.859253 472.463287,283.262695 
	C470.620850,282.863739 468.618530,283.203033 466.168518,283.203033 
	C469.408600,284.932770 472.264435,286.269470 474.912201,288.139221 
	C478.225586,290.479034 477.792023,292.666595 476.137939,295.313629 
	C474.286591,298.276306 472.255951,301.233521 467.974152,299.470032 
	C466.180298,298.731171 464.461456,297.810272 462.343842,296.842072 
	C460.694824,295.788635 459.437744,294.787964 457.126221,295.175476 
	C458.103088,296.689056 458.934479,297.969788 459.758514,299.255280 
	C463.027130,304.354187 462.324371,306.047424 456.217896,306.996002 
	C449.115631,308.099152 442.408783,305.934021 435.292725,304.054382 
z"/>
<path fill="#25C7AC" opacity="1.000000" stroke="none" 
	d="
M74.725327,287.054260 
	C74.904831,291.768280 75.009491,296.122955 75.019867,300.959045 
	C72.515137,301.286621 72.450562,299.040070 71.570747,297.582977 
	C63.011597,283.407715 52.771172,270.831665 40.824406,263.655060 
	C49.298264,268.632111 57.920330,277.553589 65.151909,287.878601 
	C68.937965,293.284180 73.138161,298.513000 74.747795,305.514038 
	C74.991142,309.904846 75.045601,314.003540 74.996696,318.558746 
	C72.422729,320.432800 71.178688,318.579651 70.087357,317.000305 
	C65.893517,310.931213 60.538666,305.990814 54.790394,300.912903 
	C54.366333,300.483337 54.206009,300.302582 53.663136,299.515564 
	C52.335823,296.208832 50.105686,294.850006 47.785038,293.533722 
	C45.220222,292.078949 42.496162,290.759308 41.139854,287.439056 
	C35.365215,282.448944 28.359615,279.467285 24.353848,272.858093 
	C19.177216,264.317078 21.265707,254.379776 29.076227,253.220047 
	C34.350498,252.436920 39.817947,252.475662 45.058983,254.924225 
	C51.756363,258.053192 57.457142,262.314636 62.609978,267.960938 
	C68.835739,270.859222 71.113777,276.397888 73.343307,281.919373 
	C73.954216,283.432281 73.996536,285.159180 74.725327,287.054260 
z"/>
<path fill="#2ADCBE" opacity="1.000000" stroke="none" 
	d="
M55.810596,298.813416 
	C62.869049,304.864532 68.973206,311.462646 74.575592,318.915283 
	C74.973152,321.794312 75.052971,324.573334 75.040596,327.811768 
	C72.717430,328.406738 72.455254,326.344696 71.593498,325.099396 
	C64.854401,315.360840 56.384758,307.718689 45.404213,303.043823 
	C56.828075,307.930725 65.598656,315.905823 72.281166,326.274933 
	C73.349762,327.933044 74.414894,329.645050 74.815002,332.002472 
	C74.984512,335.505463 75.006645,338.693390 74.958618,342.310974 
	C67.683647,332.009705 57.909924,324.417664 46.366901,318.771240 
	C39.609177,315.465576 32.156040,313.001617 27.412624,306.048096 
	C26.857473,298.464478 28.656176,295.823120 35.606316,293.918274 
	C40.561909,290.787750 44.931648,291.584106 49.332024,294.387512 
	C50.993176,295.445801 52.537525,296.700714 54.691177,297.804871 
	C55.056252,298.049744 55.049313,297.945068 54.996880,297.946472 
	C55.180916,298.173462 55.409157,298.407104 55.810596,298.813416 
z"/>
<path fill="#25C7AC" opacity="1.000000" stroke="none" 
	d="
M445.028320,259.543579 
	C444.475067,260.504272 443.931335,261.122833 443.352478,261.706573 
	C441.974884,263.095764 441.848389,267.251740 438.291656,263.998291 
	C438.098816,263.821869 437.143707,264.478821 436.268829,264.876862 
	C435.414154,264.208405 434.834076,263.410919 434.170776,262.326141 
	C433.312256,260.886993 433.995270,259.780792 434.309082,258.329529 
	C436.394958,251.353729 439.551727,245.307816 443.729187,239.778625 
	C439.804535,244.986801 436.769440,250.657944 434.635803,257.184326 
	C434.263885,258.397827 434.048828,259.307129 432.957214,260.047760 
	C431.147156,258.969116 429.665192,257.776886 428.018494,256.271179 
	C429.646759,246.098373 433.085175,237.141647 441.031342,230.395630 
	C447.341675,225.038284 455.360657,225.996765 458.222717,232.588928 
	C459.654663,235.887161 458.021454,238.679352 456.789276,241.292130 
	C454.422913,246.310028 450.904083,250.667725 447.439117,254.991302 
	C446.391785,256.298126 445.607056,257.660126 445.028320,259.543579 
z"/>
<path fill="#455A64" opacity="1.000000" stroke="none" 
	d="
M401.567749,195.098572 
	C405.824493,193.804779 408.552612,194.924179 410.180542,198.933868 
	C411.850342,203.046783 409.954041,205.127808 406.540192,206.794785 
	C405.066681,207.514282 403.784760,208.626205 402.192871,209.818710 
	C398.135040,212.306198 394.309723,214.551559 390.462830,216.759247 
	C385.637665,219.528351 380.970978,218.219147 379.366486,213.710968 
	C377.820679,209.367630 380.760864,207.048599 383.666870,205.241241 
	C389.388947,201.682465 395.384186,198.563019 401.567749,195.098572 
z"/>
<path fill="#455A64" opacity="1.000000" stroke="none" 
	d="
M401.589600,166.108002 
	C403.188354,166.030228 404.581543,165.852478 405.775360,166.259430 
	C408.645142,167.237610 410.286591,169.513184 410.779297,172.409409 
	C411.240997,175.123383 409.135895,176.462967 407.254303,177.802933 
	C405.560822,179.008942 403.188965,179.259949 402.075500,181.749725 
	C398.350525,182.433090 395.868378,185.103516 392.816895,186.622574 
	C388.290100,188.876099 384.797668,188.314987 382.982574,184.783813 
	C380.869110,180.672165 382.167999,177.587784 386.093201,175.320084 
	C391.198120,172.370804 396.230011,169.295166 401.589600,166.108002 
z"/>
<path fill="#2B2E2E" opacity="1.000000" stroke="none" 
	d="
M74.851364,286.917175 
	C71.261330,280.968353 67.680954,274.549225 62.996155,268.439819 
	C66.729843,265.836700 70.549347,263.564117 74.684280,261.150452 
	C74.967316,269.479889 74.934929,277.950317 74.851364,286.917175 
z"/>
<path fill="#2B2E2E" opacity="1.000000" stroke="none" 
	d="
M54.912041,297.743103 
	C49.111729,296.167328 43.482014,292.871002 36.423771,293.928894 
	C37.026115,291.425812 38.908813,289.626556 40.787476,287.427979 
	C46.402931,289.436035 50.356636,293.743652 54.912041,297.743103 
z"/>
<path fill="#27DDBF" opacity="1.000000" stroke="none" 
	d="
M249.518982,199.855103 
	C249.865204,209.036224 249.888687,218.029297 249.830902,227.481049 
	C238.359177,245.495361 227.219955,263.211975 215.879807,280.800140 
	C211.165848,288.111298 206.818100,289.746552 198.668045,286.549133 
	C186.769623,281.881134 175.036072,276.804626 163.125031,272.165405 
	C175.705612,277.047333 188.070206,282.461945 200.653519,287.334473 
	C207.044586,289.809204 210.741699,288.769501 214.674103,282.691803 
	C223.871719,268.476501 232.938934,254.175583 242.065994,239.913940 
	C244.280914,236.452957 245.998688,232.622391 249.527618,229.948273 
	C249.902588,245.049942 249.938629,260.048218 249.912140,275.509735 
	C247.201172,278.298981 245.470245,274.725098 243.443039,274.975128 
	C245.342865,275.482452 247.259613,276.682983 249.549225,277.789612 
	C249.840759,287.670776 249.904358,297.303162 249.941315,307.394318 
	C215.352859,327.753143 180.791565,347.654053 146.226868,367.549103 
	C145.076279,368.211365 143.891098,368.813568 142.409683,369.541779 
	C140.338669,367.830994 141.590530,366.344025 142.585266,364.797455 
	C151.391495,351.105927 160.453033,337.578705 168.947937,323.686859 
	C161.647110,335.638031 153.915192,347.312683 146.288559,359.054016 
	C145.036469,360.981598 143.994385,363.948975 140.269623,361.830505 
	C138.503754,359.487457 138.785660,357.088715 138.779068,354.802490 
	C138.698654,326.910339 138.696411,299.018005 138.776093,271.125854 
	C138.782684,268.817993 138.652039,266.464081 139.764465,263.871765 
	C141.488861,259.608246 144.994370,257.869934 148.289078,255.984009 
	C179.827560,237.930908 211.204391,219.597427 242.739395,201.538315 
	C244.760635,200.380814 246.650162,198.938324 249.518982,199.855103 
z"/>
<path fill="#23C2A8" opacity="1.000000" stroke="none" 
	d="
M141.559753,262.501343 
	C140.878540,265.850922 140.951981,268.950134 140.953323,272.051453 
	C140.965332,299.751556 140.952011,327.451660 140.976776,355.151764 
	C140.978683,357.284607 140.602570,359.475525 141.817261,361.881775 
	C142.617935,362.709106 142.751450,363.333221 142.621368,364.340271 
	C142.315033,365.039398 142.079773,365.409546 141.700317,366.070374 
	C141.289352,367.417938 141.082520,368.492554 140.223511,369.640442 
	C133.266876,367.908630 132.158661,366.503113 132.143509,359.848175 
	C132.117737,348.532684 132.102280,337.217194 131.997314,325.437164 
	C131.974960,318.958374 132.037766,312.944092 132.021286,306.467712 
	C129.025101,303.109650 129.575638,300.029572 131.695694,296.437256 
	C131.993240,294.262482 132.052307,292.529236 132.048950,290.365723 
	C129.078918,287.073364 129.442032,283.967743 131.603821,280.345337 
	C131.968796,277.920807 132.032578,275.901581 132.015488,273.455688 
	C128.821991,270.140961 129.696243,267.043457 131.703110,263.459900 
	C132.144333,261.841644 132.337402,260.663025 132.770752,259.217255 
	C136.735062,257.599762 139.215164,259.476410 141.559753,262.501343 
z"/>
<path fill="#383838" opacity="1.000000" stroke="none" 
	d="
M383.911499,331.318787 
	C394.755249,339.694092 407.428864,335.498444 416.682434,327.765259 
	C423.388062,322.161346 428.535004,315.248596 432.764954,307.238953 
	C435.577515,307.635101 438.307617,307.913666 440.686279,308.977783 
	C445.427887,311.099091 445.893341,314.049652 442.477386,317.992218 
	C438.551086,322.523834 433.044891,324.703613 428.034668,327.609253 
	C417.684448,333.611847 407.375702,339.692322 396.902374,345.473450 
	C392.360413,347.980560 387.311249,349.420685 382.025238,348.859375 
	C378.647156,348.500671 375.192444,347.456207 374.282501,343.636810 
	C373.385315,339.870789 375.748566,337.494263 378.715027,335.477173 
	C380.460663,334.290192 382.752838,333.754822 383.911499,331.318787 
z"/>
<path fill="#20B69D" opacity="1.000000" stroke="none" 
	d="
M140.922607,364.145691 
	C141.389984,363.561005 141.666946,363.140656 142.004974,362.477783 
	C151.693893,349.500793 159.790894,335.738922 168.723480,322.537933 
	C169.676849,321.128967 170.272308,319.332184 173.612442,318.067047 
	C168.729019,325.924744 164.508194,332.557465 160.447845,339.286987 
	C154.447617,349.231598 147.530350,358.613892 142.169296,369.316498 
	C141.633224,369.747345 141.169144,369.854950 140.346375,369.914185 
	C139.992752,368.514313 139.997803,367.162811 140.001434,365.405640 
	C140.242630,364.768494 140.486710,364.538483 140.922607,364.145691 
z"/>
<path fill="#3A3A3A" opacity="1.000000" stroke="none" 
	d="
M215.437027,144.404449 
	C231.193863,135.338715 246.634598,126.458252 262.087891,117.599716 
	C263.527740,116.774338 264.990051,115.925972 266.544037,115.377556 
	C268.502258,114.686478 269.597015,115.512344 270.034576,117.641830 
	C271.613220,125.324600 270.190247,129.597595 263.017059,132.925995 
	C253.044037,137.553558 248.250900,144.235611 249.824783,155.655716 
	C250.771103,162.522232 249.892166,169.628067 250.043915,176.621780 
	C250.113159,179.812408 249.025803,181.832047 246.182190,183.461197 
	C220.327179,198.273849 194.542236,213.208801 168.732376,228.100311 
	C167.723206,228.682571 166.666916,229.182785 165.636795,229.729156 
	C162.341919,231.476791 160.948044,230.142715 160.945587,226.763885 
	C160.934418,211.437332 160.907135,196.110550 160.989548,180.784393 
	C161.011948,176.619843 163.801666,174.293335 167.147980,172.365967 
	C183.159943,163.143692 199.135712,153.858551 215.437027,144.404449 
z"/>
<path fill="#393939" opacity="1.000000" stroke="none" 
	d="
M91.917038,252.997375 
	C91.917976,242.347488 92.047798,232.194656 91.855804,222.047913 
	C91.780777,218.082916 93.266312,215.190323 96.498466,213.307388 
	C112.014137,204.268402 127.602409,195.354141 143.141678,186.355499 
	C146.530151,184.393250 148.074905,185.906082 148.739990,189.141205 
	C148.971588,190.267838 148.948715,191.457901 148.949890,192.619095 
	C148.962814,205.265472 148.927277,217.911987 148.970276,230.558228 
	C148.990540,236.515640 146.934967,240.886429 141.368912,243.974075 
	C126.831322,252.038406 112.544441,260.554382 98.148064,268.873810 
	C93.249901,271.704376 92.018936,271.036957 91.932365,265.477539 
	C91.870193,261.484863 91.918304,257.490479 91.917038,252.997375 
z"/>
<path fill="#7AE7D5" opacity="1.000000" stroke="none" 
	d="
M141.977051,262.575989 
	C138.500549,262.852722 136.408859,260.287781 133.328430,259.093201 
	C133.395935,256.817780 135.293610,256.194763 136.818527,255.313644 
	C173.508331,234.113617 210.217529,212.947144 246.926895,191.780991 
	C247.764374,191.298111 248.520111,190.538223 249.984695,190.883743 
	C249.984695,193.593414 249.984695,196.376434 249.913208,199.601303 
	C220.416855,217.004395 190.985886,233.955063 161.571869,250.935135 
	C155.087967,254.678177 148.664246,258.525513 141.977051,262.575989 
z"/>
<path fill="#445A64" opacity="1.000000" stroke="none" 
	d="
M293.181152,198.969818 
	C287.114349,196.747040 283.890442,191.192032 284.483795,183.722107 
	C285.664154,168.862686 292.072296,156.684280 303.928711,147.537277 
	C305.750336,146.131912 307.838837,144.974243 309.961639,144.074127 
	C320.187012,139.738373 328.388428,144.999069 329.089111,156.062866 
	C329.705444,165.795364 326.594513,174.381210 321.321808,182.699127 
	C319.416107,182.343307 319.250854,180.774033 318.712402,179.387726 
	C317.114044,175.272568 315.156311,174.453323 310.941589,176.118103 
	C303.317291,179.129608 298.537323,184.721771 296.027771,192.455658 
	C295.326721,194.616272 295.476227,197.156097 293.181152,198.969818 
z"/>
<path fill="#3B3B3B" opacity="1.000000" stroke="none" 
	d="
M272.686401,291.712830 
	C297.187439,277.587830 321.366852,263.635742 345.540283,249.673386 
	C347.265045,248.677170 349.024231,247.181747 350.924591,249.016861 
	C352.745880,250.775604 351.491821,252.707993 350.748779,254.543137 
	C349.593109,257.397308 347.034332,258.703369 344.595398,260.116638 
	C319.435547,274.695892 294.280457,289.283417 269.074371,303.782349 
	C267.239868,304.837646 264.963806,307.212830 262.894836,304.691467 
	C260.850861,302.200592 262.469391,299.576691 264.193542,297.483704 
	C266.349670,294.866272 269.432159,293.451416 272.686401,291.712830 
z"/>
<path fill="#3B3B3B" opacity="1.000000" stroke="none" 
	d="
M307.378174,290.381165 
	C319.942139,283.165649 332.175079,276.110382 344.427795,269.089508 
	C346.510162,267.896301 348.871552,265.598755 351.049011,268.203979 
	C353.178833,270.752106 350.949066,273.267456 349.503723,275.384125 
	C348.717712,276.535217 347.235260,277.276764 345.959229,278.017487 
	C321.245850,292.363281 296.555511,306.749878 271.733154,320.904938 
	C269.111694,322.399841 265.375031,326.680420 262.790710,322.312897 
	C260.466278,318.384613 264.552948,315.239502 267.809143,313.289948 
	C278.641296,306.804657 289.639587,300.596771 300.574799,294.283691 
	C302.733063,293.037659 304.894073,291.796478 307.378174,290.381165 
z"/>
<path fill="#27DBBC" opacity="1.000000" stroke="none" 
	d="
M293.162964,199.406662 
	C293.301147,188.018082 298.365601,179.924149 308.314301,174.796097 
	C316.296997,170.681412 320.700134,173.140213 321.043945,182.536682 
	C317.315399,189.418991 312.134033,194.456100 305.520569,197.977524 
	C301.730377,199.995651 297.714111,200.758255 293.162964,199.406662 
z"/>
<path fill="#27D8BA" opacity="1.000000" stroke="none" 
	d="
M320.014771,306.671387 
	C321.145599,306.430695 322.381836,306.063263 322.654602,306.424103 
	C324.912476,309.411072 322.662567,319.612915 319.381836,321.522339 
	C311.221680,326.271667 302.997803,330.912537 294.871704,335.718994 
	C291.837463,337.513672 290.681274,337.262665 290.363098,333.367889 
	C289.823425,326.761597 291.386688,322.150543 298.067169,319.112061 
	C305.571136,315.699036 312.496521,311.013885 320.014771,306.671387 
z"/>
<path fill="#393939" opacity="1.000000" stroke="none" 
	d="
M131.561707,280.016510 
	C131.976898,282.975891 132.048752,286.011749 132.053574,289.491516 
	C122.971382,293.490936 115.236351,299.370453 106.734543,303.861023 
	C103.358810,305.644073 100.120430,307.685486 96.785179,309.547729 
	C95.649559,310.181854 94.395058,311.034973 93.080116,310.077637 
	C91.657860,309.042145 91.871849,307.424011 92.059273,305.951813 
	C92.370155,303.509918 93.576172,301.499664 95.709068,300.278778 
	C107.525475,293.515167 119.378151,286.814941 131.561707,280.016510 
z"/>
<path fill="#393939" opacity="1.000000" stroke="none" 
	d="
M131.647614,263.172852 
	C131.993225,266.055603 132.035202,269.090942 132.005890,272.577637 
	C121.393723,279.058655 110.896675,285.167389 100.277977,291.056763 
	C97.923759,292.362488 95.445374,295.667603 92.425507,292.706818 
	C90.396202,290.717224 92.470345,285.884247 96.333130,283.540375 
	C103.016960,279.484741 109.841232,275.660126 116.616417,271.755646 
	C121.517372,268.931305 126.434227,266.134552 131.647614,263.172852 
z"/>
<path fill="#393939" opacity="1.000000" stroke="none" 
	d="
M131.623734,296.140198 
	C131.984406,299.032562 132.034653,302.069397 132.013428,305.555908 
	C120.641609,312.359528 109.352623,318.733917 98.028122,325.044647 
	C96.405251,325.948975 94.515175,328.158844 92.769165,326.079956 
	C91.014420,323.990631 91.733963,321.358063 93.355957,319.180237 
	C95.426414,316.400208 98.604263,315.109070 101.447998,313.442535 
	C111.353027,307.637817 121.350792,301.991333 131.623734,296.140198 
z"/>
<path fill="#20B69D" opacity="1.000000" stroke="none" 
	d="
M249.925354,229.698395 
	C243.342377,238.488327 238.362671,247.922607 232.599930,256.851013 
	C226.642395,266.081268 221.023178,275.529785 215.070999,284.763611 
	C210.937653,291.175812 206.972244,292.412659 200.225891,289.497620 
	C186.334213,283.495148 172.504211,277.349731 158.662735,271.231659 
	C157.990707,270.934631 157.451645,270.336700 157.281342,269.038483 
	C164.382828,271.638855 171.490295,274.223053 178.584167,276.844025 
	C185.924881,279.556244 193.210892,282.423126 200.598022,285.001190 
	C207.246765,287.321564 210.655273,286.080688 214.583527,280.106110 
	C225.013443,264.242889 235.364563,248.327896 245.782181,232.456558 
	C246.774872,230.944183 248.014557,229.593948 249.444611,228.054077 
	C249.827805,228.408203 249.905991,228.876678 249.925354,229.698395 
z"/>
<path fill="#2DD5B9" opacity="1.000000" stroke="none" 
	d="
M319.194427,246.352753 
	C319.396210,249.459778 318.691101,251.627243 316.155060,253.055908 
	C310.237122,256.389771 304.359802,259.796936 298.500153,263.232544 
	C295.812836,264.808167 294.457520,264.203491 294.462860,261.021454 
	C294.469269,257.206146 294.429871,253.388916 294.542206,249.576385 
	C294.609711,247.283920 295.666534,245.556259 297.783173,244.372131 
	C303.711304,241.055725 309.596008,237.659134 315.443085,234.201553 
	C318.284546,232.521317 319.305634,233.336136 319.213867,236.469040 
	C319.121613,239.618637 319.194550,242.773071 319.194427,246.352753 
z"/>
<path fill="#2BD6B9" opacity="1.000000" stroke="none" 
	d="
M265.778381,262.917511 
	C271.722656,259.497986 277.352356,256.281891 282.939514,252.993591 
	C285.645844,251.400757 286.921417,251.962311 286.865387,255.217499 
	C286.802368,258.877747 286.819336,262.540192 286.859558,266.201050 
	C286.883362,268.368286 286.157654,270.214325 284.310852,271.310150 
	C278.021637,275.041992 271.672577,278.673309 265.330902,282.316040 
	C263.847961,283.167847 262.166565,283.490448 262.100983,281.159241 
	C261.965546,276.347015 262.040894,271.517975 262.306366,266.711151 
	C262.400696,265.003143 263.894745,263.869049 265.778381,262.917511 
z"/>
<path fill="#2BD6B9" opacity="1.000000" stroke="none" 
	d="
M326.984802,236.080200 
	C326.031250,229.705170 328.336273,225.926666 333.893066,223.458221 
	C338.578278,221.376999 342.923218,218.497498 347.320282,215.810196 
	C350.910187,213.616211 351.957031,214.765060 351.887543,218.619019 
	C351.584137,235.445786 353.875671,230.865158 340.373779,239.056717 
	C337.672943,240.695297 334.921844,242.254181 332.159027,243.786896 
	C327.578979,246.327713 327.033081,245.972717 326.986633,240.546707 
	C326.975250,239.214874 326.984863,237.882858 326.984802,236.080200 
z"/>
<path fill="#42565F" opacity="1.000000" stroke="none" 
	d="
M281.040527,236.064209 
	C292.117676,228.082642 304.151794,222.318436 315.494720,215.389725 
	C320.179352,212.528168 324.985107,209.862244 329.776794,207.180710 
	C330.848450,206.580994 332.222992,205.441345 333.220551,207.163986 
	C334.010376,208.527893 333.203430,209.862320 332.114929,210.665359 
	C330.248566,212.042267 328.243713,213.244873 326.233673,214.411560 
	C312.417450,222.430817 298.592590,230.435287 284.743713,238.397858 
	C283.543793,239.087769 282.253815,240.495193 280.730316,239.123825 
	C279.835480,238.318344 280.431915,237.278381 281.040527,236.064209 
z"/>
<path fill="#26D1B4" opacity="1.000000" stroke="none" 
	d="
M306.494446,206.573517 
	C312.982208,202.809784 319.159668,199.241882 325.345734,195.688980 
	C326.459656,195.049194 327.822540,193.848465 328.828949,195.321793 
	C329.778076,196.711258 328.923462,198.240463 327.692169,199.265244 
	C326.810242,199.999222 325.774475,200.558624 324.774017,201.138351 
	C313.003296,207.958954 301.246002,214.803299 289.423828,221.533615 
	C288.074890,222.301559 286.214447,224.583282 284.854401,222.103882 
	C283.916595,220.394257 285.505127,218.712021 287.217194,217.723373 
	C293.539673,214.072372 299.863647,210.423920 306.494446,206.573517 
z"/>
<path fill="#42565F" opacity="1.000000" stroke="none" 
	d="
M260.080750,154.685364 
	C258.630066,154.658005 257.151154,156.447266 256.456635,154.856033 
	C255.743286,153.221725 257.919861,152.756271 259.031433,151.523865 
	C259.333954,151.039154 259.419159,150.796021 259.125092,150.627151 
	C256.094513,150.935883 255.293427,149.832367 257.544312,148.207642 
	C260.623108,145.985321 264.078156,144.276596 267.419830,142.434631 
	C267.899841,142.170059 268.810394,142.147339 269.240753,142.434174 
	C270.471527,143.254410 270.385956,152.392456 268.929932,153.384888 
	C265.167023,155.949692 261.339233,158.490479 256.589264,160.184067 
	C256.423248,157.220276 258.779327,157.029938 260.031799,155.540253 
	C260.388000,154.510071 261.108154,154.527008 261.888855,154.094971 
	C262.819580,153.441574 263.515076,153.000107 264.425903,152.385468 
	C264.793457,152.131531 264.926880,152.022736 265.271423,151.783722 
	C265.482605,151.653519 265.770966,152.028397 265.688110,151.805267 
	C265.325714,151.757782 265.054108,151.944885 264.577057,152.296875 
	C263.721283,152.814865 263.141174,153.278076 262.258881,153.812042 
	C261.557495,154.413376 260.958801,154.496613 260.080750,154.685364 
z"/>
<path fill="#DFF7F3" opacity="1.000000" stroke="none" 
	d="
M75.018066,305.444702 
	C67.505493,291.515350 58.542793,278.431091 45.729191,268.318726 
	C41.866024,265.269958 37.580078,262.892609 33.814617,259.941925 
	C52.762234,268.116760 64.783386,283.309601 74.651840,301.187378 
	C74.983543,302.654724 75.041496,303.868988 75.018066,305.444702 
z"/>
<path fill="#DFF7F3" opacity="1.000000" stroke="none" 
	d="
M75.051804,331.914520 
	C69.087196,322.354919 62.120010,313.420197 51.931446,307.429626 
	C47.572548,304.866730 42.788639,303.305756 36.787727,301.476746 
	C48.386944,299.856201 64.357750,311.558472 74.680405,328.041138 
	C75.012688,329.351288 75.076965,330.431366 75.051804,331.914520 
z"/>
<path fill="#37474F" opacity="1.000000" stroke="none" 
	d="
M353.898254,96.291626 
	C356.029663,100.439812 352.543854,108.590523 348.578918,109.621758 
	C345.524078,110.416290 344.081573,108.844070 343.452271,106.302979 
	C342.211884,101.294319 348.619659,94.965851 353.898254,96.291626 
z"/>
<path fill="#23C2A8" opacity="1.000000" stroke="none" 
	d="
M249.851151,277.697723 
	C245.504684,277.026245 241.402893,275.643921 238.201416,272.152252 
	C241.838013,273.413116 245.474594,274.674011 249.480392,275.953918 
	C249.874786,276.434326 249.899963,276.895660 249.851151,277.697723 
z"/>
<path fill="#F0F9F7" opacity="1.000000" stroke="none" 
	d="
M156.754166,152.473190 
	C136.005310,164.830383 115.454765,176.743149 94.947006,188.729126 
	C92.482552,190.169525 91.438461,189.978882 91.373734,186.883438 
	C91.318436,184.238495 92.352623,182.605087 94.649010,181.290665 
	C114.979866,169.653549 135.261887,157.931107 155.906921,146.145599 
	C158.353241,147.834747 158.045441,149.897079 156.754166,152.473190 
z"/>
<path fill="#25C7AC" opacity="1.000000" stroke="none" 
	d="
M193.070114,129.745789 
	C192.963928,126.517441 193.975494,124.161827 196.309448,122.499176 
	C197.535309,121.625900 198.888474,120.856552 200.377853,122.058685 
	C201.662338,123.095436 202.180557,124.478218 201.715195,126.040359 
	C200.822495,129.037216 198.969269,131.431702 196.077225,132.568451 
	C194.348984,133.247757 193.410965,131.797791 193.070114,129.745789 
z"/>
<path fill="#25C7AC" opacity="1.000000" stroke="none" 
	d="
M216.655365,120.772232 
	C212.535294,120.498001 212.634277,117.928535 213.496170,115.430977 
	C214.424194,112.741837 215.955582,110.132690 219.324387,110.237595 
	C221.695511,110.311432 222.151138,112.312454 221.850891,114.251007 
	C221.394684,117.196266 219.771866,119.403053 216.655365,120.772232 
z"/>
<path fill="#25C7AC" opacity="1.000000" stroke="none" 
	d="
M254.340332,91.655426 
	C256.030090,88.651573 257.569580,84.537491 261.243500,86.889999 
	C264.889893,89.224876 261.743896,92.522926 260.171295,95.064972 
	C259.214844,96.611038 257.487061,98.087898 255.606293,97.306389 
	C253.295868,96.346352 254.067734,93.968925 254.340332,91.655426 
z"/>
<path fill="#25C7AC" opacity="1.000000" stroke="none" 
	d="
M233.435349,105.329369 
	C234.077850,103.591919 234.433151,102.096977 235.213074,100.872498 
	C236.429764,98.962334 238.295639,97.617546 240.617310,98.464088 
	C242.582977,99.180840 242.100525,101.266716 241.882935,102.810707 
	C241.453247,105.859528 239.468918,107.924652 236.621811,108.709709 
	C234.499863,109.294815 233.151459,108.101089 233.435349,105.329369 
z"/>
<path fill="#4D6B72" opacity="1.000000" stroke="none" 
	d="
M156.833481,152.776703 
	C156.489929,150.898010 156.436935,148.900513 156.319733,146.480179 
	C157.488312,145.235382 158.641800,144.236053 159.975433,143.639435 
	C161.417206,142.994431 163.219543,140.627762 164.511429,143.011429 
	C165.554245,144.935532 165.498062,147.655655 163.136917,149.220825 
	C161.216873,150.493607 159.134460,151.521439 156.833481,152.776703 
z"/>
<path fill="#25C7AC" opacity="1.000000" stroke="none" 
	d="
M259.423767,67.605110 
	C262.792603,67.916115 261.841003,69.702835 260.868286,71.278664 
	C260.281403,72.229462 259.113312,73.300430 258.083191,72.245384 
	C256.357086,70.477486 257.766846,69.032715 259.423767,67.605110 
z"/>
<path fill="#26D1B4" opacity="1.000000" stroke="none" 
	d="
M271.179932,61.152893 
	C272.364044,60.024609 273.477966,59.462635 274.269348,60.888264 
	C274.895905,62.017044 274.242218,63.147491 273.443909,64.048080 
	C272.737640,64.844818 271.783356,65.391815 270.855438,64.592033 
	C269.716675,63.610546 270.454956,62.481026 271.179932,61.152893 
z"/>
<path fill="#27DBBC" opacity="1.000000" stroke="none" 
	d="
M264.418213,65.441254 
	C265.574371,64.080261 266.882446,63.047646 267.685120,64.850327 
	C268.461395,66.593727 267.251282,68.355644 265.496155,68.571342 
	C263.325989,68.838051 264.096130,66.983505 264.418213,65.441254 
z"/>
<path fill="#2B2B2C" opacity="1.000000" stroke="none" 
	d="
M401.429230,321.115509 
	C394.634796,322.334747 392.326385,320.902435 390.844086,314.399536 
	C388.106293,302.388855 393.170715,292.263794 399.134064,282.548096 
	C402.363434,277.286743 406.688660,272.848846 412.306458,269.956116 
	C417.535919,267.263336 420.549561,268.147278 424.098206,273.569641 
	C427.618103,279.116577 426.508789,284.774567 425.397705,290.219757 
	C423.066864,301.642853 417.658264,311.370392 408.172485,318.477600 
	C406.343994,319.847626 404.326874,321.151123 401.429230,321.115509 
z"/>
<path fill="#37474F" opacity="1.000000" stroke="none" 
	d="
M401.330261,321.359314 
	C415.017273,313.140717 421.805298,300.363220 424.709686,285.084198 
	C425.363708,281.643433 425.192291,278.152954 424.217712,274.324463 
	C428.112183,276.145020 427.913574,280.427612 427.755157,283.672638 
	C427.054474,298.027344 422.281403,310.668182 409.940796,319.298096 
	C407.530151,320.983917 404.927551,322.766724 401.330261,321.359314 
z"/>
<path fill="#D2F7F1" opacity="1.000000" stroke="none" 
	d="
M437.872559,293.574951 
	C449.158417,281.241852 461.767029,271.272827 477.512634,265.730103 
	C462.164154,273.561707 448.243652,283.197021 437.125214,296.891754 
	C437.099518,295.909058 437.419403,294.888123 437.872559,293.574951 
z"/>
<path fill="#7AE7D5" opacity="1.000000" stroke="none" 
	d="
M434.663208,257.680176 
	C434.740936,259.113647 434.530487,260.244659 434.203796,261.707275 
	C433.637665,261.574829 433.187805,261.110809 432.683533,260.404053 
	C432.883759,259.533295 433.138367,258.905243 433.604004,258.137573 
	C434.001678,257.791199 434.188324,257.584442 434.663208,257.680176 
z"/>
<path fill="#2B2E2E" opacity="1.000000" stroke="none" 
	d="
M55.901512,298.734467 
	C55.642338,298.830902 55.292652,298.683746 54.943710,298.242218 
	C55.233303,298.128876 55.522156,298.309875 55.901512,298.734467 
z"/>
<path fill="#D2F7F1" opacity="1.000000" stroke="none" 
	d="
M435.071381,257.646606 
	C434.762146,257.992432 434.572876,258.002197 434.099304,258.005005 
	C436.109436,248.729477 441.187195,241.089539 447.892761,234.386292 
	C442.901672,241.621475 438.087677,248.945572 435.071381,257.646606 
z"/>
<path fill="#D2F7F1" opacity="1.000000" stroke="none" 
	d="
M451.043396,232.596512 
	C450.292236,232.945221 449.358459,233.713974 449.363525,232.832764 
	C449.371124,231.517395 450.640503,230.317902 451.854431,230.638779 
	C452.768127,230.880310 451.861359,231.882507 451.043396,232.596512 
z"/>
<path fill="#23C2A8" opacity="1.000000" stroke="none" 
	d="
M234.790833,270.697662 
	C234.940125,272.416870 234.032761,271.721344 233.386856,271.442169 
	C233.169891,271.348389 232.902481,270.817993 232.984253,270.678802 
	C233.421326,269.934845 234.039764,270.222290 234.790833,270.697662 
z"/>
<path fill="#20B69D" opacity="1.000000" stroke="none" 
	d="
M176.762634,311.145935 
	C176.779648,311.746185 176.539673,312.478394 176.299713,313.210602 
	C176.060303,313.101196 175.820877,312.991791 175.581451,312.882385 
	C175.889511,312.347565 176.197586,311.812744 176.762634,311.145935 
z"/>
<path fill="#20B69D" opacity="1.000000" stroke="none" 
	d="
M173.572433,315.971893 
	C173.851196,315.777557 174.117081,315.760498 174.382980,315.743439 
	C174.373306,315.894318 174.369598,316.175873 174.353043,316.176605 
	C174.089539,316.188690 173.824356,316.164825 173.572433,315.971893 
z"/>
<path fill="#20B69D" opacity="1.000000" stroke="none" 
	d="
M178.786377,308.190186 
	C178.832779,308.556854 178.643890,309.098297 178.210907,309.807892 
	C178.161575,309.439026 178.356339,308.902008 178.786377,308.190186 
z"/>
<path fill="#20B69D" opacity="1.000000" stroke="none" 
	d="
M180.784088,305.191895 
	C180.815292,305.542450 180.627136,306.082367 180.211456,306.805420 
	C180.177551,306.452759 180.371124,305.917023 180.784088,305.191895 
z"/>
<path fill="#20B69D" opacity="1.000000" stroke="none" 
	d="
M182.148956,303.888672 
	C182.060226,303.739105 182.095291,303.467010 182.173691,303.208008 
	C182.191193,303.150208 182.360916,303.138458 182.460571,303.105530 
	C182.403183,303.327301 182.345795,303.549103 182.148956,303.888672 
z"/>
<path fill="#23C2A8" opacity="1.000000" stroke="none" 
	d="
M148.870239,266.547394 
	C148.828140,266.464935 149.185059,266.440460 149.185059,266.440460 
	C149.185059,266.440460 148.912354,266.629852 148.870239,266.547394 
z"/>
<path fill="#23C2A8" opacity="1.000000" stroke="none" 
	d="
M152.869995,267.833649 
	C152.661179,267.846008 152.371094,267.672882 152.081009,267.499756 
	C152.316910,267.549225 152.552811,267.598694 152.869995,267.833649 
z"/>
<path fill="#20B69D" opacity="1.000000" stroke="none" 
	d="
M153.008667,267.967346 
	C153.313782,268.124817 153.606781,268.306000 153.899796,268.487213 
	C153.665024,268.428680 153.430267,268.370148 153.073380,268.165375 
	C152.951263,268.019135 152.996552,267.991058 153.008667,267.967346 
z"/>
<path fill="#23C2A8" opacity="1.000000" stroke="none" 
	d="
M230.155792,269.445709 
	C230.198044,269.526611 229.847290,269.552582 229.847290,269.552582 
	C229.847290,269.552582 230.113525,269.364807 230.155792,269.445709 
z"/>
<path fill="#20B69D" opacity="1.000000" stroke="none" 
	d="
M176.994965,310.992340 
	C177.131332,310.695282 177.324829,310.445984 177.767883,310.105957 
	C177.966827,309.976013 177.997223,310.000122 178.009949,310.015350 
	C177.876877,310.318878 177.678894,310.565247 177.224182,310.891846 
	C177.019623,311.013977 177.001480,311.000824 176.994965,310.992340 
z"/>
<path fill="#20B69D" opacity="1.000000" stroke="none" 
	d="
M178.993637,307.990326 
	C179.130005,307.690674 179.327026,307.443115 179.780548,307.113159 
	C179.983978,306.988495 179.999268,306.999664 180.004852,307.007141 
	C179.869644,307.306122 179.674774,307.555298 179.223785,307.888794 
	C179.021683,308.015381 179.001266,308.000183 178.993637,307.990326 
z"/>
<path fill="#20B69D" opacity="1.000000" stroke="none" 
	d="
M180.998871,304.998383 
	C181.141113,304.703461 181.340240,304.454803 181.802338,304.128662 
	C182.009537,304.006500 182.000229,304.000000 181.997162,303.995667 
	C181.851715,304.283722 181.656754,304.535339 181.206329,304.874359 
	C181.003448,305.002502 181.000000,305.000000 180.998871,304.998383 
z"/>
<path fill="#27DDBF" opacity="1.000000" stroke="none" 
	d="
M140.897675,364.117249 
	C140.880722,364.225647 140.648407,364.469940 140.208038,364.857117 
	C140.227448,364.751038 140.454880,364.502075 140.897675,364.117249 
z"/>
<path fill="#27DBBC" opacity="1.000000" stroke="none" 
	d="
M301.166382,173.707275 
	C298.109497,167.486557 301.434784,158.750336 307.380798,156.390778 
	C311.074402,154.925049 313.614349,156.483688 313.986176,160.444168 
	C314.695709,168.002335 308.050568,175.158325 301.166382,173.707275 
z"/>
<path fill="#D7D7D7" opacity="1.000000" stroke="none" 
	d="
M270.085022,297.025177 
	C270.362854,297.434875 270.464996,297.590088 270.464020,297.744629 
	C270.450409,299.902924 269.792053,301.652100 267.350769,301.942719 
	C266.675629,302.023102 266.107086,301.347076 266.158844,300.642456 
	C266.325226,298.376404 266.838959,296.346039 270.085022,297.025177 
z"/>
<path fill="#D7D7D7" opacity="1.000000" stroke="none" 
	d="
M288.816559,289.660980 
	C287.662140,290.595551 286.606934,291.610107 285.767059,290.030396 
	C284.964691,288.521271 285.744171,287.154633 286.865723,286.086823 
	C287.413910,285.564880 288.112640,284.824951 288.990601,285.481201 
	C290.653931,286.724457 289.740021,288.073669 288.816559,289.660980 
z"/>
<path fill="#E8E8E8" opacity="1.000000" stroke="none" 
	d="
M295.065857,281.798096 
	C296.954773,283.970886 295.891724,285.487518 294.184692,286.719818 
	C293.500366,287.213806 292.372955,287.154663 292.169556,286.227264 
	C291.702545,284.098175 292.352722,282.380676 295.065857,281.798096 
z"/>
<path fill="#E8E8E8" opacity="1.000000" stroke="none" 
	d="
M306.007935,275.184509 
	C307.291229,274.223633 308.361755,273.626587 308.910370,275.367096 
	C309.354950,276.777557 308.687378,277.937286 307.686188,278.866516 
	C307.096832,279.413544 306.147034,280.050751 305.532440,279.423401 
	C304.297150,278.162506 304.782928,276.733917 306.007935,275.184509 
z"/>
<path fill="#D7D7D7" opacity="1.000000" stroke="none" 
	d="
M302.201538,281.364014 
	C301.218597,282.737091 300.329376,283.932861 298.874634,282.938568 
	C297.660858,282.108948 298.253998,280.900360 298.800964,279.890411 
	C299.436157,278.717438 300.231201,277.520325 301.805725,278.160919 
	C303.234894,278.742340 302.920166,279.912476 302.201538,281.364014 
z"/>
<path fill="#E8E8E8" opacity="1.000000" stroke="none" 
	d="
M280.240234,290.083679 
	C281.290009,289.209442 282.279175,288.444122 282.919586,289.681458 
	C283.659576,291.111206 283.167816,292.555389 281.968414,293.668640 
	C281.343353,294.248810 280.480225,294.762451 279.779175,294.206451 
	C278.173798,292.933228 279.189026,291.607208 280.240234,290.083679 
z"/>
<path fill="#E8E8E8" opacity="1.000000" stroke="none" 
	d="
M276.923218,294.868347 
	C276.117737,296.737579 275.450623,298.807800 273.378174,297.801666 
	C271.968964,297.117462 272.614502,295.307373 273.442383,294.277802 
	C274.538513,292.914551 275.964874,291.611938 276.923218,294.868347 
z"/>
<path fill="#D7D7D7" opacity="1.000000" stroke="none" 
	d="
M288.172241,304.129700 
	C291.188202,305.719208 289.618652,307.338715 288.384216,308.814880 
	C287.739807,309.585449 286.497437,310.043457 285.915558,308.939362 
	C284.784027,306.792328 286.054016,305.325806 288.172241,304.129700 
z"/>
<path fill="#D7D7D7" opacity="1.000000" stroke="none" 
	d="
M267.123688,320.686768 
	C265.970184,319.747559 265.893768,318.786652 266.347382,317.826721 
	C266.908752,316.638824 267.512115,315.373749 269.055969,315.270874 
	C269.429993,315.246002 270.001251,315.640900 270.201477,315.999390 
	C270.958069,317.353912 270.325745,318.595612 269.494080,319.612122 
	C269.021271,320.190033 268.144928,320.437805 267.123688,320.686768 
z"/>
<path fill="#E8E8E8" opacity="1.000000" stroke="none" 
	d="
M307.226379,293.110504 
	C310.415680,294.477264 308.888855,296.170563 307.707245,297.638367 
	C307.105347,298.386017 305.728729,298.794647 305.191803,297.755493 
	C304.205811,295.847076 305.276794,294.353058 307.226379,293.110504 
z"/>
<path fill="#D7D7D7" opacity="1.000000" stroke="none" 
	d="
M299.170593,298.021484 
	C300.477783,296.668091 301.785675,296.207306 302.598694,297.725586 
	C303.261505,298.963440 302.326996,300.208771 301.472626,301.205109 
	C300.799591,301.990021 299.883667,302.515778 298.935150,301.795441 
	C297.509491,300.712738 298.433105,299.492859 299.170593,298.021484 
z"/>
<path fill="#E8E8E8" opacity="1.000000" stroke="none" 
	d="
M296.046814,301.547852 
	C296.129822,302.226959 296.189850,302.578888 296.080353,302.866241 
	C295.497559,304.395477 294.881622,306.065033 292.803040,305.672974 
	C291.941437,305.510468 291.772064,304.364197 292.031982,303.619690 
	C292.656982,301.829376 293.243073,299.730408 296.046814,301.547852 
z"/>
<path fill="#E8E8E8" opacity="1.000000" stroke="none" 
	d="
M276.342133,315.200195 
	C275.391266,316.447052 274.471466,317.542114 273.345795,316.673615 
	C272.127777,315.733856 272.670868,314.295258 273.362030,313.147461 
	C273.866394,312.309845 274.651917,311.479462 275.681519,311.739349 
	C277.557404,312.212921 277.004089,313.596527 276.342133,315.200195 
z"/>
<path fill="#F0F9F7" opacity="1.000000" stroke="none" 
	d="
M279.441406,312.683777 
	C279.117737,312.081268 279.002380,311.734833 279.079285,311.438263 
	C279.498474,309.821106 280.064270,308.261444 282.041565,308.045135 
	C282.878052,307.953644 283.123901,308.673981 283.105255,309.343170 
	C283.044922,311.510284 282.502869,313.286163 279.441406,312.683777 
z"/>
<path fill="#F0F9F7" opacity="1.000000" stroke="none" 
	d="
M307.408478,245.883026 
	C309.060272,246.510696 309.829102,245.681549 310.747864,245.421936 
	C312.118622,245.034637 313.704865,242.513077 314.850128,244.900070 
	C315.697662,246.666473 316.003052,249.452484 313.871124,250.851761 
	C309.708618,253.583801 305.326721,255.985657 300.997192,258.456787 
	C299.491089,259.316406 298.925140,258.478485 298.836792,257.000580 
	C298.694977,254.628098 298.641327,252.305450 301.066284,250.109146 
	C301.595612,248.749466 302.358459,248.480087 303.149475,247.794525 
	C303.471497,247.439713 303.590363,247.286942 303.919922,246.930344 
	C304.287811,246.607941 304.444977,246.489395 304.859070,246.222534 
	C305.299805,245.999832 305.483582,245.925430 305.957703,245.788483 
	C306.445099,245.728378 306.642120,245.730820 307.408478,245.883026 
z"/>
<path fill="#DFF7F3" opacity="1.000000" stroke="none" 
	d="
M300.996429,249.998444 
	C298.897034,249.423889 297.949249,248.314331 300.240814,246.880020 
	C304.799042,244.026978 309.507111,241.413345 314.604370,239.273422 
	C313.873688,242.868362 310.178375,243.273270 308.034912,245.688828 
	C307.977783,246.032806 308.002167,245.974838 308.030945,245.987732 
	C307.589478,246.407822 306.987030,246.489243 306.194275,246.856415 
	C305.965637,247.047699 305.978180,246.969727 306.017303,246.974960 
	C305.804291,247.204712 305.560181,247.437637 305.157654,247.869720 
	C304.991241,248.060486 304.997009,247.996124 305.028259,248.004425 
	C303.993439,248.843353 302.632416,249.011505 301.218811,249.832825 
	C300.973114,250.052216 300.967712,249.993958 300.996429,249.998444 
z"/>
<path fill="#F0F9F7" opacity="1.000000" stroke="none" 
	d="
M278.418549,263.021362 
	C280.228516,263.380157 282.165161,261.637512 282.674835,264.029205 
	C283.124054,266.137482 283.309937,268.531433 281.149628,269.879272 
	C277.086090,272.414581 272.885681,274.732117 268.717743,277.097107 
	C267.896820,277.562927 266.616608,278.229736 266.358917,276.755737 
	C266.000122,274.703400 265.433105,272.352020 267.334351,270.700806 
	C268.690399,269.523102 270.340424,268.683929 271.930969,267.086426 
	C272.040375,266.301971 272.078125,266.124786 272.241577,265.703217 
	C272.483856,265.315674 272.600494,265.172485 272.925720,264.845825 
	C273.444794,264.457275 273.755554,264.252716 274.313904,263.910339 
	C274.739197,263.708466 274.917297,263.644958 275.374573,263.537323 
	C276.400665,263.385773 277.111145,263.118378 278.418549,263.021362 
z"/>
<path fill="#DFF7F3" opacity="1.000000" stroke="none" 
	d="
M272.009949,267.009552 
	C269.965302,265.853638 268.664032,269.040100 265.810791,267.668396 
	C270.651703,262.981812 276.330078,260.617401 282.037689,257.579773 
	C282.415405,260.789734 279.850891,260.892487 278.956177,262.679749 
	C278.983337,263.050751 279.000244,262.988739 279.030304,263.000183 
	C277.994080,263.840668 276.631500,264.009796 275.217896,264.837769 
	C274.966827,265.051117 274.985718,264.975281 275.023804,264.983948 
	C274.596436,265.414429 273.988129,265.487915 273.190948,265.855042 
	C272.959717,266.045380 272.973267,265.962891 273.014709,265.968384 
	C272.807800,266.204010 272.559814,266.434540 272.152557,266.862976 
	C271.992828,267.060394 271.981689,267.002991 272.009949,267.009552 
z"/>
<path fill="#F0F9F7" opacity="1.000000" stroke="none" 
	d="
M342.362366,226.034561 
	C344.534851,226.910049 346.570831,223.307343 347.602448,226.251221 
	C348.426239,228.601898 348.214874,231.252731 345.507599,232.803329 
	C342.188873,234.704117 338.920044,236.695175 335.559784,238.518448 
	C334.360382,239.169250 332.928070,240.940262 331.680969,239.435165 
	C330.912109,238.507233 331.177643,236.586777 331.257080,235.127090 
	C331.348022,233.456024 332.899506,232.734421 334.045105,231.068054 
	C334.279816,230.048355 334.485474,229.712875 334.936035,229.183899 
	C335.297241,228.840500 335.452332,228.713943 335.858337,228.423187 
	C336.630035,227.971664 337.183746,227.740585 337.893677,227.170624 
	C338.322601,226.887573 338.506989,226.792358 338.992950,226.617767 
	C340.123535,226.435211 340.923370,226.195358 342.362366,226.034561 
z"/>
<path fill="#DFF7F3" opacity="1.000000" stroke="none" 
	d="
M333.991882,230.991898 
	C332.775208,230.595261 329.380402,230.778915 332.277435,228.580902 
	C336.770020,225.172256 341.991272,222.723969 347.622559,219.450623 
	C347.329071,223.612488 344.201233,223.615738 342.947327,225.697815 
	C342.988312,226.051819 343.000397,225.990463 343.029572,226.001892 
	C341.992615,226.841690 340.630219,227.009796 339.216461,227.836945 
	C338.964661,228.049271 338.981934,227.971970 339.020782,227.979675 
	C338.206177,228.567474 337.333832,229.118011 336.217072,229.855164 
	C335.983032,230.058060 335.994995,229.992050 336.027405,230.000671 
	C335.587860,230.421936 334.982025,230.489655 334.191162,230.850525 
	C333.970642,231.052277 333.961761,230.992386 333.991882,230.991898 
z"/>
<path fill="#161717" opacity="1.000000" stroke="none" 
	d="
M262.248657,153.873810 
	C262.564636,153.097885 263.394867,152.514206 264.527466,151.863602 
	C265.122131,151.716568 265.414337,151.636459 265.503662,151.963043 
	C264.454803,152.935181 263.608826,153.500626 262.248657,153.873810 
z"/>
<path fill="#161717" opacity="1.000000" stroke="none" 
	d="
M264.470795,147.937286 
	C263.770844,148.846725 263.146301,149.715073 262.484009,149.094254 
	C261.897247,148.544235 262.774384,148.165833 263.522888,147.813232 
	C264.068970,147.669907 264.359192,147.597885 264.470795,147.937286 
z"/>
<path fill="#161717" opacity="1.000000" stroke="none" 
	d="
M267.425293,150.899231 
	C266.775543,151.585388 266.302155,151.884781 265.564819,152.276978 
	C265.300812,152.369751 265.068420,152.083069 264.949158,151.939880 
	C265.295288,151.484283 265.760712,151.171906 266.504578,150.800720 
	C267.055939,150.665421 267.328827,150.588943 267.425293,150.899231 
z"/>
<path fill="#161717" opacity="1.000000" stroke="none" 
	d="
M266.899750,150.877716 
	C267.242706,150.379608 267.671844,149.773163 268.267059,150.525574 
	C268.288483,150.552628 267.882599,150.917709 267.462372,151.205627 
	C267.248901,151.285995 267.016449,151.013550 266.899750,150.877716 
z"/>
<path fill="#161717" opacity="1.000000" stroke="none" 
	d="
M258.871704,150.846527 
	C259.220612,150.354950 259.669739,149.769882 260.258240,150.504440 
	C260.280701,150.532486 259.877411,150.901657 259.460632,151.197083 
	C259.248749,151.282288 258.997589,150.991623 258.871704,150.846527 
z"/>
<path fill="#161717" opacity="1.000000" stroke="none" 
	d="
M262.049988,154.063354 
	C261.696777,154.498581 261.237671,154.807175 260.514465,155.203323 
	C260.250427,155.290878 260.019257,155.018555 259.901123,154.880905 
	C260.256256,154.445938 260.729553,154.148605 261.468658,153.766418 
	C261.734436,153.681564 261.944031,153.936722 262.049988,154.063354 
z"/>
<path fill="#161717" opacity="1.000000" stroke="none" 
	d="
M266.378387,146.867920 
	C265.749298,147.545578 265.282471,147.849777 264.553925,148.251343 
	C264.292206,148.348709 264.038666,148.045944 263.908722,147.893951 
	C264.251709,147.436066 264.724640,147.130188 265.476746,146.768372 
	C266.017517,146.639755 266.279053,146.567093 266.378387,146.867920 
z"/>
<path fill="#161717" opacity="1.000000" stroke="none" 
	d="
M265.870941,146.844696 
	C266.223297,146.357971 266.658752,145.751877 267.255310,146.503067 
	C267.272400,146.524567 266.860443,146.886826 266.432343,147.165802 
	C266.216156,147.241394 265.985931,146.976990 265.870941,146.844696 
z"/>
<path fill="#161717" opacity="1.000000" stroke="none" 
	d="
M347.995117,105.274445 
	C346.159454,102.565201 347.427887,100.835739 349.572998,99.496628 
	C350.348816,99.012329 351.377106,99.298035 351.584991,100.184647 
	C352.227386,102.924011 350.666687,104.434601 347.995117,105.274445 
z"/>
<path fill="#2DD5B9" opacity="1.000000" stroke="none" 
	d="
M301.304688,250.211838 
	C301.467499,248.316513 303.073547,248.140091 304.738647,247.804596 
	C304.402313,249.501266 302.984863,249.886444 301.304688,250.211838 
z"/>
<path fill="#2DD5B9" opacity="1.000000" stroke="none" 
	d="
M306.275757,247.280899 
	C306.107086,246.243591 306.739899,246.016251 307.731018,245.912201 
	C308.036102,246.960510 307.293457,247.220215 306.275757,247.280899 
z"/>
<path fill="#2DD5B9" opacity="1.000000" stroke="none" 
	d="
M305.331299,248.053528 
	C305.123627,247.708755 305.256012,247.357025 305.722412,246.992737 
	C305.928070,247.335648 305.799744,247.691101 305.331299,248.053528 
z"/>
<path fill="#2BD6B9" opacity="1.000000" stroke="none" 
	d="
M275.299377,265.210938 
	C275.485626,263.343689 277.066742,263.130737 278.739990,262.804169 
	C278.428131,264.540039 276.973145,264.872681 275.299377,265.210938 
z"/>
<path fill="#2BD6B9" opacity="1.000000" stroke="none" 
	d="
M273.270569,266.286133 
	C273.441254,265.651794 273.922791,265.258240 274.733124,264.928650 
	C275.045959,265.964813 274.321930,266.253815 273.270569,266.286133 
z"/>
<path fill="#2BD6B9" opacity="1.000000" stroke="none" 
	d="
M272.335571,267.053589 
	C272.126831,266.714783 272.260834,266.369141 272.725494,265.998718 
	C272.930206,266.331512 272.804230,266.689148 272.335571,267.053589 
z"/>
<path fill="#2BD6B9" opacity="1.000000" stroke="none" 
	d="
M339.289093,228.239410 
	C339.538849,226.416534 341.094482,226.171265 342.740417,225.808472 
	C342.478363,227.628677 340.937500,227.874481 339.289093,228.239410 
z"/>
<path fill="#2BD6B9" opacity="1.000000" stroke="none" 
	d="
M336.336395,230.115112 
	C336.003479,228.491577 337.288452,228.322083 338.707245,227.949265 
	C339.104401,229.621094 337.724457,229.709396 336.336395,230.115112 
z"/>
<path fill="#2BD6B9" opacity="1.000000" stroke="none" 
	d="
M334.295319,231.195618 
	C334.038849,230.161377 334.715302,229.906357 335.736176,229.841141 
	C335.965790,230.870361 335.273621,231.083801 334.295319,231.195618 
z"/>
</svg>