    <svg width="356" height="356" viewBox="0 0 356 356" fill="none" xmlns="http://www.w3.org/2000/svg">
<path d="M332.426 225.134H215.736V157.608H332.426V225.134ZM216.448 224.422H331.714V158.32H216.448V224.422Z" fill="#E0E0E0"/>
<path d="M308.353 193.614H231.365V195.871H308.353V193.614Z" fill="#F0F0F0"/>
<path d="M313.657 202.03H231.365V204.494H313.657V202.03Z" fill="#F0F0F0"/>
<path d="M313.657 210.546H231.365V213.009H313.657V210.546Z" fill="#F0F0F0"/>
<path d="M258.271 181.389H231.365V187.249H258.271V181.389Z" fill="#F0F0F0"/>
<path d="M332.07 157.964H216.113V168.715H332.07V157.964Z" fill="#E0E0E0"/>
<path d="M323.148 167.106C322.999 166.964 324.494 165.163 326.481 163.084C328.467 161.005 330.211 159.431 330.354 159.566C330.496 159.702 329.008 161.51 327.022 163.596C325.035 165.682 323.291 167.249 323.148 167.106Z" fill="white"/>
<path d="M330.368 167.106C330.226 167.249 328.488 165.682 326.495 163.596C324.501 161.51 323.013 159.709 323.163 159.566C323.312 159.424 325.042 160.99 327.036 163.084C329.03 165.177 330.503 166.964 330.368 167.106Z" fill="white"/>
<path d="M188.837 24.2436H72.8804V91.0648H188.837V24.2436Z" fill="#E6E6E6"/>
<path d="M165.127 59.9006H88.1385V62.1576H165.127V59.9006Z" fill="#F0F0F0"/>
<path d="M170.432 68.3164H88.1385V70.7799H170.432V68.3164Z" fill="#F0F0F0"/>
<path d="M170.432 76.8319H88.1385V79.2954H170.432V76.8319Z" fill="#F0F0F0"/>
<path d="M115.045 47.6755H88.1385V53.5353H115.045V47.6755Z" fill="#F0F0F0"/>
<path d="M188.837 24.2436H72.8804V34.9948H188.837V24.2436Z" fill="#E0E0E0"/>
<path d="M179.524 33.3359C179.374 33.2006 180.869 31.3921 182.856 29.3131C184.842 27.234 186.587 25.6605 186.729 25.8029C186.872 25.9453 185.383 27.7467 183.397 29.8257C181.411 31.9047 179.666 33.464 179.524 33.3359Z" fill="white"/>
<path d="M186.729 33.3358C186.587 33.4782 184.85 31.9118 182.856 29.8257C180.862 27.7395 179.374 25.9453 179.524 25.8029C179.673 25.6605 181.403 27.2269 183.397 29.313C185.391 31.3992 186.879 33.2006 186.729 33.3358Z" fill="white"/>
<path d="M144.921 148.374H28.2522V80.8405H144.921V148.374ZM28.9642 147.662H144.208V81.5525H28.9642V147.662Z" fill="#E0E0E0"/>
<path d="M120.855 116.853H43.8663V119.11H120.855V116.853Z" fill="#F0F0F0"/>
<path d="M126.159 125.269H43.8663V127.733H126.159V125.269Z" fill="#F0F0F0"/>
<path d="M126.159 133.785H43.8663V136.248H126.159V133.785Z" fill="#F0F0F0"/>
<path d="M70.7728 104.628H43.8663V110.488H70.7728V104.628Z" fill="#F0F0F0"/>
<path d="M144.564 81.1965H28.6082V91.9477H144.564V81.1965Z" fill="#E0E0E0"/>
<path d="M279.567 163.845H142.649V286.423H279.567V163.845Z" fill="#E6E6E6"/>
<path d="M149.534 125.234H42.2786V236.669H149.534V125.234Z" fill="#F0F0F0"/>
<path d="M149.534 125.234H42.2786V137.373H149.534V125.234Z" fill="#E0E0E0"/>
<path d="M51.1359 131.179C51.1164 131.619 50.968 132.044 50.7093 132.401C50.4505 132.757 50.0926 133.03 49.6802 133.185C49.2677 133.34 48.8188 133.371 48.3891 133.273C47.9595 133.175 47.568 132.954 47.2632 132.635C46.9584 132.317 46.7538 131.916 46.6748 131.483C46.5958 131.049 46.6458 130.602 46.8186 130.197C46.9914 129.791 47.2795 129.446 47.647 129.203C48.0145 128.96 48.4454 128.83 48.886 128.829C49.4954 128.844 50.0741 129.1 50.4956 129.54C50.9172 129.98 51.1474 130.569 51.1359 131.179Z" fill="white"/>
<path d="M60.2709 131.179C60.2527 131.621 60.1049 132.048 59.8458 132.407C59.5867 132.766 59.2278 133.041 58.8137 133.198C58.3996 133.354 57.9486 133.385 57.5169 133.288C57.0851 133.19 56.6917 132.967 56.3855 132.647C56.0794 132.328 55.874 131.925 55.7949 131.489C55.7159 131.054 55.7667 130.605 55.941 130.198C56.1153 129.791 56.4054 129.444 56.7752 129.201C57.145 128.957 57.5782 128.828 58.0209 128.829C58.6303 128.844 59.209 129.1 59.6305 129.54C60.0521 129.98 60.2823 130.569 60.2709 131.179Z" fill="white"/>
<path d="M69.4057 131.179C69.3876 131.621 69.2398 132.048 68.9807 132.407C68.7216 132.766 68.3626 133.041 67.9485 133.198C67.5345 133.354 67.0835 133.385 66.6518 133.288C66.22 133.19 65.8266 132.967 65.5204 132.647C65.2143 132.328 65.0089 131.925 64.9298 131.489C64.8508 131.054 64.9016 130.605 65.0759 130.198C65.2502 129.791 65.5403 129.444 65.9101 129.201C66.2799 128.957 66.7131 128.828 67.1558 128.829C67.7652 128.844 68.3439 129.1 68.7654 129.54C69.187 129.98 69.4172 130.569 69.4057 131.179Z" fill="white"/>
<path d="M317.111 48.6154H180.193V185.077H317.111V48.6154Z" fill="#F0F0F0"/>
<path d="M317.111 48.6154H180.193V64.5998H317.111V48.6154Z" fill="#E0E0E0"/>
<path d="M191.856 56.4474C191.83 57.0285 191.635 57.5894 191.294 58.0605C190.953 58.5316 190.481 58.8921 189.937 59.0973C189.393 59.3025 188.8 59.3434 188.233 59.2147C187.665 59.0861 187.149 58.7937 186.746 58.3738C186.344 57.9539 186.073 57.4251 185.969 56.8529C185.864 56.2807 185.93 55.6905 186.158 55.1554C186.386 54.6203 186.766 54.1639 187.251 53.843C187.736 53.5221 188.305 53.3507 188.887 53.3502C189.69 53.3688 190.454 53.7052 191.011 54.2857C191.567 54.8662 191.871 55.6434 191.856 56.4474Z" fill="white"/>
<path d="M203.013 54.3541C203.407 54.7827 203.667 55.318 203.76 55.8933C203.852 56.4686 203.774 57.0585 203.534 57.5894C203.293 58.1202 202.902 58.5687 202.409 58.8788C201.915 59.189 201.342 59.3471 200.759 59.3335C200.177 59.3199 199.611 59.1352 199.133 58.8024C198.654 58.4696 198.285 58.0034 198.069 57.4619C197.854 56.9204 197.803 56.3275 197.922 55.7571C198.042 55.1868 198.326 54.6642 198.741 54.2544C199.321 53.7022 200.096 53.4026 200.897 53.4213C201.698 53.44 202.459 53.7754 203.013 54.3541Z" fill="white"/>
<path d="M215.907 56.4474C215.882 57.0285 215.687 57.5894 215.345 58.0605C215.004 58.5316 214.532 58.8921 213.988 59.0973C213.444 59.3025 212.851 59.3434 212.284 59.2147C211.717 59.0861 211.2 58.7937 210.797 58.3738C210.395 57.9539 210.124 57.4251 210.02 56.8529C209.915 56.2807 209.981 55.6905 210.209 55.1554C210.437 54.6203 210.817 54.1639 211.302 53.843C211.788 53.5221 212.356 53.3507 212.938 53.3502C213.742 53.3688 214.505 53.7052 215.062 54.2857C215.618 54.8662 215.922 55.6434 215.907 56.4474Z" fill="white"/>
<path d="M287.534 322.628C287.534 322.728 238.093 322.814 177.124 322.814C116.156 322.814 66.693 322.728 66.693 322.628C66.693 322.529 116.127 322.443 177.124 322.443C238.121 322.443 287.534 322.536 287.534 322.628Z" fill="#263238"/>
<path d="M239.36 235.465C228.36 227.783 225.868 213.522 226.302 200.699C226.373 198.563 226.138 196.298 227.156 194.426C228.175 192.553 230.553 191.265 232.468 192.162C234.056 192.909 234.746 194.76 235.636 196.291C236.824 198.33 238.564 199.991 240.656 201.083C242.016 201.795 243.703 202.222 245.049 201.482C246.9 200.464 247.114 197.922 247.1 195.786C247.1 191.813 247.076 187.845 247.028 183.881C246.9 181.753 247.117 179.618 247.669 177.559C248.331 175.536 249.805 173.664 251.82 173.094C253.835 172.525 256.348 173.699 256.804 175.779C256.883 176.659 256.904 177.544 256.868 178.427C256.925 179.317 257.338 180.293 258.171 180.563C259.004 180.834 259.873 180.214 260.514 179.588C262.707 177.452 264.202 174.668 265.59 171.919C266.979 169.171 268.338 166.345 270.332 164.002C272.326 161.66 275.081 159.801 278.164 159.623C281.247 159.445 284.458 161.339 285.227 164.33C285.996 167.32 284.252 170.374 282.379 172.802C279.553 176.406 276.223 179.584 272.489 182.236C271.761 182.634 271.179 183.256 270.83 184.009C270.368 185.433 271.713 186.857 273.116 187.306C274.704 187.833 276.427 187.669 278.1 187.868C279.773 188.068 281.553 188.794 282.187 190.36C283.056 192.539 281.233 194.817 279.446 196.313C275.857 199.303 271.782 201.656 267.399 203.269C265.832 203.838 264.188 204.344 262.92 205.44C261.653 206.537 260.898 208.452 261.66 209.955C262.422 211.457 264.38 211.934 266.024 211.628C267.669 211.322 269.129 210.439 270.695 209.848C273.622 208.744 277.395 208.943 279.239 211.471C279.811 212.342 280.172 213.333 280.296 214.367C280.419 215.401 280.301 216.45 279.951 217.431C279.239 219.382 278.142 221.172 276.726 222.692C272.063 228.264 266.003 232.497 259.168 234.96C252.383 237.31 246.096 237.95 239.353 235.48" fill="#019934"/>
<path d="M282.094 161.382C282.094 161.382 282.03 161.453 281.888 161.581L281.254 162.144C280.699 162.642 279.88 163.368 278.848 164.33C275.92 167.047 273.202 169.982 270.717 173.109C269.129 175.081 267.484 177.316 265.733 179.744C263.981 182.172 262.173 184.792 260.378 187.576C258.465 190.512 256.714 193.55 255.131 196.676C254.305 198.306 253.579 200.008 252.831 201.745L250.624 207.05C247.714 213.731 245.181 220.57 243.034 227.534C241.305 233.232 240.113 239.079 239.474 244.999C239.06 248.994 238.993 253.018 239.275 257.025C239.389 258.449 239.495 259.538 239.595 260.279C239.638 260.635 239.666 260.919 239.695 261.126V261.418C239.664 261.325 239.643 261.23 239.631 261.133C239.595 260.927 239.552 260.649 239.495 260.293C239.367 259.581 239.232 258.456 239.104 257.032C238.76 253.018 238.784 248.981 239.175 244.971C239.774 239.025 240.94 233.151 242.657 227.427C244.785 220.443 247.312 213.587 250.225 206.893L252.489 201.61C253.237 199.88 253.97 198.164 254.803 196.526C256.397 193.391 258.163 190.346 260.093 187.405C261.916 184.557 263.753 181.98 265.483 179.573C267.213 177.167 268.887 174.917 270.467 172.952C272.978 169.834 275.733 166.92 278.705 164.237C279.759 163.29 280.599 162.578 281.169 162.101L281.831 161.567C281.912 161.496 282 161.434 282.094 161.382Z" fill="#263238"/>
<path d="M254.896 196.512C254.795 196.219 254.726 195.916 254.689 195.608C254.576 195.017 254.447 194.184 254.298 193.101C253.992 190.965 253.678 188.039 253.344 184.8C253.009 181.56 252.632 178.627 252.318 176.512C252.155 175.458 252.012 174.611 251.913 174.02C251.835 173.717 251.794 173.407 251.792 173.094C251.914 173.38 252.003 173.678 252.055 173.984C252.212 174.568 252.39 175.408 252.589 176.469C252.995 178.605 253.394 181.51 253.728 184.757C254.063 188.004 254.348 190.852 254.568 193.066C254.675 194.063 254.768 194.91 254.839 195.586C254.894 195.892 254.913 196.202 254.896 196.512Z" fill="#263238"/>
<path d="M282.294 191.4C281.947 191.475 281.594 191.518 281.24 191.528C280.528 191.592 279.517 191.678 278.264 191.82C275.758 192.09 272.311 192.589 268.531 193.301C264.75 194.013 261.354 194.817 258.912 195.437C257.694 195.75 256.712 196.035 256.064 196.227C255.718 196.35 255.36 196.436 254.996 196.484C255.325 196.318 255.668 196.182 256.021 196.078C256.69 195.843 257.658 195.515 258.869 195.166C261.297 194.454 264.693 193.607 268.488 192.881C271.703 192.266 274.946 191.815 278.207 191.528C279.467 191.421 280.485 191.378 281.197 191.364C281.563 191.339 281.93 191.351 282.294 191.4Z" fill="#263238"/>
<path d="M243.006 226.929C242.93 226.826 242.867 226.713 242.82 226.594L242.351 225.604C241.945 224.743 241.396 223.468 240.741 221.909C239.417 218.776 237.73 214.39 235.935 209.52C234.141 204.65 232.489 200.264 231.236 197.096C230.624 195.558 230.118 194.298 229.741 193.358L229.342 192.34C229.287 192.222 229.249 192.098 229.228 191.969C229.304 192.072 229.367 192.185 229.413 192.304L229.883 193.294C230.282 194.155 230.838 195.43 231.493 196.989C232.817 200.122 234.504 204.508 236.299 209.378C238.093 214.248 239.745 218.634 240.998 221.802C241.61 223.34 242.116 224.6 242.486 225.54C242.65 225.946 242.785 226.252 242.892 226.558C242.947 226.676 242.985 226.8 243.006 226.929Z" fill="#263238"/>
<path d="M279.374 215.202C279.26 215.267 279.138 215.318 279.011 215.351L277.958 215.707L274.063 216.968C270.774 218.036 266.231 219.559 261.247 221.24C256.263 222.92 251.699 224.415 248.388 225.412C246.736 225.918 245.391 226.302 244.458 226.558L243.383 226.836C243.258 226.876 243.129 226.902 242.998 226.914C243.112 226.849 243.234 226.799 243.362 226.765L244.415 226.409L248.31 225.149C251.599 224.081 256.142 222.557 261.126 220.877C266.11 219.196 270.667 217.701 273.978 216.704C275.636 216.199 276.975 215.814 277.915 215.558L278.99 215.28C279.115 215.241 279.244 215.214 279.374 215.202Z" fill="#263238"/>
<path d="M264.536 42.4921L260.87 43.8022L259.296 39.0105C256.405 30.1745 247.192 25.4825 238.726 28.4657C230.261 31.449 225.754 41.1393 228.645 49.9753L230.218 54.767L226.537 56.0842C225.133 56.6286 223.993 57.6931 223.354 59.0562C222.715 60.4193 222.626 61.9763 223.105 63.4036L233.308 94.5821C233.52 95.2886 233.872 95.9453 234.342 96.5133C234.813 97.0812 235.393 97.5488 236.048 97.8882C236.702 98.2276 237.419 98.4319 238.154 98.489C238.89 98.546 239.629 98.4547 240.328 98.2204L278.328 84.6283C279.75 84.0848 280.906 83.011 281.553 81.6326C282.199 80.2543 282.286 78.6789 281.795 77.2377L271.585 46.0593C271.368 45.3547 271.011 44.7011 270.536 44.1376C270.06 43.574 269.476 43.112 268.818 42.779C268.16 42.4461 267.442 42.2491 266.707 42.1998C265.971 42.1506 265.233 42.25 264.536 42.4921ZM235.572 47.4761C234.793 45.1787 234.933 42.6687 235.963 40.4721C236.993 38.2755 238.833 36.5627 241.097 35.6925C242.216 35.3099 243.4 35.1565 244.578 35.2414C245.757 35.3263 246.907 35.6478 247.959 36.1867C249.011 36.7256 249.943 37.4709 250.701 38.3781C251.458 39.2852 252.026 40.3357 252.368 41.4669L253.935 46.2586L237.139 52.2679L235.572 47.4761ZM256.932 75.1445L259.538 83.1046C259.586 83.2642 259.571 83.4361 259.495 83.5846C259.419 83.7332 259.29 83.8468 259.132 83.9021L255.48 85.205C255.334 85.2453 255.179 85.2278 255.046 85.1561C254.914 85.0845 254.814 84.9642 254.768 84.8205L252.141 76.896C250.692 76.817 249.302 76.2974 248.157 75.4067C247.011 74.516 246.166 73.2967 245.733 71.912C245.113 70.0814 245.226 68.0822 246.048 66.333C246.869 64.5838 248.336 63.2202 250.14 62.5278C251.031 62.2235 251.974 62.1016 252.912 62.1694C253.851 62.2372 254.767 62.4933 255.605 62.9225C256.443 63.3518 257.186 63.9452 257.789 64.6676C258.393 65.39 258.845 66.2266 259.118 67.1273C259.576 68.5339 259.614 70.0436 259.227 71.4714C258.84 72.8992 258.045 74.1831 256.939 75.1658L256.932 75.1445Z" fill="#019934"/>
<path d="M260.706 43.7168C260.706 43.8164 253.906 46.3725 245.448 49.4128C236.989 52.453 230.09 54.8952 230.054 54.824C230.019 54.7528 236.854 52.1753 245.32 49.128C253.785 46.0806 260.67 43.6242 260.706 43.7168Z" fill="#263238"/>
<path d="M268.78 45.0269C268.811 45.0886 268.838 45.1529 268.858 45.2191C268.915 45.3615 268.979 45.5466 269.065 45.7745C269.25 46.2942 269.506 47.0133 269.827 47.9105L272.561 55.8706C273.7 59.2455 275.06 63.2469 276.569 67.6898C277.281 69.9184 278.121 72.2395 278.905 74.6817C279.324 75.9401 279.505 77.2657 279.439 78.5905C279.378 79.2795 279.182 79.9498 278.862 80.5628C278.52 81.1737 278.063 81.7128 277.516 82.1505C276.416 82.9535 275.195 83.576 273.899 83.9946L270.232 85.3118L263.29 87.7967L251.535 91.9833L243.597 94.7743L241.461 95.4863L240.891 95.6714C240.83 95.6985 240.765 95.7153 240.699 95.7213C240.699 95.7213 240.756 95.7213 240.877 95.6358L241.432 95.4151L243.568 94.6105L251.464 91.7056L263.198 87.4336L270.126 84.9273L273.792 83.603C275.052 83.2014 276.237 82.5979 277.303 81.8159C277.811 81.4097 278.237 80.9093 278.556 80.3421C278.857 79.7751 279.039 79.1523 279.09 78.5122C279.155 77.2357 278.981 75.9583 278.577 74.7457C277.808 72.3249 276.996 69.9825 276.263 67.7539C274.782 63.3039 273.415 59.2882 272.333 55.9133C271.251 52.5385 270.339 49.8257 269.713 47.9176C269.414 46.9849 269.186 46.2586 269.001 45.7317L268.83 45.1621C268.808 45.119 268.792 45.0736 268.78 45.0269Z" fill="#263238"/>
<path d="M248.73 35.2083C248.73 35.2083 248.353 35.0232 247.655 34.7384C246.66 34.3563 245.608 34.1445 244.543 34.1119C242.965 34.0577 241.394 34.3544 239.944 34.9805C238.181 35.7601 236.673 37.0211 235.594 38.6188C234.507 40.2119 233.924 42.0946 233.92 44.0229C233.935 45.6034 234.175 47.1736 234.632 48.6865C235.003 49.9823 235.387 51.0147 235.643 51.7339C235.795 52.0991 235.918 52.4752 236.014 52.8588C235.811 52.5173 235.642 52.1573 235.508 51.7837C235.216 51.0717 234.796 50.0607 234.383 48.7577C233.876 47.229 233.6 45.6331 233.564 44.0229C233.545 42.0218 234.142 40.0632 235.273 38.4123C236.39 36.7563 237.959 35.4563 239.794 34.6672C241.29 34.0377 242.91 33.76 244.529 33.8555C245.617 33.911 246.686 34.1643 247.683 34.6031C247.95 34.7262 248.207 34.869 248.452 35.0303C248.554 35.0748 248.647 35.1349 248.73 35.2083Z" fill="#263238"/>
<path d="M249.058 63.069C249.171 63.0001 249.29 62.9406 249.414 62.891C249.77 62.7301 250.139 62.5991 250.517 62.4994C251.117 62.3222 251.736 62.2171 252.361 62.1861C253.211 62.1404 254.062 62.2688 254.86 62.5634C256.683 63.2042 258.356 65.0626 259.182 67.5474C259.578 68.8809 259.578 70.3008 259.182 71.6343C258.743 73.0816 257.956 74.3993 256.89 75.472L256.932 75.2798C257.879 77.8786 258.912 80.6981 259.98 83.6386L260.044 83.8166L259.866 83.8807L258.235 84.4218L254.675 85.6109L254.497 85.6678L254.44 85.4898C253.465 82.5422 252.397 79.7938 251.592 77.0954L251.749 77.2164C250.357 77.1008 249.03 76.5783 247.933 75.7141C246.94 74.9495 246.126 73.9776 245.547 72.8661C245.025 71.8804 244.766 70.7771 244.793 69.6621C244.826 68.5225 245.11 67.4043 245.626 66.3875C246.142 65.3708 246.876 64.4807 247.776 63.781C248.146 63.4802 248.562 63.2399 249.008 63.069C248.606 63.3076 248.216 63.5666 247.84 63.845C246.851 64.6815 246.094 65.7577 245.64 66.9707C245.25 67.8854 245.068 68.8749 245.106 69.8684C245.145 70.8618 245.402 71.8345 245.861 72.7166C246.43 73.7858 247.224 74.7187 248.189 75.4506C249.236 76.2721 250.501 76.7674 251.827 76.8746H251.948L251.984 76.9814C252.767 79.6301 253.842 82.3998 254.832 85.3617L254.597 85.2478L258.157 84.0587L259.78 83.5105L259.666 83.7526C258.606 80.812 257.58 77.9854 256.64 75.3866V75.2798L256.726 75.1943C257.761 74.1661 258.533 72.9034 258.976 71.5133C259.353 70.2377 259.353 68.88 258.976 67.6044C258.2 65.2121 256.598 63.3965 254.86 62.7557C254.091 62.4591 253.27 62.3211 252.447 62.3498C251.832 62.3639 251.22 62.4475 250.624 62.599C249.563 62.8625 249.065 63.1046 249.058 63.069Z" fill="#263238"/>
<path d="M227.05 268.652L155.928 268.324C151.821 268.302 147.89 266.65 145 263.732C142.11 260.813 140.496 256.867 140.513 252.76L141.268 74.4681C141.276 72.4332 141.686 70.42 142.473 68.5434C143.259 66.6668 144.408 64.9637 145.854 63.5315C147.299 62.0993 149.013 60.9659 150.897 60.1963C152.78 59.4267 154.797 59.0358 156.832 59.0462L227.947 59.3737C232.054 59.3944 235.985 61.0444 238.877 63.9614C241.768 66.8783 243.384 70.8236 243.369 74.9309L242.614 253.216C242.606 255.251 242.196 257.265 241.41 259.143C240.623 261.02 239.474 262.724 238.029 264.157C236.584 265.591 234.87 266.725 232.986 267.497C231.102 268.268 229.085 268.66 227.05 268.652Z" fill="#455A64"/>
<path d="M227.84 65.504H214.056C213.606 65.5123 213.162 65.6092 212.75 65.789C212.338 65.9689 211.965 66.2282 211.653 66.5522C211.341 66.8762 211.095 67.2585 210.931 67.6772C210.767 68.096 210.687 68.543 210.695 68.9928V71.4919C210.704 71.9413 210.623 72.388 210.459 72.8064C210.295 73.2247 210.049 73.6065 209.737 73.9299C209.425 74.2534 209.052 74.512 208.64 74.6911C208.227 74.8702 207.784 74.9662 207.334 74.9736L180.464 74.8525C179.555 74.8283 178.692 74.4443 178.066 73.7848C177.44 73.1253 177.101 72.2443 177.124 71.3353V68.8361C177.147 67.9283 176.809 67.0483 176.185 66.3891C175.56 65.7298 174.7 65.345 173.792 65.3189H168.943L156.875 65.2619C154.004 65.2448 151.244 66.3659 149.198 68.3796C147.153 70.3933 145.988 73.1356 145.96 76.006L145.248 250.033C145.241 251.457 145.515 252.868 146.054 254.187C146.593 255.505 147.387 256.704 148.389 257.715C149.391 258.727 150.583 259.531 151.896 260.082C153.209 260.633 154.618 260.92 156.042 260.927L227.014 261.254C228.439 261.261 229.851 260.987 231.17 260.447C232.489 259.908 233.689 259.114 234.701 258.111C235.714 257.108 236.518 255.916 237.07 254.602C237.621 253.288 237.908 251.878 237.915 250.453L238.627 76.4261C238.644 73.5476 237.517 70.7801 235.494 68.732C233.472 66.6839 230.719 65.5228 227.84 65.504Z" fill="white"/>
<path d="M218.292 238.036L165.519 237.808C164.97 237.808 164.529 237.21 164.536 236.484L164.593 222.678C164.593 221.966 165.042 221.354 165.59 221.354L218.363 221.596C218.667 221.648 218.939 221.816 219.122 222.064C219.305 222.312 219.385 222.621 219.346 222.927L219.296 236.719C219.296 237.452 218.84 238.043 218.292 238.036Z" fill="#019934"/>
<path d="M179.943 227.075C179.926 226.931 179.857 226.819 179.736 226.74C179.615 226.66 179.466 226.62 179.29 226.62C179.161 226.62 179.048 226.641 178.952 226.683C178.856 226.724 178.781 226.782 178.727 226.855C178.674 226.928 178.648 227.01 178.648 227.103C178.648 227.181 178.666 227.248 178.703 227.303C178.741 227.358 178.789 227.404 178.848 227.441C178.907 227.477 178.968 227.507 179.033 227.531C179.097 227.553 179.156 227.572 179.21 227.586L179.506 227.666C179.581 227.686 179.666 227.713 179.759 227.748C179.852 227.783 179.942 227.831 180.027 227.892C180.113 227.951 180.184 228.028 180.24 228.122C180.296 228.215 180.324 228.33 180.324 228.467C180.324 228.624 180.283 228.766 180.2 228.893C180.119 229.02 180 229.121 179.842 229.196C179.686 229.27 179.496 229.308 179.273 229.308C179.064 229.308 178.884 229.274 178.732 229.207C178.58 229.14 178.461 229.046 178.374 228.926C178.287 228.805 178.239 228.666 178.227 228.507H178.591C178.6 228.616 178.637 228.707 178.702 228.779C178.767 228.85 178.849 228.903 178.949 228.938C179.049 228.973 179.157 228.99 179.273 228.99C179.407 228.99 179.528 228.968 179.635 228.924C179.742 228.88 179.827 228.818 179.889 228.74C179.952 228.66 179.983 228.567 179.983 228.461C179.983 228.365 179.956 228.286 179.902 228.225C179.848 228.165 179.777 228.115 179.689 228.078C179.601 228.04 179.506 228.007 179.403 227.978L179.045 227.876C178.818 227.811 178.638 227.717 178.506 227.596C178.373 227.475 178.307 227.316 178.307 227.12C178.307 226.957 178.351 226.815 178.439 226.694C178.528 226.572 178.647 226.477 178.797 226.41C178.947 226.342 179.116 226.308 179.301 226.308C179.489 226.308 179.655 226.341 179.801 226.409C179.947 226.475 180.063 226.566 180.148 226.681C180.234 226.797 180.279 226.928 180.284 227.075H179.943ZM181.255 226.348V229.257H180.903V226.348H181.255ZM184.268 226.348V229.257H183.928L182.342 226.973H182.314V229.257H181.962V226.348H182.303L183.893 228.637H183.922V226.348H184.268ZM186.962 227.257C186.931 227.161 186.89 227.075 186.838 226.999C186.788 226.923 186.728 226.857 186.658 226.803C186.589 226.749 186.51 226.708 186.422 226.68C186.334 226.651 186.238 226.637 186.132 226.637C185.96 226.637 185.803 226.682 185.662 226.771C185.521 226.86 185.409 226.991 185.326 227.164C185.242 227.338 185.201 227.55 185.201 227.802C185.201 228.054 185.243 228.267 185.327 228.44C185.411 228.613 185.525 228.744 185.669 228.833C185.813 228.922 185.975 228.967 186.155 228.967C186.322 228.967 186.469 228.931 186.596 228.86C186.723 228.788 186.823 228.687 186.894 228.556C186.966 228.425 187.002 228.27 187.002 228.092L187.11 228.115H186.235V227.802H187.343V228.115C187.343 228.354 187.292 228.562 187.189 228.74C187.088 228.917 186.948 229.054 186.769 229.151C186.591 229.248 186.386 229.296 186.155 229.296C185.898 229.296 185.671 229.236 185.476 229.115C185.282 228.993 185.131 228.821 185.022 228.598C184.914 228.374 184.86 228.109 184.86 227.802C184.86 227.572 184.891 227.365 184.952 227.181C185.015 226.997 185.103 226.839 185.216 226.71C185.33 226.58 185.464 226.481 185.62 226.411C185.775 226.342 185.946 226.308 186.132 226.308C186.286 226.308 186.429 226.331 186.561 226.377C186.695 226.423 186.814 226.488 186.918 226.572C187.023 226.655 187.111 226.755 187.181 226.872C187.251 226.987 187.299 227.115 187.326 227.257H186.962ZM190.98 226.348H191.332V228.274C191.332 228.473 191.286 228.65 191.192 228.806C191.099 228.962 190.968 229.084 190.798 229.174C190.629 229.263 190.43 229.308 190.202 229.308C189.973 229.308 189.775 229.263 189.605 229.174C189.436 229.084 189.304 228.962 189.21 228.806C189.117 228.65 189.071 228.473 189.071 228.274V226.348H189.423V228.245C189.423 228.387 189.455 228.514 189.517 228.624C189.58 228.734 189.669 228.821 189.784 228.884C189.901 228.947 190.04 228.978 190.202 228.978C190.364 228.978 190.503 228.947 190.619 228.884C190.736 228.821 190.825 228.734 190.886 228.624C190.949 228.514 190.98 228.387 190.98 228.245V226.348ZM192.036 229.257V226.348H193.019C193.247 226.348 193.434 226.389 193.578 226.471C193.724 226.553 193.832 226.663 193.902 226.802C193.972 226.941 194.007 227.097 194.007 227.268C194.007 227.439 193.972 227.595 193.902 227.735C193.833 227.875 193.726 227.987 193.581 228.071C193.436 228.153 193.251 228.194 193.025 228.194H192.32V227.882H193.013C193.169 227.882 193.295 227.855 193.39 227.801C193.484 227.747 193.553 227.674 193.596 227.582C193.639 227.489 193.661 227.384 193.661 227.268C193.661 227.151 193.639 227.047 193.596 226.955C193.553 226.864 193.484 226.792 193.388 226.74C193.292 226.687 193.166 226.66 193.007 226.66H192.388V229.257H192.036Z" fill="#E8E8E3"/>
<path d="M176.045 116.661L157.732 116.578L157.717 119.939L176.03 120.022L176.045 116.661Z" fill="#019934"/>
<path opacity="0.1" d="M176.045 116.661L157.732 116.578L157.717 119.939L176.03 120.022L176.045 116.661Z" fill="black"/>
<path d="M229.727 137.295C229.871 137.28 230.012 137.247 230.147 137.195C230.344 137.118 230.515 136.987 230.641 136.817C230.767 136.647 230.843 136.445 230.859 136.234C230.859 135.102 230.859 133.45 230.859 131.328C230.859 130.267 230.859 129.078 230.859 127.768C230.859 127.448 230.859 127.113 230.859 126.779C230.905 126.454 230.835 126.123 230.66 125.846C230.562 125.713 230.434 125.605 230.287 125.529C230.14 125.454 229.977 125.414 229.812 125.412H228.702H218.413L158.861 125.191C158.709 125.188 158.558 125.223 158.422 125.291C158.286 125.359 158.168 125.459 158.078 125.583C157.906 125.861 157.841 126.192 157.893 126.515C157.893 127.227 157.893 127.939 157.893 128.651C157.893 130.075 157.893 131.499 157.893 132.923C157.893 133.635 157.893 134.347 157.893 135.059C157.864 135.391 157.864 135.724 157.893 136.056C157.931 136.198 158 136.33 158.096 136.441C158.193 136.552 158.313 136.64 158.449 136.697C158.589 136.753 158.739 136.779 158.89 136.775H162.514L178.328 136.861L205.099 137.024L223.148 137.167L228.054 137.224H229.328C229.62 137.224 229.762 137.224 229.762 137.224H229.328H228.054H223.148H205.099L178.328 137.138L162.514 137.074H158.89C158.691 137.082 158.492 137.048 158.306 136.975C158.119 136.895 157.952 136.773 157.819 136.619C157.685 136.464 157.589 136.282 157.537 136.085C157.496 135.898 157.482 135.706 157.494 135.515V134.988C157.494 134.276 157.494 133.564 157.494 132.852C157.494 131.428 157.494 130.004 157.494 128.58C157.494 127.868 157.494 127.156 157.494 126.444C157.481 126.254 157.481 126.064 157.494 125.874C157.521 125.665 157.602 125.466 157.729 125.298C157.852 125.126 158.015 124.986 158.203 124.891C158.392 124.795 158.6 124.747 158.812 124.749L218.363 125.077L228.652 125.148H229.762C229.958 125.148 230.151 125.196 230.324 125.286C230.498 125.377 230.647 125.508 230.759 125.668C230.96 125.978 231.041 126.35 230.987 126.715C230.987 127.049 230.987 127.384 230.987 127.704C230.987 129 230.987 130.189 230.987 131.264C230.987 133.4 230.937 135.038 230.923 136.177C230.906 136.396 230.826 136.606 230.694 136.781C230.561 136.956 230.381 137.09 230.175 137.167C230.041 137.25 229.885 137.295 229.727 137.295Z" fill="#E0E0E0"/>
<path d="M196.726 128.765H163.233V131.905H196.726V128.765Z" fill="#019934"/>
<path opacity="0.2" d="M196.726 128.765H163.233V131.905H196.726V128.765Z" fill="white"/>
<path d="M175.92 147.319L157.608 147.236L157.592 150.597L175.905 150.68L175.92 147.319Z" fill="#019934"/>
<path opacity="0.1" d="M175.92 147.319L157.608 147.236L157.592 150.597L175.905 150.68L175.92 147.319Z" fill="black"/>
<path d="M229.264 167.954C229.408 167.936 229.55 167.91 229.691 167.875C229.89 167.812 230.073 167.707 230.228 167.567C230.382 167.427 230.505 167.255 230.588 167.064C230.7 166.776 230.744 166.467 230.716 166.159C230.716 165.818 230.716 165.447 230.716 165.034C230.716 164.209 230.716 163.269 230.716 162.186V157.665C230.75 157.338 230.678 157.008 230.51 156.725C230.334 156.435 230.058 156.22 229.734 156.12C229.379 156.057 229.018 156.038 228.659 156.063H218.413L159.068 155.843C158.749 155.843 158.441 155.96 158.201 156.171C157.961 156.382 157.806 156.672 157.765 156.989C157.765 157.665 157.765 158.413 157.765 159.125C157.765 160.549 157.765 161.973 157.765 163.397C157.765 164.109 157.765 164.821 157.765 165.533C157.738 165.866 157.753 166.2 157.808 166.53C157.897 166.818 158.079 167.069 158.327 167.242C158.59 167.409 158.899 167.488 159.21 167.47H160.2H162.258L178.014 167.548L204.693 167.712L222.678 167.854L227.569 167.911H228.844H229.271H228.844H227.569H222.678H204.693L178 167.882L162.243 167.826H159.146C158.761 167.848 158.379 167.746 158.057 167.534C157.733 167.309 157.496 166.98 157.388 166.601C157.324 166.239 157.305 165.871 157.331 165.504C157.331 164.792 157.331 164.08 157.331 163.368C157.331 161.944 157.331 160.52 157.331 159.096C157.331 158.384 157.331 157.672 157.331 156.96C157.383 156.553 157.581 156.179 157.889 155.908C158.197 155.636 158.593 155.487 159.004 155.487L218.349 155.814L228.595 155.892C228.976 155.869 229.359 155.895 229.734 155.971C230.104 156.092 230.416 156.345 230.61 156.683C230.794 156.996 230.874 157.36 230.837 157.722C230.837 158.057 230.837 158.384 230.837 158.712C230.837 160.001 230.837 161.183 230.837 162.272C230.837 163.361 230.837 164.28 230.837 165.12C230.837 165.526 230.837 165.903 230.837 166.252C230.863 166.57 230.812 166.89 230.688 167.185C230.596 167.381 230.462 167.555 230.296 167.695C230.13 167.836 229.936 167.938 229.727 167.996C229.571 168.009 229.415 167.995 229.264 167.954Z" fill="#E0E0E0"/>
<path d="M175.782 179.308L157.47 179.225L157.454 182.586L175.767 182.669L175.782 179.308Z" fill="#019934"/>
<path opacity="0.1" d="M175.782 179.308L157.47 179.225L157.454 182.586L175.767 182.669L175.782 179.308Z" fill="black"/>
<path d="M229.122 199.93C229.266 199.913 229.408 199.886 229.549 199.851C229.747 199.788 229.929 199.684 230.084 199.545C230.238 199.407 230.362 199.237 230.446 199.047C230.558 198.759 230.601 198.45 230.574 198.142C230.574 197.794 230.574 197.431 230.574 197.01C230.574 196.192 230.574 195.245 230.574 194.162V189.641C230.608 189.314 230.536 188.984 230.368 188.701C230.188 188.416 229.913 188.205 229.592 188.103C229.237 188.037 228.876 188.016 228.516 188.039H218.271L158.926 187.818C158.606 187.819 158.298 187.936 158.059 188.147C157.819 188.358 157.664 188.648 157.623 188.965C157.623 189.677 157.623 190.389 157.623 191.101C157.623 192.525 157.623 193.949 157.623 195.373C157.623 196.085 157.623 196.797 157.623 197.509C157.596 197.839 157.61 198.172 157.665 198.498C157.751 198.789 157.934 199.041 158.185 199.21C158.446 199.381 158.757 199.461 159.068 199.438H162.165L177.922 199.524L204.6 199.688L222.585 199.83L227.477 199.887H228.751C229.036 199.887 229.179 199.887 229.179 199.887C229.179 199.887 229.036 199.887 228.751 199.887H227.477H222.585H204.6L177.922 199.809L162.165 199.744H159.068C158.683 199.77 158.299 199.668 157.979 199.453C157.655 199.228 157.418 198.899 157.309 198.52C157.245 198.158 157.226 197.79 157.252 197.423C157.252 196.711 157.252 195.999 157.252 195.287C157.252 193.863 157.252 192.439 157.252 191.015C157.252 190.303 157.252 189.591 157.252 188.844C157.303 188.437 157.5 188.063 157.807 187.792C158.113 187.52 158.509 187.37 158.918 187.37L218.264 187.697L228.509 187.776C228.891 187.752 229.274 187.779 229.648 187.854C230.018 187.975 230.33 188.229 230.524 188.566C230.708 188.88 230.788 189.244 230.752 189.606C230.752 189.94 230.752 190.275 230.752 190.595C230.752 191.884 230.752 193.066 230.752 194.155C230.752 195.245 230.752 196.163 230.752 197.003C230.752 197.409 230.752 197.786 230.752 198.135C230.779 198.454 230.728 198.774 230.603 199.068C230.51 199.265 230.376 199.439 230.211 199.579C230.045 199.719 229.851 199.822 229.641 199.88C229.474 199.937 229.296 199.954 229.122 199.93Z" fill="#E0E0E0"/>
<path d="M196.011 160.312L162.518 160.16L162.504 163.3L195.996 163.452L196.011 160.312Z" fill="#019934"/>
<path opacity="0.2" d="M196.011 160.312L162.518 160.16L162.504 163.3L195.996 163.452L196.011 160.312Z" fill="white"/>
<path d="M165.547 194.12C165.526 194.406 165.421 194.68 165.246 194.908C165.071 195.135 164.833 195.306 164.561 195.399C164.29 195.493 163.997 195.504 163.719 195.433C163.44 195.361 163.189 195.209 162.997 194.997C162.804 194.784 162.678 194.519 162.635 194.235C162.591 193.951 162.632 193.661 162.752 193.4C162.872 193.139 163.065 192.919 163.309 192.767C163.553 192.615 163.836 192.539 164.123 192.546C164.52 192.568 164.892 192.746 165.158 193.04C165.425 193.335 165.565 193.723 165.547 194.12Z" fill="#019934"/>
<path d="M170.083 194.141C170.097 194.342 170.069 194.543 170.002 194.733C169.935 194.923 169.829 195.096 169.692 195.243C169.555 195.391 169.389 195.508 169.204 195.588C169.02 195.668 168.821 195.71 168.619 195.71C168.418 195.71 168.219 195.668 168.035 195.588C167.85 195.508 167.684 195.391 167.547 195.243C167.41 195.096 167.304 194.923 167.237 194.733C167.17 194.543 167.142 194.342 167.156 194.141C167.142 193.94 167.17 193.739 167.237 193.549C167.304 193.359 167.41 193.186 167.547 193.039C167.684 192.891 167.85 192.774 168.035 192.694C168.219 192.614 168.418 192.572 168.619 192.572C168.821 192.572 169.02 192.614 169.204 192.694C169.389 192.774 169.555 192.891 169.692 193.039C169.829 193.186 169.935 193.359 170.002 193.549C170.069 193.739 170.097 193.94 170.083 194.141Z" fill="#019934"/>
<path d="M174.625 194.162C174.604 194.449 174.499 194.723 174.324 194.95C174.149 195.178 173.911 195.349 173.639 195.442C173.368 195.535 173.075 195.547 172.797 195.475C172.518 195.404 172.267 195.252 172.075 195.039C171.882 194.826 171.756 194.562 171.713 194.278C171.669 193.994 171.71 193.703 171.83 193.443C171.95 193.182 172.143 192.962 172.387 192.81C172.631 192.658 172.914 192.581 173.201 192.589C173.597 192.613 173.968 192.791 174.234 193.085C174.5 193.379 174.641 193.766 174.625 194.162Z" fill="#019934"/>
<path d="M179.161 194.184C179.14 194.47 179.035 194.744 178.86 194.972C178.684 195.199 178.446 195.37 178.175 195.463C177.903 195.557 177.61 195.568 177.332 195.497C177.054 195.425 176.803 195.274 176.61 195.061C176.418 194.848 176.292 194.583 176.248 194.299C176.204 194.015 176.245 193.725 176.365 193.464C176.485 193.203 176.679 192.983 176.923 192.831C177.167 192.68 177.45 192.603 177.737 192.61C178.133 192.634 178.503 192.812 178.77 193.106C179.036 193.401 179.176 193.787 179.161 194.184Z" fill="#019934"/>
<path d="M183.696 194.198C183.676 194.485 183.573 194.76 183.398 194.988C183.224 195.217 182.986 195.389 182.715 195.483C182.443 195.578 182.15 195.59 181.871 195.519C181.592 195.448 181.341 195.297 181.147 195.084C180.954 194.872 180.827 194.607 180.783 194.323C180.739 194.039 180.78 193.748 180.899 193.487C181.019 193.225 181.213 193.005 181.457 192.853C181.701 192.701 181.985 192.624 182.272 192.632C182.667 192.656 183.037 192.833 183.303 193.125C183.569 193.418 183.71 193.803 183.696 194.198Z" fill="#019934"/>
<path d="M188.239 194.219C188.219 194.505 188.117 194.778 187.944 195.006C187.771 195.234 187.535 195.406 187.266 195.502C186.996 195.598 186.705 195.612 186.427 195.544C186.149 195.477 185.897 195.329 185.702 195.12C185.507 194.91 185.378 194.649 185.329 194.367C185.281 194.085 185.317 193.795 185.431 193.533C185.545 193.271 185.734 193.048 185.973 192.891C186.213 192.735 186.493 192.652 186.779 192.653C187.18 192.668 187.559 192.841 187.832 193.135C188.106 193.428 188.252 193.818 188.239 194.219Z" fill="#019934"/>
<path d="M192.774 194.241C192.788 194.441 192.761 194.643 192.693 194.833C192.626 195.022 192.521 195.196 192.383 195.343C192.246 195.49 192.08 195.608 191.896 195.688C191.711 195.768 191.512 195.81 191.311 195.81C191.11 195.81 190.911 195.768 190.726 195.688C190.541 195.608 190.375 195.49 190.238 195.343C190.101 195.196 189.995 195.022 189.928 194.833C189.861 194.643 189.834 194.441 189.848 194.241C189.834 194.04 189.861 193.839 189.928 193.649C189.995 193.459 190.101 193.285 190.238 193.138C190.375 192.991 190.541 192.874 190.726 192.794C190.911 192.713 191.11 192.672 191.311 192.672C191.512 192.672 191.711 192.713 191.896 192.794C192.08 192.874 192.246 192.991 192.383 193.138C192.521 193.285 192.626 193.459 192.693 193.649C192.761 193.839 192.788 194.04 192.774 194.241Z" fill="#019934"/>
<path d="M197.309 194.262C197.29 194.547 197.188 194.821 197.015 195.049C196.842 195.277 196.606 195.449 196.337 195.545C196.067 195.64 195.776 195.655 195.498 195.587C195.22 195.519 194.968 195.372 194.773 195.162C194.578 194.953 194.449 194.691 194.4 194.409C194.352 194.128 194.387 193.838 194.502 193.576C194.616 193.313 194.805 193.091 195.044 192.934C195.284 192.778 195.564 192.695 195.85 192.696C196.251 192.711 196.63 192.884 196.903 193.177C197.177 193.471 197.323 193.861 197.309 194.262Z" fill="#019934"/>
<path d="M201.845 194.283C201.825 194.57 201.722 194.845 201.547 195.073C201.373 195.302 201.135 195.474 200.863 195.569C200.592 195.663 200.299 195.676 200.02 195.605C199.741 195.534 199.49 195.383 199.296 195.17C199.103 194.957 198.976 194.692 198.932 194.408C198.888 194.124 198.928 193.833 199.048 193.572C199.168 193.311 199.362 193.09 199.606 192.938C199.85 192.786 200.133 192.709 200.421 192.717C200.816 192.741 201.185 192.918 201.451 193.211C201.717 193.503 201.859 193.888 201.845 194.283Z" fill="#019934"/>
<g opacity="0.2">
<path d="M165.547 194.12C165.526 194.406 165.421 194.68 165.246 194.908C165.071 195.135 164.833 195.306 164.561 195.399C164.29 195.493 163.997 195.504 163.719 195.433C163.44 195.361 163.189 195.209 162.997 194.997C162.804 194.784 162.678 194.519 162.635 194.235C162.591 193.951 162.632 193.661 162.752 193.4C162.872 193.139 163.065 192.919 163.309 192.767C163.553 192.615 163.836 192.539 164.123 192.546C164.52 192.568 164.892 192.746 165.158 193.04C165.425 193.335 165.565 193.723 165.547 194.12Z" fill="white"/>
<path d="M170.082 194.141C170.096 194.342 170.069 194.543 170.002 194.733C169.935 194.923 169.829 195.096 169.692 195.244C169.555 195.391 169.389 195.508 169.204 195.588C169.02 195.669 168.821 195.71 168.619 195.71C168.418 195.71 168.219 195.669 168.034 195.588C167.85 195.508 167.684 195.391 167.547 195.244C167.409 195.096 167.304 194.923 167.237 194.733C167.17 194.543 167.142 194.342 167.156 194.141C167.142 193.94 167.17 193.739 167.237 193.549C167.304 193.36 167.409 193.186 167.547 193.039C167.684 192.891 167.85 192.774 168.034 192.694C168.219 192.614 168.418 192.572 168.619 192.572C168.821 192.572 169.02 192.614 169.204 192.694C169.389 192.774 169.555 192.891 169.692 193.039C169.829 193.186 169.935 193.36 170.002 193.549C170.069 193.739 170.096 193.94 170.082 194.141Z" fill="white"/>
<path d="M174.625 194.162C174.604 194.449 174.499 194.723 174.324 194.95C174.149 195.178 173.911 195.349 173.639 195.442C173.368 195.535 173.075 195.547 172.797 195.475C172.518 195.404 172.267 195.252 172.075 195.039C171.882 194.826 171.756 194.562 171.713 194.278C171.669 193.994 171.71 193.703 171.83 193.443C171.95 193.182 172.143 192.962 172.387 192.81C172.631 192.658 172.914 192.581 173.201 192.589C173.597 192.613 173.968 192.791 174.234 193.085C174.5 193.379 174.641 193.766 174.625 194.162Z" fill="white"/>
<path d="M179.16 194.184C179.139 194.47 179.035 194.744 178.86 194.972C178.684 195.199 178.446 195.37 178.175 195.463C177.903 195.557 177.61 195.568 177.332 195.497C177.054 195.425 176.803 195.274 176.61 195.061C176.417 194.848 176.292 194.583 176.248 194.299C176.204 194.015 176.245 193.725 176.365 193.464C176.485 193.203 176.679 192.983 176.923 192.831C177.166 192.68 177.449 192.603 177.736 192.61C178.132 192.634 178.503 192.812 178.77 193.106C179.036 193.401 179.176 193.787 179.16 194.184Z" fill="white"/>
<path d="M183.696 194.198C183.676 194.485 183.573 194.76 183.398 194.988C183.224 195.217 182.986 195.389 182.714 195.483C182.443 195.578 182.15 195.59 181.871 195.519C181.592 195.448 181.341 195.297 181.147 195.084C180.954 194.872 180.827 194.607 180.783 194.323C180.739 194.039 180.78 193.748 180.899 193.487C181.019 193.225 181.213 193.005 181.457 192.853C181.701 192.701 181.984 192.624 182.272 192.632C182.667 192.656 183.036 192.833 183.302 193.125C183.568 193.418 183.71 193.803 183.696 194.198Z" fill="white"/>
<path d="M188.239 194.219C188.219 194.505 188.117 194.778 187.944 195.006C187.771 195.234 187.535 195.406 187.266 195.502C186.996 195.598 186.705 195.612 186.427 195.544C186.149 195.477 185.897 195.329 185.702 195.12C185.507 194.91 185.378 194.649 185.329 194.367C185.281 194.085 185.317 193.795 185.431 193.533C185.545 193.271 185.734 193.048 185.973 192.891C186.213 192.735 186.493 192.652 186.779 192.653C187.18 192.668 187.559 192.841 187.832 193.135C188.106 193.428 188.252 193.818 188.239 194.219Z" fill="white"/>
<path d="M192.774 194.241C192.788 194.442 192.761 194.643 192.693 194.833C192.626 195.022 192.521 195.196 192.383 195.343C192.246 195.49 192.08 195.608 191.896 195.688C191.711 195.768 191.512 195.81 191.311 195.81C191.11 195.81 190.911 195.768 190.726 195.688C190.541 195.608 190.375 195.49 190.238 195.343C190.101 195.196 189.995 195.022 189.928 194.833C189.861 194.643 189.834 194.442 189.848 194.241C189.834 194.04 189.861 193.839 189.928 193.649C189.995 193.459 190.101 193.285 190.238 193.138C190.375 192.991 190.541 192.874 190.726 192.794C190.911 192.713 191.11 192.672 191.311 192.672C191.512 192.672 191.711 192.713 191.896 192.794C192.08 192.874 192.246 192.991 192.383 193.138C192.521 193.285 192.626 193.459 192.693 193.649C192.761 193.839 192.788 194.04 192.774 194.241Z" fill="white"/>
<path d="M197.309 194.262C197.29 194.547 197.187 194.821 197.015 195.049C196.842 195.277 196.606 195.449 196.337 195.545C196.067 195.64 195.775 195.655 195.498 195.587C195.22 195.519 194.968 195.372 194.773 195.162C194.578 194.953 194.448 194.691 194.4 194.41C194.352 194.128 194.387 193.838 194.502 193.576C194.616 193.314 194.805 193.091 195.044 192.934C195.284 192.778 195.564 192.695 195.85 192.696C196.251 192.711 196.63 192.884 196.903 193.177C197.177 193.471 197.323 193.861 197.309 194.262Z" fill="white"/>
<path d="M201.845 194.283C201.825 194.57 201.722 194.845 201.547 195.073C201.373 195.302 201.135 195.474 200.863 195.569C200.592 195.663 200.299 195.676 200.02 195.605C199.741 195.534 199.49 195.383 199.296 195.17C199.103 194.957 198.976 194.692 198.932 194.408C198.888 194.124 198.928 193.833 199.048 193.572C199.168 193.311 199.362 193.09 199.606 192.938C199.85 192.786 200.133 192.709 200.421 192.717C200.816 192.741 201.185 192.918 201.451 193.211C201.717 193.503 201.859 193.888 201.845 194.283Z" fill="white"/>
</g>
<path d="M87.1986 120.1H86.864L85.8956 120.171C85.3716 120.203 84.8505 120.272 84.3364 120.378C84.0033 120.425 83.673 120.489 83.3467 120.57L82.2431 120.876C80.3647 121.453 78.5925 122.33 76.9956 123.475C74.8859 125.006 73.1242 126.967 71.8265 129.228C71.0638 130.531 70.4568 131.92 70.018 133.365C69.557 134.935 69.2916 136.557 69.2277 138.192C69.1853 139.051 69.1996 139.912 69.2704 140.77C69.2704 141.204 69.3915 141.638 69.4484 142.08C69.4964 142.525 69.5797 142.965 69.6976 143.397C70.3379 146.254 71.637 148.922 73.4913 151.188C75.3455 153.454 77.7037 155.255 80.3776 156.448C82.3129 157.283 84.3872 157.749 86.4937 157.822C88.6694 157.942 90.8473 157.629 92.9017 156.903L93.5283 156.668H93.6137L93.6849 156.711L102.663 161.268L102.4 161.496C101.439 158.52 100.513 155.636 99.6159 152.866V152.76L99.6942 152.681C101.872 150.488 103.489 147.801 104.408 144.849C105.24 142.151 105.482 139.305 105.12 136.505C104.797 134.016 103.997 131.613 102.763 129.427C101.699 127.55 100.327 125.865 98.7045 124.443C97.3656 123.318 95.8836 122.375 94.2972 121.638C93.0969 121.12 91.8468 120.727 90.5664 120.463L89.1424 120.228L88.11 120.15L87.4834 120.107H87.2698C87.3408 120.099 87.4124 120.099 87.4834 120.107H88.1171L89.1495 120.15L90.5735 120.356C91.8698 120.601 93.137 120.98 94.3542 121.489C95.9678 122.216 97.4765 123.158 98.8398 124.287C100.493 125.702 101.894 127.387 102.984 129.271C104.252 131.48 105.077 133.915 105.412 136.441C105.804 139.284 105.579 142.179 104.749 144.928C103.825 147.941 102.183 150.684 99.9648 152.923L100.007 152.738C100.905 155.508 101.837 158.392 102.806 161.361L102.941 161.795L102.535 161.588L93.5568 157.039H93.7134L93.0726 157.274C90.9786 158.011 88.7604 158.33 86.5436 158.214C84.3917 158.132 82.274 157.649 80.2993 156.79C76.5326 155.176 73.3988 152.373 71.378 148.808C70.448 147.162 69.7689 145.386 69.363 143.539C69.2519 143.096 69.1686 142.647 69.1138 142.194C69.0568 141.745 68.9643 141.304 68.9429 140.862C68.7502 138.329 69.018 135.781 69.7332 133.343C70.1829 131.878 70.8068 130.473 71.5916 129.157C72.9202 126.875 74.7186 124.902 76.8675 123.368C78.4906 122.22 80.2926 121.35 82.2004 120.791L83.3182 120.506C83.6472 120.43 83.9799 120.37 84.315 120.328C84.8345 120.232 85.3605 120.175 85.8885 120.157L86.864 120.122C86.9749 120.107 87.0867 120.099 87.1986 120.1Z" fill="#019934"/>
<path d="M91.257 136.704H89.9398L87.0918 132.703V130.075C87.0918 130.075 85.0555 129.947 85.2976 133.386C85.5397 136.825 85.2976 135.949 85.2976 135.949C85.2976 135.949 80.9758 135.949 80.6198 136.341C80.2638 136.732 80.2424 140.905 80.1925 143.233C80.1653 143.794 80.3263 144.349 80.6501 144.808C80.9739 145.267 81.4419 145.605 81.9797 145.768C82.1304 145.81 82.286 145.831 82.4425 145.832C83.5247 145.832 89.0285 144.956 89.0285 144.956H91.2997L91.257 136.704Z" fill="#019934"/>
<path d="M95.0235 135.999L94.2118 144.999H91.9619V136.184L95.0235 135.999Z" fill="#019934"/>
<path d="M121.859 319.218V313.13L110.944 313.052L110.851 322.258L111.528 322.308C114.539 322.5 126.85 322.785 128.872 322.159C131.122 321.461 121.859 319.218 121.859 319.218Z" fill="#019934"/>
<path d="M129.128 321.589C129.128 321.689 125.041 321.774 120.008 321.774C114.974 321.774 110.887 321.689 110.887 321.589C110.887 321.489 114.974 321.404 120.008 321.404C125.041 321.404 129.128 321.489 129.128 321.589Z" fill="#263238"/>
<path d="M122.051 320.464C121.958 320.414 122.051 320.094 122.272 319.752C122.492 319.41 122.792 319.268 122.863 319.339C122.934 319.41 122.784 319.681 122.571 319.973C122.357 320.265 122.144 320.514 122.051 320.464Z" fill="#263238"/>
<path d="M122.749 320.863C122.649 320.863 122.699 320.464 122.913 320.087C123.126 319.709 123.411 319.482 123.489 319.538C123.568 319.595 123.439 319.916 123.24 320.25C123.041 320.585 122.841 320.898 122.749 320.863Z" fill="#263238"/>
<path d="M114.176 321.561C114.134 321.561 113.97 321.432 113.735 321.162C113.448 320.814 113.129 320.495 112.781 320.208C112.439 319.935 112.031 319.755 111.599 319.688C111.264 319.645 111.051 319.688 111.029 319.645C111.008 319.603 111.214 319.453 111.606 319.425C112.123 319.414 112.627 319.585 113.03 319.909C113.408 320.217 113.726 320.59 113.97 321.012C114.134 321.326 114.219 321.532 114.176 321.561Z" fill="#263238"/>
<path d="M122.087 319.318C122.136 319.403 121.951 319.617 121.638 319.731C121.325 319.845 121.047 319.802 121.033 319.731C121.019 319.66 121.239 319.51 121.51 319.41C121.78 319.311 122.03 319.232 122.087 319.318Z" fill="#263238"/>
<path d="M121.916 318.727C121.916 318.834 121.631 318.919 121.261 318.926C120.891 318.933 120.599 318.848 120.606 318.748C120.613 318.648 120.905 318.556 121.261 318.549C121.617 318.542 121.902 318.627 121.916 318.727Z" fill="#263238"/>
<path d="M148.737 319.218V313.13L137.822 313.052L137.729 322.166L138.406 322.216C141.417 322.408 153.735 322.785 155.75 322.159C158 321.461 148.737 319.218 148.737 319.218Z" fill="#019934"/>
<path d="M156.006 321.603C156.006 321.703 151.927 321.788 146.886 321.788C141.845 321.788 137.772 321.703 137.772 321.603C137.772 321.504 141.852 321.418 146.886 321.418C151.919 321.418 156.006 321.504 156.006 321.603Z" fill="#263238"/>
<path d="M148.929 320.464C148.844 320.414 148.929 320.094 149.15 319.752C149.371 319.41 149.67 319.268 149.741 319.339C149.812 319.41 149.662 319.681 149.449 319.973C149.235 320.265 149.022 320.514 148.929 320.464Z" fill="#263238"/>
<path d="M149.627 320.863C149.534 320.863 149.577 320.464 149.798 320.087C150.018 319.709 150.296 319.482 150.374 319.538C150.453 319.595 150.317 319.916 150.118 320.25C149.919 320.585 149.727 320.898 149.627 320.863Z" fill="#263238"/>
<path d="M141.054 321.561C141.012 321.561 140.855 321.432 140.613 321.162C140.326 320.814 140.007 320.495 139.659 320.208C139.317 319.935 138.909 319.755 138.477 319.688C138.149 319.645 137.929 319.688 137.907 319.645C137.886 319.603 138.092 319.453 138.484 319.425C139.001 319.414 139.505 319.585 139.908 319.909C140.288 320.215 140.606 320.589 140.848 321.012C141.012 321.326 141.097 321.532 141.054 321.561Z" fill="#263238"/>
<path d="M148.965 319.318C149.015 319.403 148.829 319.617 148.516 319.731C148.203 319.845 147.925 319.802 147.911 319.731C147.897 319.66 148.117 319.51 148.388 319.41C148.659 319.311 148.908 319.232 148.965 319.318Z" fill="#263238"/>
<path d="M148.808 318.727C148.808 318.834 148.523 318.919 148.153 318.926C147.783 318.933 147.498 318.848 147.505 318.748C147.512 318.648 147.797 318.556 148.153 318.549C148.509 318.542 148.808 318.627 148.808 318.727Z" fill="#263238"/>
<path d="M188.951 138.441C188.666 138.149 187.961 138.292 187.961 138.292C188.032 137.882 188.032 137.463 187.961 137.053C187.833 136.654 186.936 136.732 186.936 136.732C186.894 136.397 186.894 136.057 186.936 135.721C186.943 135.647 186.927 135.572 186.89 135.507C186.853 135.442 186.797 135.39 186.729 135.358C186.305 135.185 185.849 135.103 185.391 135.116C184.842 134.725 187.064 131.613 187.89 130.616C188.716 129.62 188.566 128.844 187.833 128.844C187.327 128.844 184.736 131.834 183.938 132.838C183.141 133.842 181.026 136.633 180.955 134.404C180.884 132.176 179.986 130.495 179.424 130.211C178.862 129.926 178.263 130.595 178.57 131.214C178.839 131.918 179.006 132.657 179.068 133.407C179.145 134.006 179.119 134.613 178.99 135.202C178.754 136.298 178.432 137.374 178.028 138.42H177.972C177.972 138.42 162.436 153.322 161.311 154.383C160.307 155.337 140.114 153.251 136.063 152.824C134.687 152.622 133.296 152.527 131.905 152.539C130.146 152.617 129.833 152.866 128.082 152.888C123.658 152.937 119.245 153.325 114.881 154.048C112.905 154.384 111.059 155.256 109.545 156.57C108.031 157.883 106.906 159.587 106.294 161.496C102.215 174.241 92.973 204.408 91.3425 221.354C90.1104 223.588 88.9981 225.886 88.0103 228.239C86.864 231.357 87.1417 231.464 87.5262 231.535C88.5657 231.728 89.7476 226.131 90.189 227.484C90.6305 228.837 87.9462 234.155 89.0356 234.312C90.4596 234.511 91.5917 228.616 91.727 228.146C91.8622 227.676 92.5671 227.826 92.439 228.267C92.2325 228.894 90.2318 235.537 91.6273 235.75C92.3962 235.864 92.4817 234.462 92.4817 234.462C92.4817 234.462 93.9057 228.103 94.5536 228.232C95.2015 228.36 94.5109 232.112 94.1834 233.365C93.8558 234.618 94.3115 235.252 94.9808 234.946C95.4365 234.732 96.5258 230.923 96.8249 229.684C97.1239 228.445 97.8715 225.013 98.8754 227C99.8794 228.986 101.403 230.14 102.03 230.168C102.171 230.152 102.304 230.094 102.412 230.001C102.52 229.909 102.597 229.786 102.635 229.649C102.672 229.512 102.668 229.367 102.622 229.232C102.577 229.097 102.492 228.98 102.378 228.894C101.84 228.367 101.377 227.768 101.004 227.114C100.672 226.604 100.431 226.04 100.292 225.448C100.005 224.267 99.8384 223.06 99.7939 221.845L99.68 221.133C101.275 213.237 105.867 190.061 112.496 175.259L115.216 180.855L116.398 184.999L109.15 202.891L140.065 202.486L135.451 184.728L141.054 166.216C147.113 166.352 162.671 166.579 165.262 165.405C168.523 163.981 185.391 142.678 185.391 142.678C186.49 141.823 187.543 140.911 188.545 139.944C188.545 139.944 189.57 139.082 188.951 138.441Z" fill="#FFBE9D"/>
<path d="M107.79 189.67C108.687 186.608 113.293 171.471 113.293 171.471C113.293 171.471 115.558 183.81 114.96 185.298C114.409 186.572 113.759 187.8 113.016 188.972C107.79 196.925 108.473 200.905 108.473 200.905L140.05 199.944C140.122 195.529 137.509 185.262 136.967 183.625C136.426 181.987 138.228 176.626 138.228 176.626C138.228 176.626 141.788 173.002 141.66 171.136C141.592 169.461 141.385 167.794 141.04 166.152L160.264 166.864L159.659 153.835L132.048 151.072C131.086 153.785 122.393 152.453 122.393 152.453C113.009 152.767 112.425 154.49 108.523 157.523C104.621 160.556 98.1635 186.587 98.1635 186.587L107.79 189.67Z" fill="#019934"/>
<path d="M126.458 186.587C125.911 186.684 125.354 186.713 124.799 186.672C123.767 186.672 122.35 186.601 120.791 186.444C119.232 186.288 117.822 186.067 116.818 185.868C116.264 185.796 115.722 185.658 115.202 185.455C115.758 185.455 116.314 185.507 116.861 185.611C117.872 185.739 119.274 185.917 120.826 186.074C122.379 186.231 123.788 186.337 124.807 186.409C125.362 186.416 125.915 186.475 126.458 186.587Z" fill="#263238"/>
<path d="M128.623 183.902C128.075 184.171 127.497 184.369 126.9 184.493C124.059 185.24 121.128 185.587 118.192 185.526C117.584 185.546 116.977 185.488 116.384 185.355C116.983 185.279 117.588 185.248 118.192 185.262C119.31 185.227 120.848 185.148 122.542 184.949C124.237 184.75 125.746 184.465 126.814 184.237C127.408 184.079 128.012 183.967 128.623 183.902Z" fill="#263238"/>
<path d="M139.246 171.927C139.231 172.469 139.157 173.009 139.025 173.536C138.84 174.525 138.555 175.878 138.192 177.359C137.829 178.84 137.48 180.207 137.167 181.133C137.041 181.663 136.855 182.176 136.611 182.664C136.651 182.122 136.751 181.587 136.91 181.069C137.181 179.958 137.487 178.676 137.829 177.274C138.171 175.871 138.498 174.59 138.769 173.479C138.865 172.944 139.025 172.423 139.246 171.927Z" fill="#263238"/>
<path d="M108.124 187.854C106.477 187.6 104.852 187.221 103.261 186.722C101.636 186.342 100.042 185.842 98.491 185.227C100.137 185.485 101.763 185.864 103.354 186.359C104.979 186.737 106.574 187.237 108.124 187.854Z" fill="#263238"/>
<path d="M141.382 165.996C141.113 166.042 140.839 166.042 140.57 165.996C139.826 165.919 139.096 165.745 138.399 165.476C137.234 165.038 136.174 164.362 135.286 163.49C134.398 162.618 133.702 161.57 133.244 160.414C132.737 159.141 132.52 157.772 132.61 156.405C132.642 155.278 132.979 154.18 133.585 153.229C134.012 152.589 134.649 152.118 135.387 151.898C135.584 151.844 135.788 151.817 135.992 151.82C136.134 151.82 136.206 151.82 136.206 151.82C136.206 151.82 135.907 151.82 135.43 152.012C134.753 152.262 134.179 152.73 133.799 153.343C132.831 154.867 132.56 157.651 133.593 160.25C134.073 161.475 134.825 162.576 135.793 163.468C136.585 164.198 137.498 164.786 138.491 165.205C139.423 165.574 140.392 165.839 141.382 165.996Z" fill="#263238"/>
<path d="M157.979 166.608C157.8 164.425 157.743 162.233 157.808 160.043C157.752 157.856 157.818 155.666 158.007 153.486C158.185 155.667 158.242 157.856 158.178 160.043C158.238 162.234 158.171 164.425 157.979 166.608Z" fill="#263238"/>
<path d="M131.862 151.87C131.941 150.282 132.104 148.488 132.104 148.488C132.104 148.488 136.035 148.053 136.27 143.995C136.505 139.936 136.27 130.574 136.27 130.574L129.15 126.928L121.246 133.144L122.464 153.436L129.712 153.899C130.266 153.914 130.804 153.709 131.207 153.329C131.61 152.948 131.846 152.424 131.862 151.87Z" fill="#FFBE9D"/>
<path d="M132.567 140.784C132.567 140.784 132.567 140.862 132.503 140.955C132.45 141.022 132.382 141.075 132.304 141.11C132.225 141.144 132.14 141.16 132.055 141.154C131.599 141.154 131.158 140.627 131.001 140.015C130.926 139.718 130.926 139.407 131.001 139.111C131.016 138.981 131.062 138.857 131.137 138.75C131.211 138.643 131.312 138.557 131.428 138.498C131.524 138.459 131.631 138.459 131.727 138.498C131.798 138.533 131.856 138.591 131.891 138.662C131.941 138.783 131.891 138.861 131.891 138.854C131.891 138.847 131.891 138.783 131.82 138.712C131.782 138.661 131.728 138.625 131.666 138.612C131.604 138.599 131.54 138.609 131.485 138.641C131.398 138.693 131.325 138.767 131.274 138.856C131.223 138.944 131.195 139.044 131.193 139.146C131.133 139.411 131.133 139.686 131.193 139.951C131.336 140.506 131.72 140.955 132.062 140.997C132.129 141.006 132.197 141.002 132.262 140.983C132.327 140.965 132.387 140.933 132.439 140.891C132.525 140.834 132.553 140.777 132.567 140.784Z" fill="#EB996E"/>
<path d="M138.712 128.381C138.164 126.515 136.177 125.59 134.369 125.077C131.613 124.294 128.637 123.952 125.946 124.942C123.254 125.931 120.022 127.669 120.022 130.638C118.434 130.51 117.523 131.898 116.896 133.621C116.496 134.671 116.256 135.775 116.184 136.896C115.985 140.784 114.895 146.152 112.375 149C110.951 150.588 108.979 151.684 108.167 153.664C107.455 155.38 107.825 157.416 107.163 159.153C106.572 160.684 105.269 161.773 104.315 163.105C103.343 164.615 102.771 166.348 102.653 168.14C102.534 169.933 102.874 171.726 103.639 173.351C104.409 174.934 105.494 176.344 106.827 177.495C108.16 178.645 109.713 179.512 111.392 180.043C114.718 181.055 118.265 181.09 121.61 180.143C124.12 179.543 126.462 178.382 128.459 176.747C130.503 175.078 131.906 172.754 132.432 170.168C132.938 167.263 132.126 164.308 131.521 161.417C129.627 152.283 130.168 151.805 132.56 143.326C132.617 143.176 132.646 143.019 132.688 142.87C132.731 142.72 132.752 142.649 132.781 142.535C132.849 142.2 132.885 141.859 132.888 141.517C132.538 141.647 132.159 141.675 131.795 141.596C131.43 141.518 131.095 141.337 130.83 141.076C130.564 140.796 130.379 140.451 130.293 140.074C130.208 139.698 130.226 139.306 130.346 138.94C130.514 138.539 130.764 138.178 131.081 137.879C131.397 137.581 131.773 137.353 132.183 137.209C132.973 136.882 133.82 136.711 134.596 136.348C136.241 135.565 137.38 133.941 138.156 132.24C138.795 131.06 138.991 129.692 138.712 128.381Z" fill="#263238"/>
<path d="M132.852 140.976C133.003 141.198 133.127 141.437 133.222 141.688C133.436 142.137 133.721 142.77 134.034 143.504L134.091 143.639H133.941L133.229 143.703C132.738 143.703 132.325 143.795 131.841 143.788C131.799 143.779 131.76 143.759 131.727 143.73C131.695 143.702 131.67 143.665 131.656 143.625C131.635 143.56 131.635 143.49 131.656 143.425C131.672 143.329 131.694 143.234 131.72 143.14L131.848 142.635C131.913 142.298 132.013 141.968 132.147 141.652C132.134 141.996 132.084 142.337 131.998 142.671L131.898 143.176C131.862 143.347 131.798 143.61 131.898 143.589C132.254 143.589 132.76 143.511 133.229 143.482L133.941 143.418L133.849 143.575C133.543 142.863 133.286 142.193 133.137 141.731C133.006 141.494 132.91 141.24 132.852 140.976Z" fill="#019934"/>
<path d="M108.473 200.905L140.05 199.944L153.792 253.586L151.264 315.117H134.568L136.611 254.896L124.401 217.552L126.28 317.502L109.406 317.751L107.633 223.803C107.555 221.19 106.7 215.302 107.021 212.71L108.473 200.905Z" fill="#263238"/>
<path d="M128.601 218.313C128.085 218.346 127.566 218.315 127.056 218.221C126.102 218.107 124.799 217.908 123.368 217.623C121.937 217.338 120.656 217.01 119.73 216.747C119.235 216.638 118.756 216.466 118.306 216.234C118.306 216.128 120.627 216.683 123.475 217.26C126.323 217.836 128.616 218.207 128.601 218.313Z" fill="#455A64"/>
<path d="M151.094 311.742C151.094 311.842 147.313 311.927 142.649 311.927C137.986 311.927 134.198 311.842 134.198 311.742C134.198 311.642 137.978 311.557 142.649 311.557C147.32 311.557 151.094 311.635 151.094 311.742Z" fill="#455A64"/>
<path d="M126.131 314.903C126.131 315.01 122.457 315.089 117.929 315.089C113.4 315.089 109.733 315.01 109.733 314.903C109.733 314.797 113.407 314.718 117.929 314.718C122.45 314.718 126.131 314.804 126.131 314.903Z" fill="#455A64"/>
<path d="M123.952 314.647C123.852 314.647 123.411 292.81 122.962 265.875C122.514 238.94 122.25 217.089 122.343 217.089C122.435 217.089 122.891 238.919 123.333 265.868C123.774 292.817 124.059 314.647 123.952 314.647Z" fill="#455A64"/>
<path d="M148.851 311.742C148.843 311.645 148.843 311.547 148.851 311.45V310.596C148.851 309.827 148.908 308.723 148.95 307.321C149.05 304.473 149.192 300.336 149.37 295.266C149.755 285.071 150.296 271.016 150.887 255.501C150.887 255.352 150.887 255.209 150.887 255.081V255.131C147.149 240.179 143.767 226.608 141.311 216.79L138.463 205.177C138.135 203.817 137.886 202.756 137.708 202.016C137.622 201.667 137.565 201.396 137.516 201.19C137.488 201.097 137.471 201.002 137.466 200.905C137.503 200.995 137.531 201.088 137.551 201.183C137.608 201.382 137.679 201.653 137.779 201.994C137.971 202.706 138.249 203.789 138.605 205.141C139.317 207.89 140.321 211.848 141.574 216.726C144.052 226.537 147.469 240.072 151.257 255.045V255.095C151.257 255.224 151.257 255.373 151.257 255.515C150.624 271.03 150.047 285.078 149.627 295.274C149.406 300.35 149.221 304.458 149.093 307.321C149.022 308.745 148.965 309.827 148.929 310.596C148.929 310.959 148.886 311.244 148.879 311.45C148.88 311.548 148.871 311.646 148.851 311.742Z" fill="#455A64"/>
<path d="M143.404 253.828C142.205 254.222 140.969 254.497 139.716 254.647C138.178 254.91 136.868 255.095 136.277 255.124V254.981C136.469 255.038 136.569 255.074 136.569 255.102C136.569 255.131 136.448 255.102 136.248 255.102H135.821L136.248 254.974C136.804 254.811 138.114 254.54 139.652 254.262C140.885 253.995 142.142 253.849 143.404 253.828Z" fill="#455A64"/>
<path d="M143.112 255.871C142.001 255.922 140.889 255.872 139.787 255.722C138.675 255.699 137.567 255.578 136.476 255.359C138.701 255.177 140.941 255.35 143.112 255.871Z" fill="#455A64"/>
<path opacity="0.2" d="M108.338 202.037C108.712 202.517 109.183 202.913 109.72 203.199C110.258 203.485 110.849 203.654 111.456 203.696C112.728 203.847 114.015 203.823 115.28 203.625C123.432 202.721 132.069 201.888 140.05 199.944C129.719 200.521 118.804 200.328 108.473 200.905L108.366 201.788" fill="black"/>
<g opacity="0.2">
<path d="M118.982 216.597L124.806 239.196L124.401 217.552L118.982 216.597Z" fill="black"/>
</g>
<g clip-path="url(#clip0_5_287)">
<path d="M170.287 102.389C169.759 101.986 169.759 101.986 169.889 100.722L170.454 100.662C171.505 100.572 171.838 100.086 171.497 99.0844C170.657 96.6393 169.802 94.1942 168.954 91.7566C168.882 91.5398 168.824 91.3155 168.715 90.9566C169.299 90.9071 169.885 90.9071 170.469 90.9566C170.613 91.0135 170.743 91.1037 170.848 91.2203C170.954 91.3369 171.032 91.4769 171.077 91.6295C171.534 93.0876 171.925 94.5606 172.345 96.0337C172.41 96.3223 172.559 96.5834 172.772 96.7814C173.171 95.3906 173.577 93.9998 173.961 92.6016C174.424 90.9266 174.627 90.7846 176.496 91.0313C175.772 93.2745 175.047 95.4355 174.323 97.6263C174.091 98.3217 173.823 99.0096 173.635 99.7125C173.272 101.058 172.743 102.217 171.171 102.382L170.287 102.389Z" fill="#019934"/>
<path d="M187.088 93.9624C187.298 93.7047 187.555 93.4927 187.845 93.3387C188.135 93.1846 188.452 93.0916 188.777 93.0651C190.341 92.781 191.805 93.0128 192.855 94.3737C193.364 95.0025 193.693 95.7645 193.807 96.5751C193.921 97.3856 193.815 98.2128 193.5 98.9648C193.331 99.4038 193.057 99.7915 192.704 100.092C192.35 100.392 191.929 100.595 191.479 100.681C191.029 100.768 190.565 100.735 190.13 100.587C189.696 100.438 189.305 100.179 188.994 99.8322C188.2 98.8708 187.531 97.8077 187.002 96.6692C186.516 95.8093 186.219 94.8223 185.69 93.9998C185.254 93.3417 184.632 92.8394 183.907 92.5622C183.183 92.285 182.394 92.2465 181.648 92.452C180.917 92.6836 180.263 93.1201 179.759 93.713C179.255 94.3058 178.921 95.0317 178.793 95.8094C178.568 97.6562 180.155 98.9722 181.763 98.1198C182.869 97.4338 183.914 96.6482 184.886 95.772C185.169 95.5477 185.415 95.2635 185.784 94.8971C185.784 95.1663 185.784 95.3084 185.784 95.3682C184.574 96.8636 183.43 98.3591 182.104 99.705C180.966 100.857 179.546 101.664 177.873 100.797C176.199 99.9293 175.772 98.2544 175.91 96.4299C176.163 93.0128 178.757 90.5154 181.901 90.7322C184.075 90.8818 185.524 92.1753 186.603 93.9549C186.965 94.5531 187.175 95.2485 187.545 95.8392C187.977 96.567 188.485 97.244 189.059 97.8581C189.338 98.2113 189.734 98.445 190.17 98.5141C190.607 98.5832 191.052 98.4826 191.421 98.232C191.804 97.9663 192.099 97.5863 192.268 97.1427C192.436 96.6991 192.469 96.2131 192.363 95.7495C192.244 95.3121 192.036 94.906 191.753 94.559C191.469 94.212 191.116 93.9322 190.718 93.7385C190.32 93.5448 189.886 93.4419 189.446 93.4366C189.006 93.4314 188.57 93.524 188.168 93.7082C187.864 93.8503 187.574 94.0372 187.277 94.2017L187.088 93.9624Z" fill="#019934"/>
<path d="M194.833 88.5265C196.427 88.3545 196.731 88.6311 196.731 90.1416V91.9137C197.269 91.5098 197.856 91.1805 198.477 90.9342C198.869 90.821 199.279 90.7927 199.681 90.8509C200.084 90.9091 200.471 91.0526 200.817 91.2724C201.163 91.4922 201.462 91.7835 201.694 92.128C201.926 92.4726 202.086 92.8629 202.165 93.2746C202.423 94.2995 202.479 95.3672 202.332 96.415C201.948 98.8601 200.455 99.8546 197.441 99.2414C195.543 98.8526 194.833 97.8282 194.819 95.8542C194.819 93.4166 194.833 91.0314 194.833 88.5265ZM200.549 95.2112C200.484 94.7476 200.455 94.4261 200.397 94.112C200.332 93.7008 200.134 93.3244 199.835 93.0436C199.537 92.7628 199.155 92.5939 198.753 92.5642C198.332 92.5041 197.906 92.6171 197.566 92.8787C197.226 93.1404 196.999 93.5296 196.934 93.9625C196.814 94.7969 196.831 95.6464 196.985 96.4749C197.055 96.8448 197.25 97.1771 197.535 97.4125C197.821 97.648 198.178 97.7715 198.543 97.7609C198.906 97.7907 199.269 97.6943 199.574 97.4871C199.878 97.2798 200.107 96.9736 200.223 96.6169C200.363 96.1565 200.472 95.6869 200.549 95.2112Z" fill="#019934"/>
<path d="M203.187 91.0314H205.186V94.9943C205.186 95.4355 205.186 95.8767 205.186 96.3178C205.186 96.7343 205.347 97.1337 205.632 97.4281C205.917 97.7226 206.304 97.888 206.708 97.888C207.111 97.888 207.498 97.7226 207.784 97.4281C208.069 97.1337 208.229 96.7343 208.229 96.3178C208.229 95.1065 208.229 93.8951 208.229 92.6913C208.229 91.1958 208.635 90.8444 210.178 91.0762C210.178 92.9755 210.229 94.8822 210.178 96.7889C210.182 97.3937 209.967 97.9782 209.574 98.4267C209.181 98.8753 208.639 99.1554 208.055 99.2115C207.21 99.3723 206.343 99.3723 205.498 99.2115C203.795 98.8227 203.208 97.9703 203.187 96.2206C203.165 94.4709 203.187 92.7661 203.187 91.0314Z" fill="#019934"/>
<path d="M218.568 99.0695C216.184 100.116 215.793 98.0152 214.873 96.5496C214.453 97.2973 214.061 97.8357 213.772 98.4638C213.676 98.7381 213.485 98.9661 213.237 99.1041C212.988 99.2422 212.698 99.2804 212.424 99.2115C211.942 99.177 211.457 99.177 210.975 99.2115C211.786 97.918 212.569 96.7216 213.279 95.4729C213.351 95.3215 213.388 95.1553 213.388 94.9868C213.388 94.8184 213.351 94.6522 213.279 94.5008C212.627 93.3568 211.902 92.2576 211.221 91.1584C213.395 90.2014 213.916 92.0333 214.786 93.6035C215.145 93.0663 215.471 92.507 215.764 91.9286C216.358 90.4332 217.351 89.8275 218.988 90.3135C218.162 91.6146 217.358 92.9605 216.467 94.2466C216.272 94.4543 216.164 94.7318 216.164 95.0205C216.164 95.3092 216.272 95.5867 216.467 95.7944C217.227 96.8786 217.894 98.0152 218.568 99.0695Z" fill="#019934"/>
</g>
<defs>
<clipPath id="clip0_5_287">
<rect width="50.4071" height="14.177" fill="white" transform="translate(168.549 88.2124)"/>
</clipPath>
</defs>
</svg>
